<svg width="233" height="309" viewBox="0 0 233 309" fill="none" xmlns="http://www.w3.org/2000/svg">
<g clip-path="url(#clip0_777_24267)">
<path fill-rule="evenodd" clip-rule="evenodd" d="M248.431 73.1845L248.614 73.3987C249.229 72.9269 249.841 72.4477 250.45 71.9614C251.059 71.4751 251.661 70.9847 252.255 70.4904L252.055 70.2898L251.855 70.0893C251.266 70.5789 250.67 71.0647 250.067 71.5465C249.464 72.0283 248.857 72.5029 248.248 72.9703L248.431 73.1845ZM255.54 67.2736L255.756 67.4599C256.906 66.4235 258.026 65.3723 259.116 64.3076L258.883 64.1363L258.65 63.965C257.571 65.0196 256.462 66.0608 255.323 67.0873L255.54 67.2736ZM262.073 60.8869L262.321 61.0425C263.367 59.932 264.381 58.8089 265.362 57.6746L265.1 57.5352L264.837 57.3957C263.865 58.5191 262.861 59.6314 261.825 60.7313L262.073 60.8869ZM267.955 54.089L268.231 54.2118C269.16 53.04 270.055 51.8582 270.916 50.6679L270.626 50.5621L270.337 50.4564C269.484 51.6352 268.598 52.8057 267.678 53.9662L267.955 54.089ZM273.106 46.9658L273.408 47.0541C274.207 45.8367 274.971 44.6122 275.7 43.3821L275.388 43.3113L275.075 43.2405C274.354 44.4588 273.597 45.6716 272.805 46.8774L273.106 46.9658ZM277.463 39.6104L277.785 39.6634C278.446 38.4158 279.071 37.164 279.658 35.9098L279.327 35.8747L278.996 35.8396C278.414 37.0819 277.796 38.3217 277.141 39.5574L277.463 39.6104ZM280.975 32.1156L281.314 32.1327C281.829 30.8702 282.307 29.6069 282.746 28.3441L282.4 28.345L282.055 28.3459C281.619 29.5966 281.146 30.848 280.636 32.0984L280.975 32.1156ZM283.6 24.5752L283.952 24.5563C284.316 23.2951 284.641 22.0361 284.927 20.7809L284.571 20.8177L284.215 20.8544C283.931 22.0977 283.609 23.3447 283.249 24.594L283.6 24.5752ZM286.175 13.3138C286.046 14.5459 285.877 15.785 285.669 17.0295L285.309 17.0841L284.95 17.1386C285.156 15.9059 285.323 14.6786 285.451 13.4582L285.813 13.386L286.175 13.3138ZM286.08 9.73527L286.443 9.64562C286.493 8.43364 286.502 7.2302 286.472 6.03684L286.108 6.14371L285.745 6.25059C285.775 7.43254 285.765 8.6245 285.716 9.82493L286.08 9.73527ZM285.898 2.62233L286.261 2.49853C286.151 1.3343 286.001 0.181594 285.81 -0.958073L285.45 -0.817714L285.09 -0.677357C285.278 0.451371 285.427 1.59303 285.536 2.74611L285.898 2.62233ZM284.764 -4.16539L285.121 -4.32191C284.852 -5.42347 284.543 -6.51073 284.194 -7.58218L283.841 -7.40999L283.489 -7.23779C283.835 -6.17665 284.14 -5.09985 284.407 -4.00888L284.764 -4.16539ZM282.685 -10.5411L283.032 -10.7284C282.608 -11.7523 282.145 -12.7594 281.641 -13.7483L281.301 -13.5464L280.961 -13.3446C281.459 -12.3652 281.918 -11.3678 282.338 -10.3538L282.685 -10.5411ZM279.692 -16.4189L280.025 -16.6345C279.452 -17.5687 278.84 -18.4839 278.189 -19.3788L277.865 -19.1501L277.541 -18.9214C278.186 -18.035 278.792 -17.1285 279.36 -16.2032L279.692 -16.4189ZM275.827 -21.7325L276.141 -21.9735C275.782 -22.393 275.414 -22.8072 275.037 -23.216C274.659 -23.6249 274.274 -24.0257 273.882 -24.4184L273.579 -24.166L273.275 -23.9136C273.663 -23.5245 274.044 -23.1275 274.419 -22.7225C274.793 -22.3174 275.157 -21.9071 275.512 -21.4916L275.827 -21.7325ZM271.141 -26.4293L271.433 -26.6925C270.579 -27.426 269.699 -28.1265 268.792 -28.794L268.513 -28.5209L268.233 -28.2477C269.131 -27.5866 270.003 -26.8927 270.849 -26.1662L271.141 -26.4293ZM265.701 -30.433L265.967 -30.7154C264.992 -31.3275 263.991 -31.9055 262.967 -32.4496L262.715 -32.159L262.464 -31.8683C263.478 -31.3294 264.469 -30.7569 265.435 -30.1506L265.701 -30.433ZM259.561 -33.6939L259.797 -33.992C258.71 -34.4746 257.601 -34.9226 256.47 -35.3358L256.25 -35.0313L256.03 -34.7267C257.15 -34.3174 258.248 -33.8738 259.324 -33.3957L259.561 -33.6939ZM252.795 -36.1672L252.998 -36.4773C251.815 -36.8244 250.612 -37.1362 249.391 -37.4131L249.205 -37.0985L249.019 -36.784C250.228 -36.5098 251.419 -36.2009 252.591 -35.8572L252.795 -36.1672ZM245.493 -37.8228L245.661 -38.1408C244.397 -38.3488 243.116 -38.5214 241.82 -38.6588L241.67 -38.3383L241.52 -38.0178C242.804 -37.8817 244.072 -37.7108 245.324 -37.5048L245.493 -37.8228ZM237.749 -38.6439L237.88 -38.9658C236.55 -39.033 235.208 -39.0648 233.853 -39.0614L233.741 -38.739L233.629 -38.4166C234.97 -38.42 236.3 -38.3885 237.617 -38.3219L237.749 -38.6439ZM229.66 -38.6237L229.753 -38.9455C228.375 -38.8717 226.988 -38.7627 225.592 -38.6187L225.519 -38.2984L225.446 -37.9781C226.828 -38.1207 228.203 -38.2287 229.567 -38.3018L229.66 -38.6237ZM217.139 -37.3368C218.559 -37.6199 219.974 -37.8683 221.383 -38.082L221.33 -37.7642L221.277 -37.4465C219.881 -37.2348 218.479 -36.9888 217.073 -36.7083L217.106 -37.0226L217.139 -37.3368ZM212.861 -36.0755L212.873 -36.3852C211.451 -36.0344 210.026 -35.6492 208.6 -35.23L208.608 -34.9258L208.616 -34.6216C210.028 -35.0369 211.44 -35.4183 212.848 -35.7658L212.861 -36.0755ZM204.36 -33.5763L204.332 -33.874C202.914 -33.3899 201.497 -32.8722 200.082 -32.3211L200.131 -32.0309L200.179 -31.7406C201.58 -32.2865 202.984 -32.7992 204.388 -33.2786L204.36 -33.5763ZM195.933 -30.2938L195.864 -30.5757C194.469 -29.964 193.077 -29.3197 191.691 -28.6428L191.78 -28.3702L191.869 -28.0977C193.242 -28.768 194.62 -29.4062 196.002 -30.012L195.933 -30.2938ZM187.686 -26.266L187.577 -26.5284C186.223 -25.7974 184.876 -25.035 183.537 -24.2412L183.665 -23.9897L183.793 -23.7383C185.119 -24.5245 186.453 -25.2797 187.794 -26.0036L187.686 -26.266ZM179.729 -21.5477L179.582 -21.7873C178.286 -20.9468 177 -20.0761 175.724 -19.1754L175.89 -18.9481L176.055 -18.7209C177.318 -19.6131 178.593 -20.4755 179.876 -21.308L179.729 -21.5477ZM170.138 -14.9771C170.747 -15.4634 171.359 -15.9425 171.974 -16.4144L172.157 -16.2002L172.34 -15.986C171.731 -15.5185 171.124 -15.0439 170.521 -14.5621C169.918 -14.0804 169.322 -13.5946 168.733 -13.1049L168.533 -13.3055L168.333 -13.506C168.927 -14.0003 169.529 -14.4907 170.138 -14.9771ZM165.048 -10.2892L164.831 -10.4755C163.681 -9.43914 162.562 -8.38792 161.472 -7.3232L161.705 -7.15194L161.938 -6.98068C163.016 -8.03523 164.126 -9.07644 165.265 -10.103L165.048 -10.2892ZM158.515 -3.90255L158.267 -4.05818C157.221 -2.94763 156.207 -1.82451 155.226 -0.690242L155.488 -0.550794L155.751 -0.411341C156.723 -1.5347 157.727 -2.64703 158.763 -3.74692L158.515 -3.90255ZM152.633 2.89535L152.357 2.77256C151.428 3.94439 150.533 5.12619 149.672 6.31649L149.962 6.42223L150.251 6.52798C151.103 5.34914 151.99 4.1787 152.91 3.01815L152.633 2.89535ZM147.481 10.0186L147.18 9.93022C146.381 11.1476 145.617 12.3722 144.888 13.6023L145.2 13.6731L145.512 13.7438C146.234 12.5255 146.991 11.3127 147.783 10.107L147.481 10.0186ZM143.125 17.374L142.802 17.321C142.141 18.5686 141.517 19.8203 140.929 21.0746L141.261 21.1097L141.592 21.1448C142.174 19.9025 142.792 18.6627 143.447 17.427L143.125 17.374ZM139.613 24.8688L139.274 24.8517C138.759 26.1141 138.281 27.3775 137.842 28.6402L138.187 28.6394L138.533 28.6385C138.969 27.3878 139.442 26.1364 139.952 24.8859L139.613 24.8688ZM136.987 32.4092L136.636 32.428C136.272 33.6893 135.947 34.9483 135.661 36.2034L136.017 36.1667L136.373 36.13C136.657 34.8867 136.979 33.6396 137.339 32.3904L136.987 32.4092ZM135.278 39.9003L134.919 39.9548C134.711 41.1994 134.542 42.4385 134.413 43.6706L134.775 43.5984L135.137 43.5262C135.265 42.3058 135.432 41.0785 135.638 39.8457L135.278 39.9003ZM134.508 47.2491L134.145 47.3388C134.095 48.5507 134.086 49.7542 134.116 50.9475L134.479 50.8407L134.843 50.7338C134.813 49.5518 134.823 48.3599 134.872 47.1594L134.508 47.2491ZM134.689 54.362L134.327 54.4858C134.437 55.6501 134.587 56.8028 134.778 57.9424L135.138 57.8021L135.498 57.6617C135.31 56.533 135.161 55.3913 135.052 54.2383L134.689 54.362ZM135.824 61.1498L135.467 61.3063C135.736 62.4078 136.045 63.4951 136.394 64.5666L136.747 64.3944L137.099 64.2222C136.753 63.161 136.447 62.0842 136.181 60.9932L135.824 61.1498ZM137.903 67.5255L137.556 67.7128C137.979 68.7367 138.443 69.7438 138.947 70.7326L139.287 70.5308L139.627 70.329C139.128 69.3496 138.669 68.3522 138.25 67.3381L137.903 67.5255ZM140.896 73.4033L140.563 73.6189C141.136 74.5531 141.748 75.4683 142.399 76.3632L142.723 76.1345L143.047 75.9058C142.402 75.0193 141.796 74.1129 141.228 73.1876L140.896 73.4033ZM144.761 78.7169L144.447 78.9579C144.806 79.3774 145.174 79.7916 145.551 80.2004C145.929 80.6092 146.314 81.01 146.706 81.4028L147.009 81.1504L147.313 80.898C146.925 80.5089 146.543 80.1118 146.169 79.7068C145.795 79.3018 145.431 78.8915 145.075 78.4759L144.761 78.7169ZM149.447 83.4137L149.155 83.6769C150.008 84.4104 150.889 85.1109 151.796 85.7784L152.075 85.5052L152.355 85.2321C151.457 84.5709 150.584 83.8771 149.739 83.1505L149.447 83.4137ZM154.886 87.4174L154.621 87.6997C155.596 88.3118 156.597 88.8899 157.621 89.434L157.873 89.1433L158.124 88.8526C157.11 88.3137 156.118 87.7412 155.152 87.135L154.886 87.4174ZM161.027 90.6782L160.791 90.9763C161.877 91.459 162.987 91.9069 164.117 92.3202L164.338 92.0156L164.558 91.7111C163.438 91.3018 162.339 90.8582 161.264 90.3801L161.027 90.6782ZM167.793 93.1516L167.59 93.4617C168.772 93.8087 169.975 94.1206 171.197 94.3975L171.383 94.0829L171.569 93.7684C170.36 93.4942 169.168 93.1853 167.997 92.8415L167.793 93.1516ZM175.095 94.8072L174.927 95.1252C176.191 95.3332 177.472 95.5058 178.768 95.6431L178.918 95.3227L179.068 95.0022C177.784 94.8661 176.516 94.6951 175.263 94.4892L175.095 94.8072ZM182.839 95.6283L182.708 95.9502C184.037 96.0174 185.38 96.0492 186.735 96.0458L186.847 95.7234L186.959 95.401C185.618 95.4044 184.287 95.3728 182.971 95.3063L182.839 95.6283ZM190.928 95.6081L190.835 95.9299C192.213 95.8561 193.6 95.7471 194.996 95.6031L195.069 95.2828L195.142 94.9625C193.76 95.1051 192.385 95.2131 191.021 95.2862L190.928 95.6081ZM199.258 94.7486L199.205 95.0663C200.614 94.8527 202.029 94.6043 203.449 94.3212L203.482 94.0069L203.515 93.6927C202.108 93.9731 200.707 94.2192 199.311 94.4308L199.258 94.7486ZM207.727 93.0599L207.714 93.3696C209.137 93.0187 210.562 92.6336 211.988 92.2143L211.98 91.9102L211.972 91.606C210.56 92.0212 209.148 92.4027 207.74 92.7502L207.727 93.0599ZM216.228 90.5607L216.256 90.8584C217.674 90.3743 219.091 89.8566 220.506 89.3055L220.457 89.0153L220.409 88.725C219.007 89.2708 217.604 89.7835 216.2 90.263L216.228 90.5607ZM224.655 87.2782L224.724 87.5601C226.119 86.9484 227.511 86.3041 228.897 85.6272L228.808 85.3546L228.719 85.082C227.346 85.7524 225.968 86.3905 224.586 86.9963L224.655 87.2782ZM232.902 83.2504L233.011 83.5128C234.365 82.7818 235.712 82.0194 237.05 81.2255L236.922 80.9741L236.794 80.7227C235.469 81.5089 234.135 82.264 232.794 82.988L232.902 83.2504ZM240.858 78.532L241.005 78.7717C242.302 77.9311 243.588 77.0604 244.864 76.1597L244.698 75.9325L244.533 75.7053C243.27 76.5974 241.995 77.4598 240.711 78.2924L240.858 78.532ZM238.479 62.594L238.3 62.3771L238.12 62.1603C238.761 61.677 239.397 61.1833 240.028 60.679C240.66 60.1747 241.28 59.6646 241.891 59.1489L242.094 59.3466L242.298 59.5444C241.68 60.0667 241.051 60.5833 240.411 61.0939C239.772 61.6046 239.128 62.1046 238.479 62.594ZM245.916 56.3098L245.69 56.1325L245.463 55.9551C246.627 54.8543 247.746 53.7328 248.819 52.5935L249.067 52.7492L249.315 52.9048C248.228 54.0589 247.095 55.1948 245.916 56.3098ZM252.473 49.3465L252.205 49.2136L251.937 49.0808C252.938 47.8826 253.891 46.6688 254.795 45.4422L255.082 45.5514L255.369 45.6606C254.453 46.9031 253.488 48.1327 252.473 49.3465ZM257.986 41.866L257.682 41.7811L257.378 41.6962C258.194 40.4295 258.958 39.1529 259.669 37.8695L259.988 37.9296L260.306 37.9898C259.585 39.2897 258.811 40.5829 257.986 41.866ZM262.318 34.0552L261.987 34.0201L261.655 33.985C262.266 32.6814 262.823 31.3741 263.325 30.0663L263.667 30.0762L264.009 30.0861C263.5 31.4107 262.936 32.7348 262.318 34.0552ZM265.371 26.1079L265.02 26.1231L264.67 26.1384C265.063 24.83 265.4 23.5243 265.681 22.2247L266.038 22.1844L266.395 22.1441C266.11 23.4603 265.769 24.7827 265.371 26.1079ZM267.075 18.2194L266.713 18.2845L266.352 18.3497C266.519 17.0683 266.628 15.7961 266.679 14.5364L267.043 14.4467L267.406 14.3571C267.354 15.633 267.243 16.9215 267.075 18.2194ZM267.386 10.5821C267.321 9.34388 267.197 8.12125 267.014 6.91741L266.653 7.05449L266.292 7.19156C266.473 8.38001 266.595 9.58702 266.66 10.8095L267.023 10.6958L267.386 10.5821ZM266.289 3.3852L265.933 3.5449L265.577 3.7046C265.282 2.57218 264.93 1.46083 264.519 0.373582L264.869 0.192242L265.218 0.0109026C265.634 1.11229 265.991 2.23808 266.289 3.3852ZM263.805 -3.18833L263.464 -2.9865L263.124 -2.78467C262.607 -3.79911 262.034 -4.78767 261.403 -5.74753L261.732 -5.9685L262.061 -6.18947C262.7 -5.21726 263.281 -4.21593 263.805 -3.18833ZM259.999 -8.97789L259.682 -8.73931L259.366 -8.50072C259.002 -8.93992 258.625 -9.37165 258.233 -9.79557C257.842 -10.2195 257.44 -10.6317 257.028 -11.0323L257.329 -11.2869L257.63 -11.5416C258.048 -11.1359 258.455 -10.7184 258.851 -10.2891C259.248 -9.85988 259.63 -9.42269 259.999 -8.97789ZM254.977 -13.8581L254.692 -13.5888L254.408 -13.3196C253.482 -14.0446 252.518 -14.721 251.517 -15.3489L251.783 -15.6313L252.049 -15.9136C253.063 -15.2776 254.04 -14.5924 254.977 -13.8581ZM248.861 -17.6953L248.616 -17.4015L248.37 -17.1078C247.276 -17.6495 246.148 -18.141 244.988 -18.5825L245.212 -18.8858L245.435 -19.1892C246.61 -18.742 247.753 -18.2441 248.861 -17.6953ZM241.789 -20.3878L241.589 -20.0768L241.389 -19.7658C240.153 -20.1115 238.888 -20.4061 237.598 -20.6497L237.774 -20.9665L237.949 -21.2832C239.256 -21.0364 240.537 -20.738 241.789 -20.3878ZM233.939 -21.8712L233.789 -21.5507L233.639 -21.2302C232.292 -21.373 230.923 -21.4644 229.535 -21.5047L229.659 -21.827L229.783 -22.1492C231.188 -22.1084 232.575 -22.0158 233.939 -21.8712ZM225.508 -22.1163L225.411 -21.7943L225.314 -21.4722C223.89 -21.4103 222.451 -21.2973 221.001 -21.1335L221.07 -21.4533L221.139 -21.7732C222.608 -21.9391 224.065 -22.0536 225.508 -22.1163ZM216.704 -21.122L216.663 -20.8062L216.622 -20.4905C215.156 -20.226 213.682 -19.9113 212.204 -19.5467L212.216 -19.8563L212.229 -20.166C213.726 -20.5354 215.219 -20.8542 216.704 -21.122ZM207.742 -18.9107L207.758 -18.609L207.774 -18.3073C206.302 -17.8467 204.83 -17.3371 203.36 -16.7789L203.316 -17.0707L203.271 -17.3625C204.76 -17.928 206.251 -18.4442 207.742 -18.9107ZM198.842 -15.5297L198.915 -15.2496L198.988 -14.9695C197.547 -14.3238 196.113 -13.631 194.688 -12.8914L194.587 -13.158L194.487 -13.4246C195.93 -14.1738 197.383 -14.8756 198.842 -15.5297ZM190.227 -11.058L190.355 -10.8066L190.483 -10.5551C189.11 -9.74075 187.749 -8.88173 186.403 -7.9783L186.248 -8.21307L186.094 -8.44785C187.457 -9.3629 188.836 -10.233 190.227 -11.058ZM182.109 -5.60995C181.461 -5.12056 180.816 -4.62054 180.177 -4.10991C179.538 -3.59928 178.909 -3.08267 178.291 -2.56039L178.494 -2.36261L178.698 -2.16483C179.308 -2.68055 179.929 -3.19071 180.56 -3.69498C181.192 -4.19924 181.828 -4.69301 182.468 -5.17626L182.289 -5.3931L182.109 -5.60995ZM174.672 0.674223L174.899 0.851566L175.125 1.02891C173.962 2.12972 172.843 3.25119 171.77 4.3905L171.522 4.23487L171.274 4.07924C172.361 2.92517 173.494 1.78921 174.672 0.674223ZM168.115 7.63758L168.383 7.7704L168.652 7.90323C167.65 9.10141 166.697 10.3153 165.793 11.5418L165.507 11.4326L165.22 11.3234C166.135 10.081 167.101 8.85132 168.115 7.63758ZM162.603 15.118L162.907 15.2029L163.21 15.2878C162.395 16.5545 161.631 17.8311 160.919 19.1145L160.601 19.0544L160.282 18.9943C161.003 17.6943 161.777 16.4011 162.603 15.118ZM158.271 22.9288L158.602 22.9639L158.933 22.999C158.322 24.3026 157.766 25.61 157.263 26.9178L156.921 26.9078L156.579 26.8979C157.088 25.5733 157.652 24.2492 158.271 22.9288ZM155.218 30.8762L155.568 30.8609L155.919 30.8457C155.526 32.1541 155.189 33.4597 154.908 34.7593L154.551 34.7996L154.194 34.8399C154.478 33.5237 154.82 32.2013 155.218 30.8762ZM153.514 38.7647L153.875 38.6995L154.237 38.6344C154.07 39.9158 153.961 41.1879 153.909 42.4476L153.546 42.5373L153.182 42.627C153.235 41.351 153.345 40.0625 153.514 38.7647ZM153.202 46.4019C153.268 47.6401 153.392 48.8628 153.575 50.0666L153.936 49.9295L154.297 49.7925C154.116 48.604 153.993 47.397 153.929 46.1746L153.566 46.2882L153.202 46.4019ZM154.299 53.5988L154.656 53.4391L155.012 53.2794C155.306 54.4119 155.658 55.5232 156.069 56.6105L155.72 56.7918L155.371 56.9731C154.954 55.8717 154.598 54.746 154.299 53.5988ZM156.784 60.1724L157.124 59.9705L157.464 59.7687C157.981 60.7831 158.555 61.7717 159.186 62.7316L158.857 62.9525L158.528 63.1735C157.888 62.2013 157.307 61.2 156.784 60.1724ZM160.59 65.9619L160.906 65.7233L161.222 65.4848C161.586 65.924 161.964 66.3557 162.355 66.7796C162.747 67.2035 163.149 67.6158 163.561 68.0163L163.26 68.271L162.958 68.5256C162.541 68.1199 162.134 67.7024 161.737 67.2732C161.341 66.8439 160.958 66.4067 160.59 65.9619ZM165.612 70.8421L165.896 70.5728L166.181 70.3036C167.106 71.0286 168.071 71.705 169.071 72.333L168.805 72.6153L168.539 72.8977C167.526 72.2616 166.549 71.5765 165.612 70.8421ZM171.727 74.6793L171.973 74.3856L172.218 74.0918C173.312 74.6336 174.441 75.1251 175.6 75.5665L175.377 75.8699L175.153 76.1732C173.979 75.726 172.836 75.2281 171.727 74.6793ZM178.799 77.3719L178.999 77.0608L179.2 76.7498C180.436 77.0955 181.701 77.3901 182.99 77.6338L182.815 77.9505L182.639 78.2673C181.333 78.0204 180.051 77.7221 178.799 77.3719ZM186.65 78.8552L186.8 78.5347L186.95 78.2143C188.297 78.357 189.666 78.4484 191.053 78.4887L190.93 78.811L190.806 79.1333C189.401 79.0924 188.014 78.9999 186.65 78.8552ZM195.081 79.1004L195.178 78.7783L195.274 78.4563C196.699 78.3943 198.138 78.2813 199.588 78.1175L199.519 78.4374L199.45 78.7572C197.981 78.9231 196.523 79.0376 195.081 79.1004ZM203.885 78.106L203.926 77.7903L203.967 77.4745C205.433 77.2101 206.907 76.8954 208.385 76.5307L208.372 76.8404L208.36 77.1501C206.863 77.5194 205.37 77.8382 203.885 78.106ZM212.846 75.8947C214.337 75.4282 215.829 74.912 217.317 74.3466L217.273 74.0547L217.228 73.7629C215.759 74.3212 214.286 74.8307 212.814 75.2913L212.83 75.593L212.846 75.8947ZM221.747 72.5137L221.674 72.2336L221.601 71.9535C223.041 71.3078 224.476 70.6151 225.901 69.8755L226.001 70.1421L226.102 70.4086C224.659 71.1578 223.206 71.8596 221.747 72.5137ZM230.362 68.042C231.753 67.2171 233.131 66.3469 234.495 65.4319L234.34 65.1971L234.186 64.9623C232.84 65.8658 231.479 66.7248 230.106 67.5392L230.234 67.7906L230.362 68.042ZM228.525 51.6436L228.351 51.4228L228.176 51.202C228.786 50.7529 229.391 50.2895 229.989 49.8118C230.587 49.3342 231.171 48.8486 231.74 48.3556L231.949 48.5491L232.157 48.7427C231.577 49.2451 230.982 49.74 230.372 50.2267C229.763 50.7135 229.147 51.1858 228.525 51.6436ZM235.516 45.59L235.276 45.4265L235.036 45.263C236.093 44.1861 237.088 43.0832 238.018 41.9599L238.288 42.091L238.557 42.2222C237.609 43.3676 236.594 44.4921 235.516 45.59ZM241.24 38.6809L240.945 38.5838L240.649 38.4867C241.467 37.3 242.217 36.0979 242.897 34.8863L243.214 34.9482L243.531 35.0102C242.839 36.2454 242.074 37.471 241.24 38.6809ZM245.404 31.2575L245.069 31.2314L244.734 31.2053C245.276 29.9684 245.744 28.728 246.138 27.4905L246.487 27.4806L246.836 27.4707C246.434 28.7322 245.957 29.9966 245.404 31.2575ZM247.811 23.6968L247.453 23.7424L247.095 23.7881C247.337 22.5624 247.503 21.3459 247.591 20.1447L247.954 20.0637L248.316 19.9828C248.227 21.2073 248.058 22.4474 247.811 23.6968ZM248.345 16.3749L247.982 16.4903L247.619 16.6057C247.55 15.4528 247.403 14.3211 247.177 13.2166L247.536 13.0681L247.895 12.9196C248.126 14.0458 248.275 15.1996 248.345 16.3749ZM246.968 9.6617L246.618 9.84152L246.269 10.0214C245.892 9.00071 245.438 8.0116 244.904 7.05962L245.241 6.8508L245.578 6.64197C246.121 7.61254 246.584 8.62103 246.968 9.6617ZM243.742 3.89735L243.423 4.1323L243.103 4.36726C242.77 3.94523 242.418 3.53313 242.047 3.13159C241.676 2.73005 241.291 2.34435 240.893 1.97441L241.191 1.71654L241.489 1.45867C241.895 1.83573 242.287 2.22882 242.665 2.63801C243.043 3.0472 243.402 3.46719 243.742 3.89735ZM238.848 -0.642983L238.575 -0.365116L238.302 -0.0872503C237.371 -0.720953 236.388 -1.28769 235.359 -1.78797L235.603 -2.08249L235.847 -2.37701C236.896 -1.86691 237.898 -1.28907 238.848 -0.642983ZM232.523 -3.71991L232.311 -3.41248L232.099 -3.10504C230.959 -3.47985 229.778 -3.78556 228.563 -4.02266L228.74 -4.33907L228.918 -4.65548C230.157 -4.41375 231.361 -4.10207 232.523 -3.71991ZM225.078 -5.17335L224.937 -4.852L224.796 -4.53065C223.506 -4.63119 222.187 -4.66227 220.848 -4.6244L220.95 -4.94666L221.053 -5.26892C222.418 -5.30751 223.762 -5.27584 225.078 -5.17335ZM216.893 -4.94223L216.83 -4.62307L216.767 -4.30391C215.392 -4.12855 214.003 -3.8848 212.606 -3.5732L212.629 -3.88528L212.651 -4.19736C214.075 -4.515 215.492 -4.76347 216.893 -4.94223ZM208.379 -3.04233L208.397 -2.74127L208.415 -2.44021C207.024 -1.99843 205.633 -1.4907 204.248 -0.917554L204.189 -1.20373L204.131 -1.4899C205.543 -2.07428 206.961 -2.59193 208.379 -3.04233ZM199.961 0.441569L200.06 0.709165L200.159 0.976766C198.824 1.66263 197.501 2.41047 196.197 3.2198L196.059 2.97417L195.922 2.72853C197.252 1.90339 198.6 1.1409 199.961 0.441569ZM192.063 5.34069C191.441 5.79847 190.825 6.27076 190.216 6.7575C189.606 7.24424 189.011 7.73914 188.431 8.24157L188.639 8.43509L188.848 8.62862C189.417 8.13569 190.001 7.65008 190.599 7.17244C191.197 6.69479 191.802 6.23137 192.412 5.78224L192.237 5.56146L192.063 5.34069ZM185.072 11.3942L185.312 11.5578L185.552 11.7213C184.495 12.7981 183.5 13.9011 182.57 15.0244L182.3 14.8932L182.031 14.762C182.98 13.6167 183.994 12.4922 185.072 11.3942ZM179.348 18.3034C178.514 19.5132 177.749 20.7389 177.057 21.9741L177.374 22.036L177.691 22.0979C178.371 20.8863 179.121 19.6842 179.939 18.4976L179.644 18.4005L179.348 18.3034ZM175.184 25.7267L175.519 25.7529L175.855 25.779C175.313 27.0159 174.844 28.2562 174.45 29.4938L174.101 29.5036L173.752 29.5135C174.154 28.252 174.632 26.9876 175.184 25.7267ZM172.777 33.2875L173.135 33.2418L173.493 33.1961C173.251 34.4218 173.085 35.6384 172.997 36.8396L172.634 36.9205L172.272 37.0015C172.361 35.777 172.53 34.5368 172.777 33.2875ZM172.243 40.6093L172.606 40.4939L172.969 40.3786C173.038 41.5314 173.185 42.6631 173.411 43.7677L173.052 43.9162L172.693 44.0647C172.463 42.9385 172.313 41.7846 172.243 40.6093ZM173.62 47.3225L173.97 47.1427L174.319 46.9629C174.696 47.9835 175.15 48.9726 175.684 49.9246L175.347 50.1334L175.01 50.3423C174.467 49.3717 174.004 48.3632 173.62 47.3225ZM176.846 53.0869L177.165 52.8519L177.485 52.617C177.818 53.039 178.17 53.4511 178.541 53.8527C178.912 54.2542 179.297 54.6399 179.695 55.0098L179.397 55.2677L179.099 55.5256C178.693 55.1485 178.301 54.7554 177.923 54.3462C177.545 53.937 177.186 53.517 176.846 53.0869ZM181.74 57.6272L182.013 57.3494L182.286 57.0715C183.217 57.7052 184.201 58.2719 185.229 58.7722L184.985 59.0667L184.741 59.3613C183.692 58.8511 182.69 58.2733 181.74 57.6272ZM188.065 60.7042C189.227 61.0863 190.431 61.398 191.67 61.6397L191.848 61.3233L192.025 61.0069C190.81 60.7698 189.629 60.4641 188.489 60.0893L188.277 60.3967L188.065 60.7042ZM195.51 62.1576L195.651 61.8362L195.792 61.5149C197.082 61.6154 198.401 61.6465 199.74 61.6086L199.638 61.9309L199.535 62.2532C198.17 62.2918 196.826 62.2601 195.51 62.1576ZM203.695 61.9265L203.758 61.6073L203.821 61.2882C205.196 61.1128 206.586 60.869 207.982 60.5574L207.96 60.8695L207.937 61.1816C206.513 61.4992 205.096 61.7477 203.695 61.9265ZM212.209 60.0266L212.191 59.7255L212.173 59.4244C213.564 58.9827 214.955 58.4749 216.34 57.9018L216.399 58.188L216.457 58.4741C215.045 59.0585 213.627 59.5762 212.209 60.0266ZM220.627 56.5427L220.528 56.2751L220.429 56.0075C221.764 55.3216 223.087 54.5738 224.391 53.7644L224.529 54.0101L224.666 54.2557C223.336 55.0809 221.988 55.8433 220.627 56.5427Z" fill="url(#paint0_linear_777_24267)"/>
</g>
<defs>
<linearGradient id="paint0_linear_777_24267" x1="265.321" y1="-9.46739" x2="120.89" y2="69.7777" gradientUnits="userSpaceOnUse">
<stop stop-color="white"/>
<stop offset="1" stop-color="white" stop-opacity="0"/>
</linearGradient>
<clipPath id="clip0_777_24267">
<rect width="233" height="309" rx="11.8037" fill="white"/>
</clipPath>
</defs>
</svg>
