<svg width="236" height="309" viewBox="0 0 236 309" fill="none" xmlns="http://www.w3.org/2000/svg">
<g clip-path="url(#clip0_777_24253)">
<path fill-rule="evenodd" clip-rule="evenodd" d="M135.803 114.082L135.192 112.225L135.838 112.144L136.449 114.001L135.803 114.082ZM133.969 108.512L132.747 104.799L133.393 104.717L134.616 108.431L133.969 108.512ZM131.524 101.085L130.302 97.3719L130.948 97.2905L132.171 101.004L131.524 101.085ZM129.079 93.6585L127.857 89.9452L128.503 89.8638L129.726 93.5772L129.079 93.6585ZM126.634 86.2318L125.412 82.5185L126.058 82.4371L127.281 86.1505L126.634 86.2318ZM124.189 78.8051L122.967 75.0918L123.613 75.0104L124.836 78.7238L124.189 78.8051ZM121.744 71.3784L120.522 67.6651L121.168 67.5837L122.391 71.2971L121.744 71.3784ZM119.299 63.9517L118.077 60.2384L118.723 60.1571L119.946 63.8704L119.299 63.9517ZM116.855 56.5251L115.632 52.8117L116.278 52.7304L117.501 56.4437L116.855 56.5251ZM114.41 49.0984L113.187 45.385L113.834 45.3037L115.056 49.017L114.41 49.0984ZM111.965 41.6717L110.742 37.9583L111.389 37.877L112.611 41.5903L111.965 41.6717ZM109.52 34.245L108.297 30.5316L108.944 30.4503L110.166 34.1636L109.52 34.245ZM107.075 26.8183L105.852 23.1049L106.499 23.0236L107.721 26.7369L107.075 26.8183ZM104.63 19.3916L103.407 15.6782L104.054 15.5969L105.276 19.3102L104.63 19.3916ZM102.185 11.9649L100.962 8.25152L101.609 8.17017L102.831 11.8835L102.185 11.9649ZM99.7398 4.53818L98.5173 0.824834L99.1638 0.743485L100.386 4.45683L99.7398 4.53818ZM97.2948 -2.88853L96.0723 -6.60187L96.7188 -6.68322L97.9413 -2.96988L97.2948 -2.88853ZM94.8498 -10.3152L93.6274 -14.0286L94.2738 -14.1099L95.4963 -10.3966L94.8498 -10.3152ZM92.4049 -17.7419L91.1824 -21.4552L91.8289 -21.5366L93.0514 -17.8232L92.4049 -17.7419ZM89.9599 -25.1686L88.7374 -28.8819L89.3839 -28.9633L90.6064 -25.2499L89.9599 -25.1686ZM87.515 -32.5953L86.2925 -36.3086L86.939 -36.3899L88.1614 -32.6766L87.515 -32.5953ZM85.07 -40.0219L83.8475 -43.7353L84.494 -43.8166L85.7165 -40.1033L85.07 -40.0219ZM82.6251 -47.4486L81.4026 -51.162L82.0491 -51.2433L83.2715 -47.53L82.6251 -47.4486ZM80.1801 -54.8753L78.9576 -58.5886L79.6041 -58.67L80.8266 -54.9567L80.1801 -54.8753ZM77.7351 -62.302L76.5127 -66.0153L77.1591 -66.0967L78.3816 -62.3833L77.7351 -62.302ZM75.2902 -69.7287L74.0677 -73.442L74.7142 -73.5234L75.9366 -69.81L75.2902 -69.7287ZM72.8452 -77.1553L71.6227 -80.8687L72.2692 -80.95L73.4917 -77.2367L72.8452 -77.1553ZM70.4003 -84.582L69.1778 -88.2954L69.8243 -88.3767L71.0467 -84.6634L70.4003 -84.582ZM67.9553 -92.0087L66.7328 -95.7221L67.3793 -95.8034L68.6018 -92.0901L67.9553 -92.0087ZM65.5104 -99.4354L64.2879 -103.149L64.9343 -103.23L66.1568 -99.5167L65.5104 -99.4354ZM63.0654 -106.862L62.4541 -108.719L63.1006 -108.8L63.7119 -106.943L63.0654 -106.862ZM253.515 12.0776L251.575 12.3217L251.372 11.7028L253.311 11.4588L253.515 12.0776ZM247.697 12.8098L243.818 13.2979L243.614 12.679L247.493 12.1909L247.697 12.8098ZM239.939 13.786L236.06 14.2741L235.856 13.6552L239.735 13.1671L239.939 13.786ZM232.181 14.7622L228.302 15.2503L228.099 14.6314L231.978 14.1433L232.181 14.7622ZM224.424 15.7384L220.545 16.2265L220.341 15.6076L224.22 15.1195L224.424 15.7384ZM216.666 16.7146L212.787 17.2027L212.583 16.5838L216.462 16.0957L216.666 16.7146ZM208.908 17.6907L205.03 18.1788L204.826 17.56L208.705 17.0719L208.908 17.6907ZM201.151 18.6669L197.272 19.155L197.068 18.5361L200.947 18.0481L201.151 18.6669ZM193.393 19.6431L189.514 20.1312L189.311 19.5123L193.189 19.0242L193.393 19.6431ZM185.636 20.6193L181.757 21.1074L181.553 20.4885L185.432 20.0004L185.636 20.6193ZM177.878 21.5955L173.999 22.0836L173.795 21.4647L177.674 20.9766L177.878 21.5955ZM170.12 22.5717L166.241 23.0598L166.038 22.4409L169.917 21.9528L170.12 22.5717ZM162.363 23.5479L158.484 24.036L158.28 23.4171L162.159 22.929L162.363 23.5479ZM154.605 24.5241L150.726 25.0122L150.522 24.3933L154.401 23.9052L154.605 24.5241ZM146.847 25.5003L142.969 25.9884L142.765 25.3695L146.644 24.8814L146.847 25.5003ZM139.09 26.4765L135.211 26.9646L135.007 26.3457L138.886 25.8576L139.09 26.4765ZM131.332 27.4527L127.453 27.9408L127.25 27.3219L131.128 26.8338L131.332 27.4527ZM123.575 28.4289L119.696 28.917L119.492 28.2981L123.371 27.81L123.575 28.4289ZM115.817 29.405L111.938 29.8931L111.734 29.2743L115.613 28.7862L115.817 29.405ZM108.059 30.3812L104.181 30.8693L103.977 30.2504L107.856 29.7623L108.059 30.3812ZM100.302 31.3574L96.4229 31.8455L96.2192 31.2266L100.098 30.7385L100.302 31.3574ZM92.5441 32.3336L88.6653 32.8217L88.4616 32.2028L92.3404 31.7147L92.5441 32.3336ZM84.7865 33.3098L80.9077 33.7979L80.704 33.179L84.5828 32.6909L84.7865 33.3098ZM77.0289 34.286L73.1501 34.7741L72.9464 34.1552L76.8252 33.6671L77.0289 34.286ZM69.2713 35.2622L65.3925 35.7503L65.1888 35.1314L69.0676 34.6433L69.2713 35.2622ZM61.5137 36.2384L57.6349 36.7265L57.4311 36.1076L61.3099 35.6195L61.5137 36.2384ZM53.7561 37.2146L49.8773 37.7027L49.6735 37.0838L53.5523 36.5957L53.7561 37.2146ZM45.9985 38.1908L42.1197 38.6789L41.9159 38.06L45.7947 37.5719L45.9985 38.1908ZM38.2409 39.167L34.3621 39.655L34.1583 39.0362L38.0371 38.5481L38.2409 39.167ZM30.4833 40.1431L26.6045 40.6312L26.4007 40.0123L30.2795 39.5242L30.4833 40.1431ZM22.7257 41.1193L20.7861 41.3634L20.5823 40.7445L22.5219 40.5004L22.7257 41.1193ZM215.129 -98.3867L217.068 -98.6308L216.865 -99.2497L214.925 -99.0056L215.129 -98.3867ZM207.371 -97.4105L211.25 -97.8986L211.046 -98.5175L207.168 -98.0294L207.371 -97.4105ZM199.614 -96.4343L203.492 -96.9224L203.289 -97.5413L199.41 -97.0532L199.614 -96.4343ZM191.856 -95.4582L195.735 -95.9462L195.531 -96.5651L191.652 -96.077L191.856 -95.4582ZM187.806 -95.4889L187.911 -95.5021L189.134 -91.7888L188.487 -91.7074L187.435 -94.9019L184.098 -94.482L183.895 -95.1009L187.773 -95.5889L187.806 -95.4889ZM176.341 -93.5058L180.22 -93.9939L180.016 -94.6128L176.137 -94.1247L176.341 -93.5058ZM168.583 -92.5296L172.462 -93.0177L172.258 -93.6366L168.379 -93.1485L168.583 -92.5296ZM160.826 -91.5534L164.704 -92.0415L164.501 -92.6604L160.622 -92.1723L160.826 -91.5534ZM153.068 -90.5772L156.947 -91.0653L156.743 -91.6842L152.864 -91.1961L153.068 -90.5772ZM145.31 -89.601L149.189 -90.0891L148.985 -90.708L145.107 -90.2199L145.31 -89.601ZM137.553 -88.6248L141.431 -89.1129L141.228 -89.7318L137.349 -89.2437L137.553 -88.6248ZM130.261 -87.7072L133.674 -88.1367L133.47 -88.7556L129.591 -88.2675L129.624 -88.1676L129.444 -88.1449L130.666 -84.4315L131.313 -84.5129L130.261 -87.7072ZM122.037 -86.6724L125.916 -87.1605L125.712 -87.7794L121.834 -87.2913L122.037 -86.6724ZM114.28 -85.6962L118.159 -86.1843L117.955 -86.8032L114.076 -86.3151L114.28 -85.6962ZM106.522 -84.72L110.401 -85.2081L110.197 -85.827L106.318 -85.3389L106.522 -84.72ZM98.7646 -83.7438L102.643 -84.2319L102.44 -84.8508L98.5608 -84.3627L98.7646 -83.7438ZM91.0069 -82.7677L94.8857 -83.2557L94.682 -83.8746L90.8032 -83.3865L91.0069 -82.7677ZM83.2493 -81.7915L87.1281 -82.2796L86.9244 -82.8984L83.0456 -82.4104L83.2493 -81.7915ZM75.4917 -80.8153L79.3705 -81.3034L79.1668 -81.9223L75.288 -81.4342L75.4917 -80.8153ZM67.7341 -79.8391L71.6129 -80.3272L71.4092 -80.9461L67.5304 -80.458L67.7341 -79.8391ZM59.9765 -78.8629L63.8553 -79.351L63.6516 -79.9699L59.7728 -79.4818L59.9765 -78.8629ZM52.2189 -77.8867L56.0977 -78.3748L55.894 -78.9937L52.0152 -78.5056L52.2189 -77.8867ZM44.4613 -76.9105L48.3401 -77.3986L48.1364 -78.0175L44.2575 -77.5294L44.4613 -76.9105ZM36.7037 -75.9343L40.5825 -76.4224L40.3787 -77.0413L36.4999 -76.5532L36.7037 -75.9343ZM28.9461 -74.9581L32.8249 -75.4462L32.6211 -76.0651L28.7423 -75.577L28.9461 -74.9581ZM21.1885 -73.9819L25.0673 -74.47L24.8635 -75.0889L20.9847 -74.6008L21.1885 -73.9819ZM14.6191 -73.1553L17.3097 -73.4939L17.1059 -74.1127L13.2271 -73.6246L13.4309 -73.0058L13.9727 -73.0739L15.0243 -69.8795L15.6708 -69.9608L14.6191 -73.1553ZM5.67326 -72.0296L9.55206 -72.5177L9.34831 -73.1366L5.46951 -72.6485L5.67326 -72.0296ZM-2.08435 -71.0534L1.79445 -71.5415L1.59071 -72.1604L-2.2881 -71.6723L-2.08435 -71.0534ZM-9.84195 -70.0772L-5.96315 -70.5653L-6.1669 -71.1842L-10.0457 -70.6961L-9.84195 -70.0772ZM-15.6604 -69.345L-13.7208 -69.5891L-13.9245 -70.208L-15.8641 -69.9639L-15.6604 -69.345ZM251.445 99.5299L250.834 97.6732L251.48 97.5919L252.091 99.4485L251.445 99.5299ZM249.611 93.9599L248.389 90.2465L249.035 90.1652L250.258 93.8785L249.611 93.9599ZM247.166 86.5332L245.944 82.8198L246.59 82.7385L247.813 86.4518L247.166 86.5332ZM244.721 79.1065L243.499 75.3931L244.145 75.3118L245.368 79.0251L244.721 79.1065ZM242.276 71.6798L242.105 71.161L238.769 71.5809L238.565 70.962L241.902 70.5421L241.054 67.9664L241.7 67.8851L242.923 71.5984L242.276 71.6798ZM239.831 64.2531L238.609 60.5397L239.255 60.4584L240.478 64.1717L239.831 64.2531ZM237.386 56.8264L236.164 53.113L236.81 53.0317L238.033 56.745L237.386 56.8264ZM234.941 49.3997L233.719 45.6863L234.365 45.605L235.588 49.3183L234.941 49.3997ZM232.496 41.973L231.274 38.2596L231.92 38.1783L233.143 41.8916L232.496 41.973ZM230.051 34.5463L228.829 30.8329L229.475 30.7516L230.698 34.4649L230.051 34.5463ZM227.606 27.1196L226.384 23.4062L227.03 23.3249L228.253 27.0382L227.606 27.1196ZM225.161 19.6929L223.939 15.9795L224.585 15.8982L225.808 19.6115L225.161 19.6929ZM222.716 12.2662L221.494 8.55285L222.14 8.4715L223.363 12.1849L222.716 12.2662ZM220.272 4.8395L219.049 1.12616L219.696 1.04481L220.918 4.75816L220.272 4.8395ZM217.827 -2.58719L216.604 -6.30054L217.251 -6.38189L218.473 -2.66854L217.827 -2.58719ZM215.382 -10.0139L214.159 -13.7272L214.806 -13.8086L216.028 -10.0952L215.382 -10.0139ZM212.937 -17.4406L211.714 -21.1539L212.361 -21.2353L213.583 -17.5219L212.937 -17.4406ZM210.492 -24.8673L209.269 -28.5806L209.916 -28.662L211.138 -24.9486L210.492 -24.8673ZM208.047 -32.294L206.824 -36.0073L207.471 -36.0887L208.693 -32.3753L208.047 -32.294ZM206.2 -39.6157L206.143 -39.7888L206.248 -39.802L205.026 -43.5153L204.379 -43.434L205.455 -40.1664L202.118 -39.7465L202.322 -39.1276L206.2 -39.6157ZM203.157 -47.1473L201.934 -50.8607L202.581 -50.942L203.803 -47.2287L203.157 -47.1473ZM200.712 -54.574L199.489 -58.2874L200.136 -58.3687L201.358 -54.6554L200.712 -54.574ZM198.267 -62.0007L197.044 -65.714L197.691 -65.7954L198.913 -62.082L198.267 -62.0007ZM195.822 -69.4274L194.599 -73.1407L195.246 -73.2221L196.468 -69.5087L195.822 -69.4274ZM193.377 -76.8541L192.154 -80.5674L192.801 -80.6487L194.023 -76.9354L193.377 -76.8541ZM190.932 -84.2807L189.71 -87.9941L190.356 -88.0754L191.578 -84.3621L190.932 -84.2807ZM186.042 -99.1341L184.82 -102.847L185.466 -102.929L186.689 -99.2155L186.042 -99.1341ZM183.597 -106.561L182.375 -110.274L183.021 -110.355L184.244 -106.642L183.597 -106.561ZM181.152 -113.987L179.93 -117.701L180.576 -117.782L181.799 -114.069L181.152 -113.987ZM178.707 -121.414L178.096 -123.271L178.742 -123.352L179.354 -121.495L178.707 -121.414ZM269.799 67.6761L271.739 67.4321L271.535 66.8132L269.595 67.0573L269.799 67.6761ZM262.042 68.6523L265.92 68.1642L265.717 67.5454L261.838 68.0334L262.042 68.6523ZM254.284 69.6285L258.163 69.1404L257.959 68.5215L254.08 69.0096L254.284 69.6285ZM246.526 70.6047L250.405 70.1166L250.201 69.4977L246.323 69.9858L246.526 70.6047ZM231.011 72.5571L234.89 72.069L234.686 71.4501L230.807 71.9382L231.011 72.5571ZM223.253 73.5333L227.132 73.0452L226.928 72.4263L223.05 72.9144L223.253 73.5333ZM215.496 74.5095L219.375 74.0214L219.171 73.4025L215.292 73.8906L215.496 74.5095ZM207.738 75.4857L211.617 74.9976L211.413 74.3787L207.534 74.8668L207.738 75.4857ZM199.981 76.4619L203.859 75.9738L203.656 75.3549L199.777 75.843L199.981 76.4619ZM192.223 77.4381L196.102 76.95L195.898 76.3311L192.019 76.8192L192.223 77.4381ZM184.931 78.3557L188.344 77.9262L188.14 77.3073L184.727 77.7368L183.879 75.161L183.233 75.2423L184.455 78.9556L185.102 78.8743L184.931 78.3557ZM176.708 79.3905L180.586 78.9024L180.383 78.2835L176.504 78.7716L176.708 79.3905ZM168.95 80.3666L172.829 79.8785L172.625 79.2597L168.746 79.7478L168.95 80.3666ZM161.192 81.3428L165.071 80.8547L164.867 80.2358L160.989 80.7239L161.192 81.3428ZM153.435 82.319L157.314 81.8309L157.11 81.212L153.231 81.7001L153.435 82.319ZM145.677 83.2952L149.556 82.8071L149.352 82.1882L145.473 82.6763L145.677 83.2952ZM137.92 84.2714L141.798 83.7833L141.595 83.1644L137.716 83.6525L137.92 84.2714ZM130.162 85.2476L134.041 84.7595L133.837 84.1406L129.958 84.6287L130.162 85.2476ZM122.404 86.2238L126.283 85.7357L126.079 85.1168L122.201 85.6049L122.404 86.2238ZM114.647 87.2L118.526 86.7119L118.322 86.093L114.443 86.5811L114.647 87.2ZM106.889 88.1762L110.768 87.6881L110.564 87.0692L106.685 87.5573L106.889 88.1762ZM99.1315 89.1524L103.01 88.6643L102.807 88.0454L98.9278 88.5335L99.1315 89.1524ZM91.3739 90.1286L95.2527 89.6405L95.049 89.0216L91.1702 89.5097L91.3739 90.1286ZM83.6163 91.1047L87.4951 90.6166L87.2914 89.9978L83.4126 90.4859L83.6163 91.1047ZM75.8587 92.0809L79.7375 91.5928L79.5338 90.9739L75.655 91.462L75.8587 92.0809ZM69.2891 92.9076L71.9799 92.569L71.7762 91.9501L69.0854 92.2887L68.2374 89.713L67.591 89.7944L68.4389 92.3701L67.8974 92.4382L68.1011 93.0571L68.6427 92.989L68.8135 93.5077L69.4599 93.4264L69.2891 92.9076ZM60.3435 94.0333L64.2223 93.5452L64.0186 92.9263L60.1398 93.4144L60.3435 94.0333ZM52.5859 95.0095L56.4647 94.5214L56.261 93.9025L52.3822 94.3906L52.5859 95.0095ZM44.8283 95.9857L48.7071 95.4976L48.5033 94.8787L44.6245 95.3668L44.8283 95.9857ZM39.0099 96.7179L40.9495 96.4738L40.7457 95.8549L38.8061 96.099L39.0099 96.7179ZM77.9821 121.358L77.3708 119.501L78.0173 119.42L78.6285 121.276L77.9821 121.358ZM76.1483 115.788L74.9259 112.074L75.5723 111.993L76.7948 115.706L76.1483 115.788ZM73.7034 108.361L72.4809 104.648L73.1274 104.566L74.3498 108.28L73.7034 108.361ZM71.2584 100.934L70.0359 97.2211L70.6824 97.1397L71.9049 100.853L71.2584 100.934ZM66.3685 86.081L65.146 82.3677L65.7925 82.2863L67.015 85.9997L66.3685 86.081ZM63.9235 78.6543L62.701 74.941L63.3475 74.8596L64.57 78.573L63.9235 78.6543ZM61.4786 71.2276L60.2561 67.5143L60.9026 67.4329L62.125 71.1463L61.4786 71.2276ZM59.0336 63.8009L57.8111 60.0876L58.4576 60.0062L59.6801 63.7196L59.0336 63.8009ZM56.5886 56.3742L55.3662 52.6609L56.0126 52.5795L57.2351 56.2929L56.5886 56.3742ZM54.1437 48.9475L52.9212 45.2342L53.5677 45.1528L54.7901 48.8662L54.1437 48.9475ZM51.6987 41.5208L50.4762 37.8075L51.1227 37.7261L52.3452 41.4395L51.6987 41.5208ZM49.2538 34.0941L48.0313 30.3808L48.6777 30.2994L49.9002 34.0128L49.2538 34.0941ZM46.8088 26.6674L45.5863 22.9541L46.2328 22.8727L47.4553 26.5861L46.8088 26.6674ZM44.3638 19.2407L43.1413 15.5274L43.7878 15.446L45.0103 19.1594L44.3638 19.2407ZM41.9189 11.814L40.6964 8.1007L41.3429 8.01935L42.5653 11.7327L41.9189 11.814ZM39.4739 4.38734L38.2514 0.673999L38.8979 0.59265L40.1204 4.30599L39.4739 4.38734ZM37.0289 -3.03934L35.8065 -6.75268L36.4529 -6.83403L37.6754 -3.12069L37.0289 -3.03934ZM34.584 -10.466L33.3615 -14.1794L34.008 -14.2607L35.2305 -10.5474L34.584 -10.466ZM35.3291 -18.7584L32.6387 -18.4198L31.563 -21.6874L30.9165 -21.606L31.9923 -18.3385L31.4503 -18.2703L31.654 -17.6514L35.5329 -18.1395L35.3291 -18.7584ZM29.6941 -25.3194L28.4716 -29.0327L29.1181 -29.1141L30.3405 -25.4007L29.6941 -25.3194ZM27.2491 -32.7461L26.0266 -36.4594L26.6731 -36.5408L27.8956 -32.8274L27.2491 -32.7461ZM24.8042 -40.1728L23.5817 -43.8861L24.2281 -43.9674L25.4506 -40.2541L24.8042 -40.1728ZM22.3592 -47.5994L21.1367 -51.3128L21.7832 -51.3941L23.0057 -47.6808L22.3592 -47.5994ZM19.9142 -55.0261L18.6918 -58.7395L19.3382 -58.8208L20.5607 -55.1075L19.9142 -55.0261ZM17.4693 -62.4528L16.2468 -66.1661L16.8933 -66.2475L18.1157 -62.5341L17.4693 -62.4528ZM12.5794 -77.3062L11.3569 -81.0195L12.0034 -81.1009L13.2258 -77.3875L12.5794 -77.3062ZM10.1344 -84.7328L8.91193 -88.4462L9.5584 -88.5275L10.7809 -84.8142L10.1344 -84.7328ZM7.68945 -92.1595L6.46697 -95.8729L7.11344 -95.9542L8.33592 -92.2409L7.68945 -92.1595ZM5.24449 -99.5862L4.63319 -101.443L5.27966 -101.524L5.89096 -99.6676L5.24449 -99.5862ZM233.352 -43.0324L235.291 -43.2764L235.088 -43.8953L233.148 -43.6513L233.352 -43.0324ZM225.594 -42.0562L229.473 -42.5443L229.27 -43.1632L225.391 -42.6751L225.594 -42.0562ZM217.837 -41.08L221.716 -41.5681L221.512 -42.187L217.633 -41.6989L217.837 -41.08ZM210.079 -40.1038L213.958 -40.5919L213.754 -41.2108L209.875 -40.7227L210.079 -40.1038ZM194.564 -38.1514L198.443 -38.6395L198.239 -39.2584L194.36 -38.7703L194.564 -38.1514ZM186.806 -37.1752L190.685 -37.6633L190.481 -38.2822L186.603 -37.7941L186.806 -37.1752ZM179.049 -36.199L182.928 -36.6871L182.724 -37.306L178.845 -36.8179L179.049 -36.199ZM171.291 -35.2228L175.17 -35.7109L174.966 -36.3298L171.087 -35.8417L171.291 -35.2228ZM163.533 -34.2466L167.412 -34.7347L167.209 -35.3536L163.33 -34.8655L163.533 -34.2466ZM155.776 -33.2704L159.655 -33.7585L159.451 -34.3774L155.572 -33.8893L155.776 -33.2704ZM148.018 -32.2942L151.897 -32.7823L151.693 -33.4012L148.281 -32.9718L147.205 -36.2395L146.558 -36.1581L147.781 -32.4448L147.961 -32.4675L148.018 -32.2942ZM140.261 -31.3181L144.139 -31.8061L143.936 -32.425L140.057 -31.9369L140.261 -31.3181ZM132.503 -30.3419L136.382 -30.83L136.178 -31.4488L132.299 -30.9608L132.503 -30.3419ZM124.745 -29.3657L128.624 -29.8538L128.42 -30.4727L124.542 -29.9846L124.745 -29.3657ZM116.988 -28.3895L120.867 -28.8776L120.663 -29.4965L116.784 -29.0084L116.988 -28.3895ZM109.23 -27.4133L113.109 -27.9014L112.905 -28.5203L109.026 -28.0322L109.23 -27.4133ZM101.473 -26.4371L105.351 -26.9252L105.148 -27.5441L101.269 -27.056L101.473 -26.4371ZM93.7149 -25.4609L97.5937 -25.949L97.39 -26.5679L93.5112 -26.0798L93.7149 -25.4609ZM85.9573 -24.4847L89.8361 -24.9728L89.6324 -25.5917L85.7536 -25.1036L85.9573 -24.4847ZM78.1997 -23.5085L82.0785 -23.9966L81.8748 -24.6155L77.9959 -24.1274L78.1997 -23.5085ZM70.4421 -22.5323L74.3209 -23.0204L74.1171 -23.6393L70.2383 -23.1512L70.4421 -22.5323ZM62.6845 -21.5562L66.5633 -22.0442L66.3595 -22.6631L62.4807 -22.175L62.6845 -21.5562ZM54.9269 -20.58L58.8057 -21.0681L58.6019 -21.6869L54.7231 -21.1989L54.9269 -20.58ZM47.1693 -19.6038L51.0481 -20.0919L50.8443 -20.7108L46.9655 -20.2227L47.1693 -19.6038ZM39.4117 -18.6276L43.2905 -19.1157L43.0867 -19.7346L39.2079 -19.2465L39.4117 -18.6276ZM23.8964 -16.6752L27.7752 -17.1633L27.5715 -17.7822L23.6927 -17.2941L23.8964 -16.6752ZM16.1388 -15.699L20.0176 -16.1871L19.8139 -16.806L15.9351 -16.3179L16.1388 -15.699ZM8.38123 -14.7228L12.26 -15.2109L12.0563 -15.8298L8.17748 -15.3417L8.38123 -14.7228ZM2.56283 -13.9906L4.50242 -14.2347L4.29867 -14.8536L2.35908 -14.6095L2.56283 -13.9906ZM193.624 106.806L193.013 104.949L193.659 104.868L194.27 106.724L193.624 106.806ZM191.79 101.236L190.568 97.5224L191.214 97.441L192.437 101.154L191.79 101.236ZM189.345 93.809L188.123 90.0957L188.769 90.0143L189.992 93.7277L189.345 93.809ZM186.9 86.3823L185.678 82.669L186.324 82.5876L187.547 86.301L186.9 86.3823ZM182.01 71.529L180.788 67.8156L181.434 67.7343L182.657 71.4476L182.01 71.529ZM179.565 64.1023L178.343 60.3889L178.989 60.3076L180.212 64.0209L179.565 64.1023ZM177.12 56.6756L175.898 52.9622L176.544 52.8809L177.767 56.5942L177.12 56.6756ZM174.675 49.2489L173.453 45.5355L174.099 45.4542L175.322 49.1675L174.675 49.2489ZM172.23 41.8222L171.008 38.1088L171.654 38.0275L172.877 41.7408L172.23 41.8222ZM169.786 34.3955L168.563 30.6821L169.21 30.6008L170.432 34.3141L169.786 34.3955ZM167.341 26.9688L166.118 23.2554L166.765 23.1741L167.987 26.8874L167.341 26.9688ZM164.896 19.5421L163.673 15.8287L164.32 15.7474L165.542 19.4607L164.896 19.5421ZM162.451 12.1154L161.228 8.40203L161.875 8.32068L163.097 12.034L162.451 12.1154ZM160.006 4.68868L158.783 0.975334L159.43 0.893985L160.652 4.60733L160.006 4.68868ZM157.561 -2.73801L156.338 -6.45136L156.985 -6.5327L158.207 -2.81936L157.561 -2.73801ZM155.116 -10.1647L153.893 -13.8781L154.54 -13.9594L155.762 -10.2461L155.116 -10.1647ZM152.671 -17.5914L151.448 -21.3047L152.095 -21.3861L153.317 -17.6727L152.671 -17.5914ZM150.226 -25.0181L149.003 -28.7314L149.65 -28.8128L150.872 -25.0994L150.226 -25.0181ZM145.336 -39.8714L144.113 -43.5848L144.76 -43.6661L145.982 -39.9528L145.336 -39.8714ZM142.891 -47.2981L141.668 -51.0115L142.315 -51.0928L143.537 -47.3795L142.891 -47.2981ZM140.446 -54.7248L139.224 -58.4382L139.87 -58.5195L141.092 -54.8062L140.446 -54.7248ZM138.001 -62.1515L136.779 -65.8648L137.425 -65.9462L138.648 -62.2328L138.001 -62.1515ZM135.556 -69.5782L134.334 -73.2915L134.98 -73.3729L136.203 -69.6595L135.556 -69.5782ZM133.111 -77.0049L131.889 -80.7182L132.535 -80.7995L133.758 -77.0862L133.111 -77.0049ZM128.221 -91.8582L126.999 -95.5716L127.645 -95.6529L128.868 -91.9396L128.221 -91.8582ZM125.776 -99.2849L124.554 -102.998L125.2 -103.08L126.423 -99.3663L125.776 -99.2849ZM123.331 -106.712L122.109 -110.425L122.755 -110.506L123.978 -106.793L123.331 -106.712ZM120.886 -114.138L120.275 -115.995L120.922 -116.076L121.533 -114.22L120.886 -114.138Z" fill="url(#paint0_radial_777_24253)"/>
</g>
<defs>
<radialGradient id="paint0_radial_777_24253" cx="0" cy="0" r="1" gradientUnits="userSpaceOnUse" gradientTransform="translate(249.636 28.7159) rotate(146.433) scale(142.878 120.439)">
<stop stop-color="white"/>
<stop offset="1" stop-color="white" stop-opacity="0"/>
</radialGradient>
<clipPath id="clip0_777_24253">
<rect width="236" height="309" rx="11.8037" fill="white"/>
</clipPath>
</defs>
</svg>
