<svg width="254" height="192" viewBox="0 0 254 192" fill="none" xmlns="http://www.w3.org/2000/svg">
<path fill-rule="evenodd" clip-rule="evenodd" d="M196.576 151.717L196.89 152.085C197.948 151.274 199 150.451 200.046 149.615C201.093 148.779 202.127 147.936 203.149 147.087L202.805 146.742L202.461 146.397C201.449 147.239 200.424 148.074 199.388 148.902C198.351 149.73 197.309 150.545 196.261 151.349L196.576 151.717ZM208.794 141.558L209.166 141.878C211.143 140.097 213.068 138.29 214.94 136.46L214.54 136.166L214.14 135.872C212.286 137.684 210.38 139.473 208.422 141.238L208.794 141.558ZM220.023 130.581L220.449 130.849C222.247 128.94 223.989 127.01 225.676 125.06L225.225 124.82L224.773 124.581C223.103 126.512 221.377 128.423 219.597 130.314L220.023 130.581ZM230.131 118.898L230.606 119.109C232.203 117.095 233.741 115.063 235.22 113.018L234.723 112.836L234.226 112.654C232.761 114.68 231.237 116.692 229.656 118.687L230.131 118.898ZM238.986 106.655L239.504 106.807C240.878 104.714 242.191 102.61 243.443 100.496L242.906 100.374L242.37 100.252C241.13 102.346 239.829 104.431 238.468 106.503L238.986 106.655ZM246.474 94.0132L247.028 94.1043C248.164 91.96 249.237 89.8086 250.247 87.653L249.678 87.5927L249.108 87.5323C248.108 89.6674 247.045 91.7983 245.92 93.9221L246.474 94.0132ZM252.509 81.1318L253.092 81.1613C253.977 78.9915 254.798 76.8202 255.554 74.6499L254.959 74.6514L254.365 74.6529C253.616 76.8025 252.803 78.9533 251.926 81.1024L252.509 81.1318ZM257.022 68.1722L257.626 68.1398C258.251 65.9721 258.81 63.8083 259.302 61.651L258.69 61.7142L258.078 61.7773C257.59 63.9141 257.037 66.0574 256.418 68.2046L257.022 68.1722ZM259.959 55.2973L260.577 55.2036C260.935 53.0646 261.225 50.9349 261.447 48.8173L260.824 48.9413L260.202 49.0654C259.982 51.1629 259.695 53.2724 259.341 55.3911L259.959 55.2973ZM261.283 42.6669L261.907 42.5128C261.992 40.4298 262.009 38.3614 261.957 36.3104L261.332 36.4941L260.707 36.6777C260.759 38.7092 260.743 40.7578 260.658 42.821L261.283 42.6669ZM260.971 30.4418L261.595 30.2291C261.405 28.2281 261.147 26.247 260.82 24.2882L260.201 24.5295L259.581 24.7707C259.906 26.7106 260.161 28.6728 260.348 30.6546L260.971 30.4418ZM259.021 18.7758L259.635 18.5068C259.173 16.6135 258.642 14.7449 258.042 12.9034L257.436 13.1993L256.83 13.4953C257.424 15.3191 257.95 17.1697 258.407 19.0448L259.021 18.7758ZM255.449 7.81787L256.045 7.49591C255.317 5.73615 254.52 4.00528 253.654 2.30575L253.07 2.65264L252.485 2.99954C253.342 4.68275 254.131 6.397 254.853 8.13983L255.449 7.81787ZM250.305 -2.28427L250.876 -2.6549C249.892 -4.26047 248.84 -5.83345 247.721 -7.3715L247.164 -6.9784L246.608 -6.5853C247.716 -5.06185 248.758 -3.50385 249.733 -1.91362L250.305 -2.28427ZM243.661 -11.4168L244.201 -11.831C243.585 -12.5519 242.952 -13.2638 242.303 -13.9665C241.654 -14.6691 240.993 -15.3579 240.319 -16.033L239.797 -15.5992L239.275 -15.1653C239.943 -14.4966 240.598 -13.8142 241.241 -13.1181C241.884 -12.4221 242.511 -11.7168 243.121 -11.0027L243.661 -11.4168ZM235.607 -19.4891L236.109 -19.9414C234.643 -21.2021 233.129 -22.4061 231.571 -23.5533L231.09 -23.0839L230.61 -22.6144C232.153 -21.4781 233.653 -20.2856 235.105 -19.0368L235.607 -19.4891ZM226.259 -26.3702L226.716 -26.8555C225.039 -27.9075 223.319 -28.9011 221.558 -29.8363L221.126 -29.3366L220.694 -28.837C222.438 -27.9108 224.141 -26.9269 225.802 -25.8849L226.259 -26.3702ZM215.705 -31.9747L216.111 -32.487C214.243 -33.3166 212.337 -34.0865 210.394 -34.7968L210.015 -34.2733L209.636 -33.7498C211.561 -33.0463 213.449 -32.2839 215.298 -31.4623L215.705 -31.9747ZM204.076 -36.2256L204.426 -36.7585C202.393 -37.355 200.325 -37.8911 198.227 -38.3669L197.906 -37.8263L197.586 -37.2857C199.665 -36.8144 201.712 -36.2835 203.726 -35.6928L204.076 -36.2256ZM191.526 -39.0711L191.816 -39.6177C189.643 -39.9751 187.442 -40.2717 185.214 -40.5079L184.956 -39.957L184.698 -39.4062C186.904 -39.1723 189.085 -38.8785 191.237 -38.5245L191.526 -39.0711ZM178.216 -40.4823L178.442 -41.0356C176.157 -41.151 173.849 -41.2057 171.521 -41.1999L171.328 -40.6458L171.135 -40.0916C173.441 -40.0974 175.727 -40.0433 177.99 -39.9289L178.216 -40.4823ZM164.315 -40.4475L164.474 -41.0007C162.106 -40.8738 159.721 -40.6865 157.323 -40.439L157.197 -39.8885L157.071 -39.338C159.448 -39.5831 161.81 -39.7687 164.155 -39.8944L164.315 -40.4475ZM149.997 -38.9704L150.089 -39.5165C147.667 -39.1493 145.235 -38.7223 142.794 -38.2358L142.738 -37.6957L142.681 -37.1557C145.098 -37.6376 147.508 -38.0606 149.906 -38.4243L149.997 -38.9704ZM135.442 -36.068L135.463 -36.6003C133.019 -35.9973 130.57 -35.3354 128.119 -34.6148L128.132 -34.092L128.146 -33.5692C130.573 -34.2829 132.999 -34.9385 135.42 -35.5358L135.442 -36.068ZM120.831 -31.7727L120.783 -32.2843C118.346 -31.4523 115.911 -30.5625 113.479 -29.6154L113.562 -29.1165L113.646 -28.6176C116.054 -29.5557 118.467 -30.4369 120.88 -31.261L120.831 -31.7727ZM106.348 -26.131L106.229 -26.6155C103.831 -25.5642 101.44 -24.4568 99.0576 -23.2934L99.2103 -22.8249L99.363 -22.3565C101.722 -23.5086 104.091 -24.6054 106.466 -25.6466L106.348 -26.131ZM92.173 -19.2084L91.9863 -19.6594C89.6592 -18.4031 87.344 -17.0926 85.0436 -15.7283L85.2636 -15.2962L85.4837 -14.8641C87.7621 -16.2153 90.055 -17.5132 92.3597 -18.7574L92.173 -19.2084ZM78.4989 -11.099L78.2463 -11.5109C76.0183 -10.0662 73.8071 -8.56975 71.6151 -7.02167L71.8993 -6.63112L72.1835 -6.24057C74.3546 -7.77397 76.5448 -9.25618 78.7515 -10.6871L78.4989 -11.099ZM62.0137 0.193874C63.0602 -0.641934 64.1122 -1.46535 65.1696 -2.27635L65.4842 -1.90821L65.7988 -1.54006C64.7514 -0.736682 63.7092 0.0790216 62.6725 0.90702C61.6357 1.73503 60.6112 2.56997 59.5991 3.41153L59.2551 3.06681L58.9112 2.72208C59.933 1.87252 60.9672 1.02969 62.0137 0.193874ZM53.266 8.25082L52.8937 7.93069C50.9171 9.71189 48.9925 11.5186 47.1204 13.3485L47.5202 13.6429L47.92 13.9372C49.7742 12.1248 51.6805 10.3353 53.6383 8.57096L53.266 8.25082ZM42.0372 19.2276L41.611 18.9601C39.8134 20.8688 38.0709 22.7991 36.3842 24.7486L36.8355 24.9883L37.2868 25.2279C38.9573 23.2972 40.6831 21.3855 42.4634 19.4951L42.0372 19.2276ZM31.9287 30.9112L31.4537 30.7001C29.8574 32.7141 28.3192 34.7453 26.8397 36.7911L27.3369 36.9728L27.8341 37.1546C29.2994 35.1285 30.8228 33.1168 32.4037 31.1222L31.9287 30.9112ZM23.0743 43.1539L22.5565 43.002C21.1826 45.0944 19.8692 47.1989 18.6169 49.3131L19.1536 49.4348L19.6903 49.5564C20.9305 47.4625 22.2313 45.3781 23.5921 43.3058L23.0743 43.1539ZM15.5863 55.7955L15.0325 55.7044C13.8965 57.8487 12.8233 60.0001 11.8134 62.1558L12.3825 62.2161L12.9517 62.2764C13.952 60.1413 15.015 58.0105 16.1401 55.8866L15.5863 55.7955ZM9.55123 68.6769L8.96853 68.6475C8.083 70.8172 7.26203 72.9886 6.50632 75.1588L7.10073 75.1574L7.69512 75.1559C8.44365 73.0062 9.25682 70.8555 10.1339 68.7063L9.55123 68.6769ZM5.03835 81.6366L4.43411 81.669C3.80904 83.8366 3.25007 86.0005 2.75792 88.1577L3.3701 88.0946L3.98229 88.0314C4.46977 85.8946 5.02343 83.7513 5.64257 81.6042L5.03835 81.6366ZM2.10114 94.5115L1.4829 94.6052C1.12544 96.7442 0.835355 98.8739 0.613339 100.992L1.23572 100.867L1.85808 100.743C2.07797 98.6458 2.3653 96.5364 2.71937 94.4177L2.10114 94.5115ZM0.777213 107.142L0.152649 107.296C0.0676126 109.379 0.0508326 111.447 0.103014 113.498L0.727818 113.315L1.3526 113.131C1.30091 111.1 1.31753 109.051 1.40177 106.988L0.777213 107.142ZM1.08861 119.367L0.465545 119.58C0.654747 121.581 0.912721 123.562 1.24016 125.521L1.85951 125.279L2.47886 125.038C2.15456 123.098 1.89906 121.136 1.71167 119.154L1.08861 119.367ZM3.0391 131.033L2.42545 131.302C2.88743 133.195 3.41824 135.064 4.01852 136.905L4.6245 136.609L5.2305 136.313C4.636 134.49 4.11031 132.639 3.65275 130.764L3.0391 131.033ZM6.61113 141.991L6.01474 142.313C6.74332 144.073 7.54005 145.803 8.40563 147.503L8.99052 147.156L9.57542 146.809C8.71819 145.126 7.92909 143.412 7.20752 141.669L6.61113 141.991ZM11.7555 152.093L11.1839 152.464C12.1685 154.069 13.2201 155.642 14.3393 157.18L14.8958 156.787L15.4524 156.394C14.3439 154.871 13.3023 153.313 12.3271 151.722L11.7555 152.093ZM18.3993 161.226L17.8593 161.64C18.4754 162.361 19.1079 163.073 19.757 163.775C20.4061 164.478 21.0676 165.167 21.7411 165.842L22.2628 165.408L22.7846 164.974C22.1174 164.305 21.4622 163.623 20.8192 162.927C20.1761 162.231 19.5495 161.526 18.9392 160.811L18.3993 161.226ZM26.453 169.298L25.9511 169.75C27.4175 171.011 28.9311 172.215 30.4896 173.362L30.9699 172.893L31.4502 172.423C29.9066 171.287 28.4074 170.094 26.9549 168.846L26.453 169.298ZM35.8014 176.179L35.3443 176.664C37.0206 177.716 38.7406 178.71 40.5016 179.645L40.9339 179.145L41.3662 178.646C39.6221 177.72 37.9186 176.736 36.2585 175.694L35.8014 176.179ZM46.3555 181.783L45.9494 182.296C47.8167 183.125 49.7233 183.895 51.6665 184.606L52.045 184.082L52.4236 183.559C50.4992 182.855 48.6109 182.093 46.7616 181.271L46.3555 181.783ZM57.9841 186.034L57.6342 186.567C59.6673 187.164 61.7347 187.7 63.8335 188.176L64.1537 187.635L64.4739 187.094C62.3952 186.623 60.3476 186.092 58.3341 185.502L57.9841 186.034ZM70.5337 188.88L70.2442 189.426C72.4169 189.784 74.6184 190.08 76.8459 190.317L77.1039 189.766L77.362 189.215C75.1558 188.981 72.9752 188.687 70.8233 188.333L70.5337 188.88ZM83.8439 190.291L83.618 190.844C85.9029 190.96 88.2109 191.014 90.5389 191.009L90.7319 190.455L90.9248 189.9C88.6189 189.906 86.3329 189.852 84.0697 189.738L83.8439 190.291ZM97.7455 190.256L97.586 190.809C99.9538 190.683 102.339 190.495 104.738 190.248L104.863 189.697L104.989 189.147C102.613 189.392 100.25 189.577 97.905 189.703L97.7455 190.256ZM112.063 188.779L111.971 189.325C114.393 188.958 116.825 188.531 119.266 188.045L119.322 187.504L119.379 186.964C116.962 187.446 114.552 187.869 112.154 188.233L112.063 188.779ZM126.618 185.877L126.597 186.409C129.041 185.806 131.49 185.144 133.941 184.424L133.928 183.901L133.915 183.378C131.487 184.092 129.061 184.747 126.64 185.345L126.618 185.877ZM141.229 181.581L141.277 182.093C143.714 181.261 146.149 180.371 148.581 179.424L148.498 178.925L148.414 178.426C146.006 179.364 143.594 180.246 141.18 181.07L141.229 181.581ZM155.712 175.94L155.831 176.424C158.229 175.373 160.62 174.266 163.002 173.102L162.85 172.634L162.697 172.165C160.338 173.317 157.969 174.414 155.594 175.455L155.712 175.94ZM169.887 169.017L170.074 169.468C172.401 168.212 174.716 166.901 177.017 165.537L176.796 165.105L176.576 164.673C174.298 166.024 172.005 167.322 169.7 168.566L169.887 169.017ZM183.561 160.908L183.814 161.32C186.042 159.875 188.253 158.378 190.445 156.83L190.161 156.44L189.877 156.049C187.705 157.583 185.515 159.065 183.309 160.496L183.561 160.908ZM179.472 133.515L179.163 133.143L178.855 132.77C179.955 131.939 181.049 131.091 182.134 130.224C183.219 129.357 184.286 128.481 185.335 127.594L185.685 127.934L186.035 128.274C184.972 129.172 183.891 130.06 182.793 130.937C181.694 131.815 180.587 132.674 179.472 133.515ZM192.253 122.715L191.864 122.41L191.476 122.105C193.475 120.213 195.398 118.286 197.242 116.328L197.668 116.595L198.094 116.863C196.226 118.846 194.279 120.798 192.253 122.715ZM203.524 110.747L203.063 110.519L202.602 110.29C204.323 108.231 205.96 106.145 207.514 104.037L208.007 104.224L208.499 104.412C206.926 106.547 205.267 108.661 203.524 110.747ZM212.997 97.8902L212.475 97.7443L211.954 97.5984C213.355 95.4213 214.668 93.2272 215.891 91.0214L216.438 91.1247L216.986 91.2281C215.746 93.4624 214.416 95.6849 212.997 97.8902ZM220.443 84.4658L219.874 84.4055L219.304 84.3452C220.354 82.1046 221.311 79.8577 222.175 77.61L222.762 77.6271L223.35 77.6442C222.476 79.9207 221.506 82.1964 220.443 84.4658ZM225.69 70.8067L225.088 70.8329L224.485 70.8591C225.161 68.6104 225.74 66.3664 226.223 64.1328L226.836 64.0635L227.45 63.9942C226.961 66.2564 226.374 68.5292 225.69 70.8067ZM228.619 57.2487L227.998 57.3607L227.377 57.4727C227.663 55.2704 227.851 53.0839 227.939 50.9189L228.564 50.7648L229.188 50.6107C229.099 52.8036 228.908 55.0181 228.619 57.2487ZM229.154 44.1226L228.53 44.318L227.905 44.5134C227.794 42.4124 227.584 40.3379 227.273 38.2953L227.893 38.0597L228.514 37.8241C228.829 39.8932 229.042 41.9945 229.154 44.1226ZM227.269 31.7533L226.657 32.0278L226.044 32.3023C225.538 30.356 224.933 28.4459 224.227 26.5773L224.827 26.2656L225.427 25.9539C226.143 27.8469 226.756 29.7818 227.269 31.7533ZM222.999 20.4554L222.414 20.8023L221.829 21.1492C220.941 19.4057 219.955 17.7066 218.87 16.0569L219.436 15.6771L220.002 15.2974C221.101 16.9683 222.099 18.6893 222.999 20.4554ZM216.457 10.5049L215.914 10.915L215.37 11.325C214.745 10.5702 214.096 9.82814 213.423 9.09955C212.75 8.37096 212.059 7.66245 211.351 6.97396L211.869 6.53634L212.387 6.09873C213.104 6.79597 213.804 7.51346 214.485 8.25124C215.167 8.98902 215.824 9.74043 216.457 10.5049ZM207.826 2.11734L207.337 2.5801L206.848 3.04287C205.258 1.79674 203.6 0.634262 201.88 -0.444992L202.337 -0.93028L202.795 -1.41557C204.537 -0.322327 206.216 0.855167 207.826 2.11734ZM197.315 -4.47772L196.893 -3.97281L196.471 -3.46791C194.591 -4.39903 192.652 -5.24375 190.659 -6.00252L191.043 -6.5239L191.427 -7.04528C193.446 -6.27664 195.411 -5.42094 197.315 -4.47772ZM185.161 -9.10536L184.817 -8.57079L184.473 -8.03622C182.348 -8.6304 180.174 -9.13666 177.957 -9.55547L178.259 -10.0999L178.561 -10.6443C180.807 -10.22 183.009 -9.70724 185.161 -9.10536ZM171.668 -11.6548L171.41 -11.104L171.152 -10.5532C168.837 -10.7986 166.484 -10.9557 164.1 -11.0249L164.312 -11.5788L164.525 -12.1327C166.94 -12.0625 169.323 -11.9034 171.668 -11.6548ZM157.177 -12.0761L157.011 -11.5226L156.845 -10.9691C154.397 -10.8626 151.924 -10.6684 149.431 -10.3869L149.55 -10.9366L149.669 -11.4864C152.194 -11.7715 154.698 -11.9683 157.177 -12.0761ZM142.047 -10.3671L141.976 -9.82444L141.905 -9.28176C139.386 -8.82729 136.852 -8.28641 134.312 -7.65963L134.334 -8.1919L134.355 -8.72416C136.928 -9.35901 139.494 -9.90683 142.047 -10.3671ZM126.644 -6.5666L126.672 -6.04806L126.699 -5.52953C124.169 -4.73791 121.638 -3.86213 119.112 -2.90268L119.036 -3.40423L118.96 -3.90577C121.518 -4.87766 124.082 -5.76476 126.644 -6.5666ZM111.347 -0.75562C108.84 0.368533 106.342 1.57466 103.862 2.86233L104.035 3.3205L104.208 3.77867C106.657 2.50752 109.122 1.31686 111.598 0.207122L111.472 -0.274249L111.347 -0.75562ZM96.5404 6.92986L96.7605 7.36196L96.9806 7.79407C94.6205 9.19376 92.2812 10.6702 89.968 12.2229L89.7027 11.8194L89.4373 11.4159C91.7803 9.84316 94.1498 8.34769 96.5404 6.92986ZM82.5885 16.2933C81.4739 17.1345 80.3668 17.9939 79.268 18.8715C78.1691 19.7491 77.0884 20.637 76.026 21.5346L76.3757 21.8746L76.7253 22.2145C77.7744 21.3281 78.8416 20.4513 79.9268 19.5846C81.0119 18.7179 82.1051 17.8693 83.2058 17.0387L82.8971 16.666L82.5885 16.2933ZM69.8071 27.094L70.1961 27.3988L70.585 27.7036C68.5852 29.5955 66.6626 31.523 64.8184 33.4811L64.3922 33.2137L63.966 32.9462C65.8341 30.9627 67.7816 29.0103 69.8071 27.094ZM58.537 39.0619L58.998 39.2902L59.4589 39.5185C57.738 41.5778 56.1002 43.664 54.5468 45.7721L54.0539 45.5844L53.5611 45.3967C55.1346 43.2613 56.7937 41.1479 58.537 39.0619ZM49.0634 51.9185L49.5851 52.0644L50.1068 52.2103C48.7056 54.3874 47.3927 56.5815 46.1694 58.7873L45.6222 58.684L45.075 58.5806C46.3141 56.3463 47.644 54.1238 49.0634 51.9185ZM41.6178 65.3429L42.1869 65.4032L42.7561 65.4636C41.7064 67.7041 40.7492 69.951 39.8858 72.1987L39.2982 72.1816L38.7106 72.1645C39.585 69.888 40.5546 67.6123 41.6178 65.3429ZM36.3706 79.002L36.973 78.9758L37.5754 78.9496C36.9 81.1983 36.3203 83.4423 35.8378 85.6759L35.2243 85.7452L34.6107 85.8145C35.0994 83.5523 35.6865 81.2796 36.3706 79.002ZM33.442 92.56L34.0629 92.448L34.6839 92.336C34.3977 94.5383 34.2097 96.7248 34.1213 98.8899L33.4968 99.0439L32.8722 99.198C32.9617 97.0051 33.1522 94.7906 33.442 92.56ZM32.9066 105.686L33.531 105.491L34.1553 105.295C34.2661 107.396 34.4763 109.471 34.7875 111.513L34.1672 111.749L33.547 111.985C33.2318 109.916 33.0188 107.814 32.9066 105.686ZM34.7917 118.055L35.404 117.781L36.0163 117.506C36.5223 119.453 37.1278 121.363 37.834 123.231L37.2336 123.543L36.6331 123.855C35.9176 121.962 35.3043 120.027 34.7917 118.055ZM39.0619 129.353L39.6468 129.006L40.2317 128.66C41.1197 130.403 42.1055 132.102 43.1904 133.752L42.6246 134.132L42.0588 134.511C40.9599 132.84 39.9614 131.119 39.0619 129.353ZM45.6036 139.304L46.147 138.894L46.6905 138.484C47.3156 139.239 47.9646 139.981 48.6376 140.709C49.3107 141.438 50.0017 142.146 50.7099 142.835L50.1919 143.272L49.674 143.71C48.9567 143.013 48.257 142.295 47.5755 141.557C46.8939 140.82 46.2367 140.068 45.6036 139.304ZM54.2343 147.691L54.7235 147.229L55.2126 146.766C56.8028 148.012 58.4604 149.174 60.1801 150.254L59.7231 150.739L59.266 151.224C57.524 150.131 55.845 148.954 54.2343 147.691ZM64.7454 154.286L65.1673 153.782L65.5893 153.277C67.4694 154.208 69.4088 155.052 71.4016 155.811L71.0175 156.333L70.6333 156.854C68.6145 156.085 66.6499 155.23 64.7454 154.286ZM76.8997 158.914L77.2438 158.38L77.5878 157.845C79.7125 158.439 81.8863 158.945 84.1033 159.364L83.8014 159.909L83.4995 160.453C81.2538 160.029 79.0519 159.516 76.8997 158.914ZM90.3921 161.464L90.6502 160.913L90.9082 160.362C93.2234 160.607 95.5763 160.764 97.9609 160.834L97.7482 161.387L97.5355 161.941C95.1202 161.871 92.737 161.712 90.3921 161.464ZM104.883 161.885L105.05 161.331L105.216 160.778C107.663 160.671 110.136 160.477 112.629 160.196L112.51 160.745L112.392 161.295C109.867 161.58 107.362 161.777 104.883 161.885ZM120.014 160.176L120.085 159.633L120.155 159.09C122.675 158.636 125.208 158.095 127.749 157.468L127.727 158.001L127.705 158.533C125.132 159.168 122.566 159.716 120.014 160.176ZM135.416 156.375L135.389 155.857L135.362 155.338C137.891 154.547 140.422 153.671 142.948 152.711L143.024 153.213L143.101 153.714C140.542 154.686 137.979 155.573 135.416 156.375ZM150.713 150.564L150.588 150.083L150.463 149.602C152.938 148.492 155.404 147.301 157.853 146.03L158.026 146.488L158.199 146.946C155.718 148.234 153.221 149.44 150.713 150.564ZM165.52 142.879L165.3 142.447L165.08 142.015C167.44 140.615 169.779 139.139 172.093 137.586L172.358 137.989L172.623 138.393C170.28 139.966 167.911 141.461 165.52 142.879ZM162.364 114.694L162.064 114.315L161.765 113.936C162.813 113.164 163.852 112.367 164.88 111.546C165.908 110.725 166.911 109.891 167.89 109.043L168.248 109.376L168.606 109.709C167.609 110.572 166.586 111.423 165.538 112.259C164.491 113.096 163.432 113.908 162.364 114.694ZM174.38 104.29L173.967 104.009L173.554 103.728C175.371 101.877 177.08 99.9817 178.68 98.0511L179.143 98.2765L179.606 98.5019C177.976 100.47 176.233 102.403 174.38 104.29ZM184.217 92.4155C185.651 90.3361 186.965 88.2296 188.155 86.1066L187.61 86.0002L187.064 85.8938C185.896 87.9761 184.608 90.0422 183.202 92.0816L183.709 92.2486L184.217 92.4155ZM191.374 79.6569L190.797 79.612L190.221 79.5672C191.153 77.4413 191.959 75.3095 192.636 73.1825L193.235 73.1656L193.835 73.1486C193.145 75.3167 192.323 77.4898 191.374 79.6569ZM195.51 66.6623L194.895 66.7408L194.279 66.8193C194.696 64.7127 194.981 62.6219 195.132 60.5573L195.756 60.4182L196.379 60.279C196.226 62.3836 195.935 64.515 195.51 66.6623ZM196.429 54.0783L195.805 54.2765L195.181 54.4748C195.062 52.4935 194.81 50.5484 194.421 48.65L195.038 48.3948L195.654 48.1396C196.051 50.0752 196.308 52.0583 196.429 54.0783ZM194.062 42.5403L193.461 42.8493L192.86 43.1584C192.212 41.4042 191.431 39.7042 190.515 38.0681L191.094 37.7092L191.672 37.3503C192.606 39.0184 193.402 40.7517 194.062 42.5403ZM188.517 32.6331L187.968 33.0369L187.42 33.4407C186.847 32.7154 186.242 32.0071 185.605 31.317C184.967 30.6269 184.305 29.9639 183.621 29.3281L184.133 28.8849L184.645 28.4417C185.343 29.0898 186.017 29.7654 186.667 30.4687C187.316 31.1719 187.933 31.8938 188.517 32.6331ZM180.106 24.8296L179.637 25.3072L179.168 25.7848C177.567 24.6956 175.877 23.7216 174.11 22.8617L174.529 22.3555L174.949 21.8494C176.75 22.7261 178.473 23.7192 180.106 24.8296ZM169.236 19.5413L168.871 20.0697L168.507 20.5981C166.547 19.9539 164.517 19.4285 162.429 19.021L162.734 18.4772L163.039 17.9334C165.168 18.3488 167.238 18.8845 169.236 19.5413ZM156.439 17.0433L156.197 17.5956L155.955 18.1479C153.737 17.9751 151.471 17.9217 149.169 17.9868L149.345 17.4329L149.521 16.879C151.868 16.8127 154.178 16.8672 156.439 17.0433ZM142.372 17.4405L142.264 17.9891L142.155 18.5376C139.792 18.839 137.404 19.2579 135.003 19.7935L135.042 19.2571L135.082 18.7207C137.529 18.1748 139.963 17.7478 142.372 17.4405ZM127.739 20.7059L127.77 21.2233L127.801 21.7407C125.411 22.5 123.02 23.3727 120.639 24.3577L120.538 23.8659L120.438 23.374C122.865 22.3697 125.302 21.48 127.739 20.7059ZM113.271 26.6937L113.441 27.1536L113.61 27.6135C111.317 28.7923 109.043 30.0776 106.801 31.4686L106.565 31.0464L106.329 30.6242C108.614 29.2061 110.932 27.8956 113.271 26.6937ZM99.6967 35.1138C98.6281 35.9005 97.5695 36.7123 96.522 37.5488C95.4746 38.3854 94.4519 39.236 93.4542 40.0995L93.8124 40.4321L94.1706 40.7647C95.1495 39.9175 96.153 39.0829 97.1808 38.262C98.2087 37.441 99.2474 36.6446 100.296 35.8726L99.9963 35.4932L99.6967 35.1138ZM87.6805 45.518L88.0936 45.799L88.5068 46.08C86.6897 47.9309 84.9802 49.8265 83.3809 51.7571L82.9175 51.5317L82.4541 51.3062C84.0849 49.3377 85.8279 47.405 87.6805 45.518ZM77.8436 57.3927L78.3513 57.5596L78.859 57.7265C77.4525 59.7659 76.164 61.832 74.9962 63.9144L74.4507 63.808L73.9052 63.7015C75.0959 61.5786 76.4096 59.4721 77.8436 57.3927ZM70.6868 70.1512L71.263 70.1961L71.8392 70.241C70.9076 72.3669 70.1019 74.4987 69.4249 76.6256L68.8253 76.6426L68.2258 76.6595C68.9159 74.4914 69.7372 72.3183 70.6868 70.1512ZM66.5502 83.1459L67.1656 83.0674L67.7811 82.9889C67.3645 85.0954 67.0794 87.1863 66.9285 89.2509L66.3048 89.39L65.6811 89.5291C65.8349 87.4245 66.1256 85.2931 66.5502 83.1459ZM65.6316 95.7299C65.752 97.7499 66.0093 99.733 66.4061 101.669L67.0229 101.413L67.6396 101.158C67.2504 99.2597 66.9981 97.3147 66.88 95.3333L66.2558 95.5316L65.6316 95.7299ZM67.998 107.268L68.5995 106.959L69.2009 106.65C69.8484 108.404 70.629 110.104 71.5454 111.74L70.9669 112.099L70.3884 112.458C69.4542 110.79 68.6582 109.057 67.998 107.268ZM73.5438 117.175L74.0923 116.771L74.6407 116.367C75.2134 117.093 75.8183 117.801 76.4559 118.491C77.0934 119.181 77.7551 119.844 78.4399 120.48L77.9278 120.923L77.4157 121.366C76.7178 120.718 76.0434 120.043 75.3937 119.339C74.7441 118.636 74.1275 117.914 73.5438 117.175ZM81.9548 124.979L82.4237 124.501L82.8925 124.023C84.4938 125.113 86.1833 126.087 87.9506 126.946L87.5313 127.453L87.112 127.959C85.31 127.082 83.5873 126.089 81.9548 124.979ZM92.8248 130.267C94.8228 130.924 96.8923 131.459 99.0217 131.875L99.3267 131.331L99.6317 130.787C97.543 130.38 95.5131 129.854 93.5536 129.21L93.1892 129.738L92.8248 130.267ZM105.622 132.765L105.864 132.213L106.106 131.66C108.323 131.833 110.589 131.886 112.892 131.821L112.716 132.375L112.539 132.929C110.192 132.995 107.882 132.941 105.622 132.765ZM119.688 132.368L119.797 131.819L119.905 131.271C122.268 130.969 124.656 130.55 127.057 130.015L127.018 130.551L126.979 131.087C124.531 131.633 122.097 132.06 119.688 132.368ZM134.321 129.102L134.291 128.585L134.26 128.067C136.65 127.308 139.041 126.435 141.421 125.45L141.522 125.942L141.623 126.434C139.196 127.438 136.758 128.328 134.321 129.102ZM148.79 123.115L148.62 122.655L148.45 122.195C150.744 121.016 153.017 119.731 155.259 118.34L155.495 118.762L155.732 119.184C153.446 120.602 151.128 121.913 148.79 123.115Z" fill="url(#paint0_linear_261_18987)"/>
<defs>
<linearGradient id="paint0_linear_261_18987" x1="225.605" y1="9.66333" x2="-22.6291" y2="145.862" gradientUnits="userSpaceOnUse">
<stop stop-color="white"/>
<stop offset="1" stop-color="white" stop-opacity="0"/>
</linearGradient>
</defs>
</svg>
