<svg width="236" height="309" viewBox="0 0 236 309" fill="none" xmlns="http://www.w3.org/2000/svg">
<g clip-path="url(#clip0_777_24276)">
<path fill-rule="evenodd" clip-rule="evenodd" d="M205.873 133.796L204.164 132.849L204.583 132.35L206.293 133.297L205.873 133.796ZM200.744 130.953L197.325 129.058L197.744 128.56L201.164 130.455L200.744 130.953ZM193.906 127.163L190.486 125.268L190.906 124.769L194.325 126.664L193.906 127.163ZM187.067 123.373L183.648 121.478L184.067 120.979L187.486 122.874L187.067 123.373ZM180.228 119.583L176.809 117.687L177.228 117.189L180.648 119.084L180.228 119.583ZM173.39 115.792L169.971 113.897L170.39 113.398L173.809 115.294L173.39 115.792ZM166.551 112.002L163.132 110.107L163.551 109.608L166.97 111.503L166.551 112.002ZM159.713 108.212L156.293 106.317L156.712 105.818L160.132 107.713L159.713 108.212ZM152.874 104.421L149.455 102.526L149.874 102.027L153.293 103.923L152.874 104.421ZM146.035 100.631L142.616 98.736L143.035 98.2372L146.454 100.132L146.035 100.631ZM139.197 96.8408L135.777 94.9457L136.196 94.4469L139.616 96.342L139.197 96.8408ZM132.358 93.0505L128.939 91.1554L129.358 90.6566L132.777 92.5517L132.358 93.0505ZM125.519 89.2602L122.1 87.3651L122.519 86.8663L125.938 88.7614L125.519 89.2602ZM118.681 85.4699L115.261 83.5748L115.68 83.076L119.1 84.9711L118.681 85.4699ZM111.842 81.6796L108.423 79.7845L108.842 79.2857L112.261 81.1808L111.842 81.6796ZM105.003 77.8893L101.584 75.9942L102.003 75.4954L105.422 77.3905L105.003 77.8893ZM98.1645 74.099L94.7452 72.2039L95.1644 71.7051L98.5838 73.6003L98.1645 74.099ZM91.3259 70.3087L87.9066 68.4136L88.3258 67.9148L91.7451 69.81L91.3259 70.3087ZM84.4872 66.5185L81.0679 64.6233L81.4871 64.1245L84.9065 66.0197L84.4872 66.5185ZM77.6486 62.7282L74.2292 60.833L74.6485 60.3342L78.0678 62.2294L77.6486 62.7282ZM70.8099 58.9379L67.3906 57.0427L67.8098 56.544L71.2292 58.4391L70.8099 58.9379ZM63.9713 55.1476L60.5519 53.2525L60.9712 52.7537L64.3905 54.6488L63.9713 55.1476ZM57.1326 51.3573L53.7133 49.4622L54.1325 48.9634L57.5519 50.8585L57.1326 51.3573ZM50.294 47.567L46.8746 45.6719L47.2939 45.1731L50.7132 47.0682L50.294 47.567ZM43.4553 43.7767L40.036 41.8816L40.4552 41.3828L43.8746 43.2779L43.4553 43.7767ZM36.6167 39.9864L33.1973 38.0913L33.6166 37.5925L37.0359 39.4877L36.6167 39.9864ZM29.778 36.1962L26.3587 34.301L26.7779 33.8022L30.1972 35.6974L29.778 36.1962ZM22.9394 32.4059L19.52 30.5107L19.9393 30.0119L23.3586 31.9071L22.9394 32.4059ZM16.1007 28.6156L12.6814 26.7204L13.1006 26.2217L16.5199 28.1168L16.1007 28.6156ZM9.26207 24.8253L5.84274 22.9301L6.26197 22.4314L9.6813 24.3265L9.26207 24.8253ZM2.42342 21.035L0.71358 20.0873L1.13281 19.5886L2.84265 20.5362L2.42342 21.035ZM222.989 -21.0199L221.731 -19.5235L221.161 -19.8394L222.419 -21.3357L222.989 -21.0199ZM219.216 -16.5308L216.7 -13.5381L216.13 -13.854L218.646 -16.8467L219.216 -16.5308ZM214.185 -10.5454L211.669 -7.55269L211.099 -7.86855L213.615 -10.8612L214.185 -10.5454ZM209.154 -4.55998L206.639 -1.56729L206.069 -1.88314L208.584 -4.87584L209.154 -4.55998ZM204.123 1.42542L201.608 4.41812L201.038 4.10226L203.553 1.10957L204.123 1.42542ZM199.092 7.41083L196.577 10.4035L196.007 10.0877L198.523 7.09497L199.092 7.41083ZM194.062 13.3962L191.546 16.3889L190.976 16.0731L193.492 13.0804L194.062 13.3962ZM189.031 19.3816L186.516 22.3743L185.946 22.0585L188.461 19.0658L189.031 19.3816ZM184 25.367L181.485 28.3598L180.915 28.0439L183.43 25.0512L184 25.367ZM178.969 31.3525L176.454 34.3452L175.884 34.0293L178.4 31.0366L178.969 31.3525ZM173.939 37.3379L171.423 40.3306L170.853 40.0147L173.369 37.022L173.939 37.3379ZM168.908 43.3233L166.393 46.316L165.823 46.0001L168.338 43.0074L168.908 43.3233ZM163.877 49.3087L161.362 52.3014L160.792 51.9855L163.307 48.9928L163.877 49.3087ZM158.846 55.2941L156.331 58.2868L155.761 57.9709L158.276 54.9782L158.846 55.2941ZM153.816 61.2795L151.3 64.2722L150.73 63.9563L153.246 60.9636L153.816 61.2795ZM148.785 67.2649L146.269 70.2576L145.7 69.9417L148.215 66.949L148.785 67.2649ZM143.754 73.2503L141.239 76.243L140.669 75.9272L143.184 72.9345L143.754 73.2503ZM138.723 79.2357L136.208 82.2284L135.638 81.9126L138.153 78.9199L138.723 79.2357ZM133.693 85.2211L131.177 88.2138L130.607 87.898L133.123 84.9053L133.693 85.2211ZM128.662 91.2065L126.146 94.1992L125.577 93.8833L128.092 90.8907L128.662 91.2065ZM123.631 97.1919L121.116 100.185L120.546 99.8687L123.061 96.876L123.631 97.1919ZM118.6 103.177L116.085 106.17L115.515 105.854L118.03 102.861L118.6 103.177ZM113.57 109.163L111.054 112.155L110.484 111.84L113 108.847L113.57 109.163ZM108.539 115.148L106.023 118.141L105.454 117.825L107.969 114.832L108.539 115.148ZM103.508 121.133L100.993 124.126L100.423 123.81L102.938 120.818L103.508 121.133ZM98.4774 127.119L95.962 130.112L95.3921 129.796L97.9075 126.803L98.4774 127.119ZM93.4466 133.104L90.9312 136.097L90.3613 135.781L92.8767 132.788L93.4466 133.104ZM88.4159 139.09L85.9005 142.082L85.3306 141.767L87.846 138.774L88.4159 139.09ZM83.3851 145.075L80.8697 148.068L80.2998 147.752L82.8152 144.759L83.3851 145.075ZM78.3543 151.06L75.839 154.053L75.2691 153.737L77.7845 150.745L78.3543 151.06ZM73.3236 157.046L72.0658 158.542L71.4959 158.227L72.7537 156.73L73.3236 157.046ZM119.788 -76.0249L121.046 -77.5212L120.476 -77.8371L119.218 -76.3407L119.788 -76.0249ZM114.758 -70.0395L117.273 -73.0322L116.703 -73.348L114.188 -70.3553L114.758 -70.0395ZM109.727 -64.0541L112.242 -67.0468L111.672 -67.3626L109.157 -64.3699L109.727 -64.0541ZM104.696 -58.0687L107.211 -61.0614L106.642 -61.3772L104.126 -58.3845L104.696 -58.0687ZM101.703 -55.3408L101.771 -55.4215L105.19 -53.5264L104.771 -53.0276L101.829 -54.6579L99.6653 -52.0833L99.0954 -52.3991L101.611 -55.3918L101.703 -55.3408ZM94.6345 -46.0978L97.1499 -49.0905L96.58 -49.4064L94.0646 -46.4137L94.6345 -46.0978ZM89.6038 -40.1124L92.1191 -43.1052L91.5492 -43.421L89.0339 -40.4283L89.6038 -40.1124ZM84.573 -34.127L87.0884 -37.1197L86.5185 -37.4356L84.0031 -34.4429L84.573 -34.127ZM79.5422 -28.1416L82.0576 -31.1343L81.4877 -31.4502L78.9723 -28.4575L79.5422 -28.1416ZM74.5115 -22.1562L77.0268 -25.1489L76.457 -25.4648L73.9416 -22.4721L74.5115 -22.1562ZM69.4807 -16.1708L71.9961 -19.1635L71.4262 -19.4794L68.9108 -16.4867L69.4807 -16.1708ZM64.7521 -10.5449L66.9653 -13.1781L66.3954 -13.494L63.8801 -10.5013L63.9721 -10.4503L63.855 -10.311L67.2743 -8.41585L67.6936 -8.91463L64.7521 -10.5449ZM59.4192 -4.19999L61.9346 -7.1927L61.3647 -7.50854L58.8493 -4.51585L59.4192 -4.19999ZM54.3884 1.78542L56.9038 -1.20728L56.3339 -1.52314L53.8185 1.46956L54.3884 1.78542ZM49.3577 7.77083L51.8731 4.77812L51.3032 4.46227L48.7878 7.45497L49.3577 7.77083ZM44.3269 13.7562L46.8423 10.7635L46.2724 10.4477L43.757 13.4404L44.3269 13.7562ZM39.2962 19.7416L41.8115 16.7489L41.2416 16.4331L38.7263 19.4258L39.2962 19.7416ZM34.2654 25.727L36.7808 22.7343L36.2109 22.4185L33.6955 25.4112L34.2654 25.727ZM29.2346 31.7124L31.75 28.7197L31.1801 28.4039L28.6648 31.3966L29.2346 31.7124ZM24.2039 37.6978L26.7193 34.7051L26.1494 34.3893L23.634 37.382L24.2039 37.6978ZM19.1731 43.6832L21.6885 40.6905L21.1186 40.3747L18.6033 43.3674L19.1731 43.6832ZM14.1424 49.6686L16.6578 46.6759L16.0879 46.3601L13.5725 49.3528L14.1424 49.6686ZM9.11164 55.654L11.627 52.6613L11.0571 52.3455L8.54176 55.3382L9.11164 55.654ZM4.08089 61.6394L6.59627 58.6467L6.02638 58.3309L3.511 61.3236L4.08089 61.6394ZM-0.949859 67.6248L1.56552 64.6321L0.995629 64.3163L-1.51975 67.309L-0.949859 67.6248ZM-5.98061 73.6102L-3.46523 70.6175L-4.03512 70.3016L-6.5505 73.2943L-5.98061 73.6102ZM-10.2408 78.6788L-8.49599 76.6029L-9.06587 76.287L-11.5812 79.2797L-11.0114 79.5956L-10.66 79.1776L-7.71848 80.8079L-7.29925 80.3091L-10.2408 78.6788ZM-16.0421 85.581L-13.5267 82.5883L-14.0966 82.2724L-16.612 85.2651L-16.0421 85.581ZM-21.0729 91.5664L-18.5575 88.5737L-19.1274 88.2578L-21.6428 91.2505L-21.0729 91.5664ZM-26.1036 97.5518L-23.5882 94.5591L-24.1581 94.2432L-26.6735 97.2359L-26.1036 97.5518ZM-29.8768 102.041L-28.619 100.544L-29.1889 100.229L-30.4467 101.725L-29.8768 102.041ZM280.866 44.5725L279.157 43.6249L279.576 43.1261L281.286 44.0737L280.866 44.5725ZM275.737 41.7297L272.318 39.8346L272.737 39.3358L276.157 41.2309L275.737 41.7297ZM268.899 37.9394L265.479 36.0443L265.899 35.5455L269.318 37.4407L268.899 37.9394ZM262.06 34.1491L258.641 32.254L259.06 31.7552L262.479 33.6504L262.06 34.1491ZM255.221 30.3588L254.744 30.0941L252.58 32.6686L252.01 32.3527L254.174 29.7782L251.802 28.4637L252.221 27.9649L255.641 29.8601L255.221 30.3588ZM248.383 26.5685L244.963 24.6734L245.383 24.1746L248.802 26.0698L248.383 26.5685ZM241.544 22.7783L238.125 20.8831L238.544 20.3843L241.963 22.2795L241.544 22.7783ZM234.705 18.988L231.286 17.0928L231.705 16.594L235.125 18.4892L234.705 18.988ZM227.867 15.1977L224.447 13.3025L224.867 12.8037L228.286 14.6989L227.867 15.1977ZM221.028 11.4074L217.609 9.51222L218.028 9.01343L221.447 10.9086L221.028 11.4074ZM214.189 7.61707L210.77 5.72192L211.189 5.22314L214.609 7.11829L214.189 7.61707ZM207.351 3.82677L203.931 1.93163L204.351 1.43284L207.77 3.32799L207.351 3.82677ZM200.512 0.0364774L197.093 -1.85867L197.512 -2.35745L200.931 -0.462306L200.512 0.0364774ZM193.673 -3.75382L190.254 -5.64897L190.673 -6.14775L194.093 -4.2526L193.673 -3.75382ZM186.835 -7.54411L183.415 -9.43926L183.835 -9.93804L187.254 -8.0429L186.835 -7.54411ZM179.996 -11.3344L176.577 -13.2296L176.996 -13.7283L180.415 -11.8332L179.996 -11.3344ZM173.157 -15.1247L169.738 -17.0199L170.157 -17.5186L173.577 -15.6235L173.157 -15.1247ZM166.319 -18.915L162.899 -20.8101L163.319 -21.3089L166.738 -19.4138L166.319 -18.915ZM159.48 -22.7053L156.061 -24.6004L156.48 -25.0992L159.899 -23.2041L159.48 -22.7053ZM153.152 -26.8251L152.993 -26.9135L153.061 -26.9944L149.641 -28.8895L149.222 -28.3907L152.231 -26.7231L150.067 -24.1483L150.637 -23.8324L153.152 -26.8251ZM145.803 -30.2859L142.383 -32.181L142.803 -32.6798L146.222 -30.7846L145.803 -30.2859ZM138.964 -34.0762L135.545 -35.9713L135.964 -36.4701L139.383 -34.5749L138.964 -34.0762ZM132.125 -37.8664L128.706 -39.7616L129.125 -40.2604L132.545 -38.3652L132.125 -37.8664ZM125.287 -41.6567L121.867 -43.5519L122.287 -44.0507L125.706 -42.1555L125.287 -41.6567ZM118.448 -45.447L115.029 -47.3422L115.448 -47.8409L118.867 -45.9458L118.448 -45.447ZM111.609 -49.2373L108.19 -51.1325L108.609 -51.6312L112.029 -49.7361L111.609 -49.2373ZM97.9322 -56.8179L94.5128 -58.713L94.9321 -59.2118L98.3514 -57.3167L97.9322 -56.8179ZM91.0935 -60.6082L87.6742 -62.5033L88.0934 -63.0021L91.5127 -61.107L91.0935 -60.6082ZM84.2549 -64.3985L80.8355 -66.2936L81.2548 -66.7924L84.6741 -64.8972L84.2549 -64.3985ZM77.4162 -68.1887L75.7064 -69.1364L76.1256 -69.6352L77.8354 -68.6875L77.4162 -68.1887ZM272.703 8.72694L273.961 7.23059L273.391 6.91474L272.133 8.41108L272.703 8.72694ZM267.672 14.7124L270.187 11.7197L269.618 11.4038L267.102 14.3965L267.672 14.7124ZM262.641 20.6978L265.157 17.7051L264.587 17.3892L262.071 20.3819L262.641 20.6978ZM257.611 26.6832L260.126 23.6905L259.556 23.3746L257.041 26.3673L257.611 26.6832ZM247.549 38.654L250.064 35.6613L249.494 35.3454L246.979 38.3381L247.549 38.654ZM242.518 44.6394L245.034 41.6467L244.464 41.3308L241.948 44.3235L242.518 44.6394ZM237.487 50.6248L240.003 47.6321L239.433 47.3162L236.918 50.3089L237.487 50.6248ZM232.457 56.6102L234.972 53.6175L234.402 53.3016L231.887 56.2943L232.457 56.6102ZM227.426 62.5956L229.941 59.6029L229.371 59.2871L226.856 62.2798L227.426 62.5956ZM222.395 68.581L224.911 65.5883L224.341 65.2725L221.825 68.2652L222.395 68.581ZM217.666 74.2071L219.88 71.5737L219.31 71.2579L217.097 73.8912L214.725 72.5767L214.305 73.0754L217.725 74.9706L218.144 74.4718L217.666 74.2071ZM212.334 80.5518L214.849 77.5591L214.279 77.2433L211.764 80.236L212.334 80.5518ZM207.303 86.5372L209.818 83.5445L209.248 83.2287L206.733 86.2214L207.303 86.5372ZM202.272 92.5227L204.788 89.53L204.218 89.2141L201.702 92.2068L202.272 92.5227ZM197.241 98.5081L199.757 95.5154L199.187 95.1995L196.672 98.1922L197.241 98.5081ZM192.211 104.493L194.726 101.501L194.156 101.185L191.641 104.178L192.211 104.493ZM187.18 110.479L189.695 107.486L189.125 107.17L186.61 110.163L187.18 110.479ZM182.149 116.464L184.665 113.472L184.095 113.156L181.579 116.148L182.149 116.464ZM177.118 122.45L179.634 119.457L179.064 119.141L176.549 122.134L177.118 122.45ZM172.088 128.435L174.603 125.442L174.033 125.126L171.518 128.119L172.088 128.435ZM167.057 134.42L169.572 131.428L169.002 131.112L166.487 134.105L167.057 134.42ZM162.026 140.406L164.542 137.413L163.972 137.097L161.456 140.09L162.026 140.406ZM156.995 146.391L159.511 143.399L158.941 143.083L156.426 146.075L156.995 146.391ZM151.965 152.377L154.48 149.384L153.91 149.068L151.395 152.061L151.965 152.377ZM146.934 158.362L149.449 155.369L148.879 155.053L146.364 158.046L146.934 158.362ZM142.674 163.431L144.419 161.355L143.849 161.039L142.104 163.115L139.732 161.8L139.313 162.299L141.684 163.614L141.333 164.032L141.903 164.347L142.254 163.93L142.732 164.194L143.151 163.696L142.674 163.431ZM136.872 170.333L139.388 167.34L138.818 167.024L136.302 170.017L136.872 170.333ZM131.842 176.318L134.357 173.326L133.787 173.01L131.272 176.002L131.842 176.318ZM126.811 182.304L129.326 179.311L128.756 178.995L126.241 181.988L126.811 182.304ZM123.038 186.793L124.296 185.296L123.726 184.98L122.468 186.477L123.038 186.793ZM168.377 178.408L166.667 177.46L167.087 176.962L168.796 177.909L168.377 178.408ZM163.248 175.565L159.829 173.67L160.248 173.171L163.667 175.066L163.248 175.565ZM156.409 171.775L152.99 169.88L153.409 169.381L156.829 171.276L156.409 171.775ZM149.571 167.985L146.151 166.089L146.571 165.591L149.99 167.486L149.571 167.985ZM135.893 160.404L132.474 158.509L132.893 158.01L136.313 159.905L135.893 160.404ZM129.055 156.614L125.635 154.719L126.055 154.22L129.474 156.115L129.055 156.614ZM122.216 152.823L118.797 150.928L119.216 150.43L122.635 152.325L122.216 152.823ZM115.377 149.033L111.958 147.138L112.377 146.639L115.797 148.534L115.377 149.033ZM108.539 145.243L105.119 143.348L105.539 142.849L108.958 144.744L108.539 145.243ZM101.7 141.453L98.2807 139.557L98.6999 139.059L102.119 140.954L101.7 141.453ZM94.8613 137.662L91.442 135.767L91.8612 135.268L95.2806 137.163L94.8613 137.662ZM88.0227 133.872L84.6034 131.977L85.0226 131.478L88.4419 133.373L88.0227 133.872ZM81.184 130.082L77.7647 128.187L78.1839 127.688L81.6033 129.583L81.184 130.082ZM74.3454 126.291L70.926 124.396L71.3453 123.897L74.7646 125.793L74.3454 126.291ZM67.5067 122.501L64.0874 120.606L64.5066 120.107L67.9259 122.002L67.5067 122.501ZM60.668 118.711L57.2487 116.816L57.6679 116.317L61.0873 118.212L60.668 118.711ZM53.8294 114.92L50.41 113.025L50.8293 112.527L54.2486 114.422L53.8294 114.92ZM46.9907 111.13L43.5714 109.235L43.9906 108.736L47.41 110.631L46.9907 111.13ZM41.9055 104.538L40.1608 106.614L37.152 104.946L36.7327 105.445L39.7416 107.112L39.3901 107.531L39.96 107.846L42.4754 104.854L41.9055 104.538ZM33.3134 103.55L29.8941 101.654L30.3133 101.156L33.7327 103.051L33.3134 103.55ZM26.4748 99.7593L23.0554 97.8642L23.4747 97.3654L26.894 99.2606L26.4748 99.7593ZM19.6361 95.9691L16.2168 94.0739L16.636 93.5751L20.0553 95.4703L19.6361 95.9691ZM12.7975 92.1788L9.37814 90.2836L9.79737 89.7848L13.2167 91.68L12.7975 92.1788ZM5.95882 88.3885L2.53949 86.4933L2.95872 85.9945L6.37805 87.8897L5.95882 88.3885ZM-0.879832 84.5982L-4.29916 82.703L-3.87993 82.2043L-0.460602 84.0994L-0.879832 84.5982ZM-14.5571 77.0176L-17.9765 75.1225L-17.5572 74.6237L-14.1379 76.5188L-14.5571 77.0176ZM-21.3958 73.2273L-24.8151 71.3322L-24.3959 70.8334L-20.9766 72.7285L-21.3958 73.2273ZM-28.2344 69.437L-31.6538 67.5419L-31.2345 67.0431L-27.8152 68.9383L-28.2344 69.437ZM-35.0731 65.6467L-36.7829 64.6991L-36.3637 64.2003L-34.6539 65.148L-35.0731 65.6467ZM170.76 -47.7741L172.017 -49.2704L171.447 -49.5863L170.19 -48.0899L170.76 -47.7741ZM165.729 -41.7887L168.244 -44.7814L167.674 -45.0972L165.159 -42.1045L165.729 -41.7887ZM160.698 -35.8033L163.214 -38.7959L162.644 -39.1118L160.128 -36.1191L160.698 -35.8033ZM155.667 -29.8178L158.183 -32.8105L157.613 -33.1264L155.098 -30.1337L155.667 -29.8178ZM145.606 -17.847L148.121 -20.8397L147.551 -21.1556L145.036 -18.1629L145.606 -17.847ZM140.575 -11.8616L143.091 -14.8543L142.521 -15.1702L140.005 -12.1775L140.575 -11.8616ZM135.544 -5.87621L138.06 -8.86892L137.49 -9.18477L134.974 -6.19207L135.544 -5.87621ZM130.514 0.109195L133.029 -2.88351L132.459 -3.19937L129.944 -0.206662L130.514 0.109195ZM125.483 6.0946L127.998 3.10189L127.428 2.78605L124.913 5.77875L125.483 6.0946ZM120.452 12.08L122.967 9.08732L122.398 8.77145L119.882 11.7642L120.452 12.08ZM115.421 18.0654L117.937 15.0727L117.367 14.7569L115.154 17.3899L112.145 15.7222L111.726 16.221L115.145 18.1162L115.262 17.977L115.421 18.0654ZM110.391 24.0508L112.906 21.0581L112.336 20.7423L109.821 23.735L110.391 24.0508ZM105.36 30.0362L107.875 27.0435L107.305 26.7277L104.79 29.7204L105.36 30.0362ZM100.329 36.0216L102.844 33.0289L102.275 32.7131L99.7592 35.7058L100.329 36.0216ZM95.2983 42.007L97.8137 39.0144L97.2438 38.6985L94.7284 41.6912L95.2983 42.007ZM90.2675 47.9925L92.7829 44.9998L92.213 44.6839L89.6976 47.6766L90.2675 47.9925ZM85.2368 53.9779L87.7522 50.9852L87.1823 50.6693L84.6669 53.662L85.2368 53.9779ZM80.206 59.9633L82.7214 56.9706L82.1515 56.6547L79.6361 59.6474L80.206 59.9633ZM75.1753 65.9487L77.6906 62.956L77.1208 62.6401L74.6054 65.6328L75.1753 65.9487ZM70.1445 71.934L72.6599 68.9413L72.09 68.6255L69.5746 71.6182L70.1445 71.934ZM65.1138 77.9194L67.6291 74.9267L67.0593 74.6109L64.5439 77.6036L65.1138 77.9194ZM60.083 83.9048L62.5984 80.9121L62.0285 80.5963L59.5131 83.589L60.083 83.9048ZM55.0523 89.8902L57.5676 86.8975L56.9978 86.5817L54.4824 89.5744L55.0523 89.8902ZM50.0215 95.8756L52.5369 92.8829L51.967 92.5671L49.4516 95.5598L50.0215 95.8756ZM44.9908 101.861L47.5061 98.8683L46.9363 98.5525L44.4209 101.545L44.9908 101.861ZM34.9293 113.832L37.4446 110.839L36.8747 110.523L34.3594 113.516L34.9293 113.832ZM29.8985 119.817L32.4139 116.825L31.844 116.509L29.3286 119.501L29.8985 119.817ZM24.8678 125.803L27.3831 122.81L26.8132 122.494L24.2979 125.487L24.8678 125.803ZM21.0946 130.292L22.3524 128.795L21.7825 128.479L20.5247 129.976L21.0946 130.292ZM243.37 89.1842L241.66 88.2366L242.079 87.7378L243.789 88.6854L243.37 89.1842ZM238.241 86.3415L234.821 84.4463L235.241 83.9475L238.66 85.8427L238.241 86.3415ZM231.402 82.5512L227.983 80.656L228.402 80.1572L231.821 82.0524L231.402 82.5512ZM224.563 78.7609L221.144 76.8657L221.563 76.3669L224.983 78.2621L224.563 78.7609ZM210.886 71.1803L207.467 69.2851L207.886 68.7864L211.305 70.6815L210.886 71.1803ZM204.047 67.39L200.628 65.4948L201.047 64.9961L204.467 66.8912L204.047 67.39ZM197.209 63.5997L193.789 61.7045L194.209 61.2058L197.628 63.1009L197.209 63.5997ZM190.37 59.8094L186.951 57.9143L187.37 57.4155L190.789 59.3106L190.37 59.8094ZM183.531 56.0191L180.112 54.124L180.531 53.6252L183.951 55.5203L183.531 56.0191ZM176.693 52.2288L173.273 50.3337L173.693 49.8349L177.112 51.73L176.693 52.2288ZM169.854 48.4385L166.435 46.5434L166.854 46.0446L170.273 47.9397L169.854 48.4385ZM163.015 44.6482L159.596 42.7531L160.015 42.2543L163.435 44.1494L163.015 44.6482ZM156.177 40.8579L152.758 38.9628L153.177 38.464L156.596 40.3591L156.177 40.8579ZM149.338 37.0676L145.919 35.1725L146.338 34.6737L149.757 36.5688L149.338 37.0676ZM142.5 33.2773L139.08 31.3822L139.499 30.8834L142.919 32.7785L142.5 33.2773ZM135.661 29.487L132.242 27.5919L132.661 27.0931L136.08 28.9882L135.661 29.487ZM128.822 25.6967L125.403 23.8016L125.822 23.3028L129.241 25.198L128.822 25.6967ZM121.984 21.9065L118.564 20.0113L118.983 19.5125L122.403 21.4077L121.984 21.9065ZM108.306 14.3259L104.887 12.4307L105.306 11.932L108.725 13.8271L108.306 14.3259ZM101.468 10.5356L98.0483 8.64045L98.4675 8.14166L101.887 10.0368L101.468 10.5356ZM94.6289 6.7453L91.2096 4.85016L91.6288 4.35137L95.0482 6.24652L94.6289 6.7453ZM87.7903 2.95501L84.371 1.05987L84.7902 0.561086L88.2095 2.45623L87.7903 2.95501ZM80.9516 -0.835275L77.5323 -2.73042L77.9515 -3.2292L81.3709 -1.33406L80.9516 -0.835275ZM74.113 -4.62556L70.6937 -6.52071L71.1129 -7.01949L74.5322 -5.12435L74.113 -4.62556ZM60.4357 -12.2061L57.0164 -14.1013L57.4356 -14.6001L60.8549 -12.7049L60.4357 -12.2061ZM53.597 -15.9964L50.1777 -17.8916L50.5969 -18.3904L54.0163 -16.4952L53.597 -15.9964ZM46.7584 -19.7867L43.3391 -21.6819L43.7583 -22.1806L47.1776 -20.2855L46.7584 -19.7867ZM39.9197 -23.577L38.2099 -24.5247L38.6291 -25.0235L40.339 -24.0758L39.9197 -23.577Z" fill="url(#paint0_radial_777_24276)"/>
</g>
<defs>
<radialGradient id="paint0_radial_777_24276" cx="0" cy="0" r="1" gradientUnits="userSpaceOnUse" gradientTransform="translate(231.442 -6.17353) rotate(103.652) scale(142.878 120.439)">
<stop stop-color="white"/>
<stop offset="1" stop-color="white" stop-opacity="0"/>
</radialGradient>
<clipPath id="clip0_777_24276">
<rect width="236" height="309" rx="11.8037" fill="white"/>
</clipPath>
</defs>
</svg>
