<svg width="340" height="248" viewBox="0 0 340 248" fill="none" xmlns="http://www.w3.org/2000/svg">
<path fill-rule="evenodd" clip-rule="evenodd" d="M269.822 -122.403L268.504 -119.707L269.47 -119.449L270.788 -122.144L269.822 -122.403ZM265.869 -114.317L263.234 -108.926L264.2 -108.668L266.835 -114.058L265.869 -114.317ZM260.6 -103.536L257.965 -98.1455L258.931 -97.8867L261.565 -103.277L260.6 -103.536ZM255.33 -92.755L252.695 -87.3646L253.661 -87.1058L256.296 -92.4962L255.33 -92.755ZM250.06 -81.9741L247.425 -76.5836L248.391 -76.3248L251.026 -81.7153L250.06 -81.9741ZM244.79 -71.1932L242.155 -65.8027L243.121 -65.5439L245.756 -70.9344L244.79 -71.1932ZM239.52 -60.4122L236.885 -55.0218L237.851 -54.763L240.486 -60.1534L239.52 -60.4122ZM234.25 -49.6313L231.615 -44.2408L232.581 -43.982L235.216 -49.3725L234.25 -49.6313ZM228.98 -38.8504L226.345 -33.4599L227.311 -33.2011L229.946 -38.5916L228.98 -38.8504ZM223.71 -28.0694L221.076 -22.679L222.041 -22.4202L224.676 -27.8106L223.71 -28.0694ZM218.441 -17.2885L215.806 -11.898L216.772 -11.6392L219.407 -17.0297L218.441 -17.2885ZM213.171 -6.50757L210.536 -1.11711L211.502 -0.858289L214.137 -6.24876L213.171 -6.50757ZM207.901 4.27336L205.266 9.66383L206.232 9.92264L208.867 4.53218L207.901 4.27336ZM202.631 15.0543L199.996 20.4448L200.962 20.7036L203.597 15.3131L202.631 15.0543ZM197.361 25.8352L194.726 31.2257L195.692 31.4845L198.327 26.094L197.361 25.8352ZM192.091 36.6162L189.456 42.0066L190.422 42.2654L193.057 36.875L192.091 36.6162ZM186.821 47.3971L184.186 52.7876L185.152 53.0464L187.787 47.6559L186.821 47.3971ZM181.552 58.178L178.917 63.5685L179.883 63.8273L182.517 58.4368L181.552 58.178ZM176.282 68.9589L173.647 74.3494L174.613 74.6082L177.248 69.2178L176.282 68.9589ZM171.012 79.7399L168.377 85.1304L169.343 85.3892L171.978 79.9987L171.012 79.7399ZM165.742 90.5208L163.107 95.9113L164.073 96.1701L166.708 90.7797L165.742 90.5208ZM160.472 101.302L157.837 106.692L158.803 106.951L161.438 101.561L160.472 101.302ZM155.202 112.083L152.567 117.473L153.533 117.732L156.168 112.342L155.202 112.083ZM149.932 122.864L147.297 128.254L148.263 128.513L150.898 123.122L149.932 122.864ZM144.663 133.645L142.028 139.035L142.994 139.294L145.628 133.903L144.663 133.645ZM139.393 144.425L136.758 149.816L137.724 150.075L140.359 144.684L139.393 144.425ZM134.123 155.206L131.488 160.597L132.454 160.856L135.089 155.465L134.123 155.206ZM128.853 165.987L126.218 171.378L127.184 171.637L129.819 166.246L128.853 165.987ZM123.583 176.768L120.948 182.159L121.914 182.418L124.549 177.027L123.583 176.768ZM118.313 187.549L115.678 192.94L116.644 193.199L119.279 187.808L118.313 187.549ZM113.043 198.33L111.726 201.025L112.692 201.284L114.009 198.589L113.043 198.33ZM427.476 57.2959L424.579 56.5195L424.139 57.4179L427.037 58.1944L427.476 57.2959ZM418.783 54.9666L412.988 53.4137L412.548 54.3121L418.344 55.865L418.783 54.9666ZM407.192 51.8607L401.396 50.3078L400.957 51.2062L406.753 52.7592L407.192 51.8607ZM395.601 48.7549L389.805 47.202L389.366 48.1004L395.162 49.6533L395.601 48.7549ZM384.01 45.6491L378.214 44.0962L377.775 44.9946L383.571 46.5475L384.01 45.6491ZM372.419 42.5433L366.623 40.9903L366.184 41.8888L371.979 43.4417L372.419 42.5433ZM360.828 39.4374L355.032 37.8845L354.593 38.7829L360.388 40.3358L360.828 39.4374ZM349.236 36.3316L343.441 34.7787L343.002 35.6771L348.797 37.23L349.236 36.3316ZM337.645 33.2258L331.85 31.6729L331.411 32.5713L337.206 34.1242L337.645 33.2258ZM326.054 30.1199L320.259 28.567L319.819 29.4654L325.615 31.0183L326.054 30.1199ZM314.463 27.0141L308.668 25.4612L308.228 26.3596L314.024 27.9125L314.463 27.0141ZM302.872 23.9083L297.076 22.3554L296.637 23.2538L302.433 24.8067L302.872 23.9083ZM291.281 20.8025L285.485 19.2495L285.046 20.1479L290.842 21.7009L291.281 20.8025ZM279.69 17.6966L273.894 16.1437L273.455 17.0421L279.251 18.595L279.69 17.6966ZM268.099 14.5908L262.303 13.0379L261.864 13.9363L267.659 15.4892L268.099 14.5908ZM256.508 11.485L250.712 9.93205L250.273 10.8305L256.068 12.3834L256.508 11.485ZM244.916 8.37914L239.121 6.82622L238.682 7.72463L244.477 9.27755L244.916 8.37914ZM233.325 5.27331L227.53 3.72039L227.091 4.61881L232.886 6.17172L233.325 5.27331ZM221.734 2.16748L215.939 0.614565L215.499 1.51298L221.295 3.06589L221.734 2.16748ZM210.143 -0.938349L204.348 -2.49126L203.908 -1.59285L209.704 -0.0399378L210.143 -0.938349ZM198.552 -4.04418L192.756 -5.59709L192.317 -4.69868L198.113 -3.14577L198.552 -4.04418ZM186.961 -7.15001L181.165 -8.70292L180.726 -7.80451L186.522 -6.25159L186.961 -7.15001ZM175.37 -10.2558L169.574 -11.8088L169.135 -10.9104L174.931 -9.35742L175.37 -10.2558ZM163.779 -13.3617L157.983 -14.9146L157.544 -14.0162L163.34 -12.4633L163.779 -13.3617ZM152.188 -16.4675L146.392 -18.0204L145.953 -17.122L151.748 -15.5691L152.188 -16.4675ZM140.596 -19.5733L134.801 -21.1262L134.362 -20.2278L140.157 -18.6749L140.596 -19.5733ZM129.005 -22.6792L123.21 -24.2321L122.771 -23.3337L128.566 -21.7808L129.005 -22.6792ZM117.414 -25.785L111.619 -27.3379L111.18 -26.4395L116.975 -24.8866L117.414 -25.785ZM105.823 -28.8908L100.028 -30.4437L99.5884 -29.5453L105.384 -27.9924L105.823 -28.8908ZM94.232 -31.9966L88.4365 -33.5496L87.9973 -32.6512L93.7929 -31.0982L94.232 -31.9966ZM82.6409 -35.1025L79.7431 -35.8789L79.304 -34.9805L82.2017 -34.2041L82.6409 -35.1025ZM346.022 217.229L348.919 218.006L348.48 218.904L345.582 218.127L346.022 217.229ZM334.431 214.123L340.226 215.676L339.787 216.575L333.991 215.022L334.431 214.123ZM322.839 211.017L328.635 212.57L328.196 213.469L322.4 211.916L322.839 211.017ZM311.248 207.912L317.044 209.464L316.605 210.363L310.809 208.81L311.248 207.912ZM305.085 207.112L305.241 207.154L307.875 201.763L306.91 201.504L304.643 206.142L299.657 204.806L299.218 205.704L305.014 207.257L305.085 207.112ZM288.066 201.7L293.862 203.253L293.422 204.151L287.627 202.598L288.066 201.7ZM276.475 198.594L282.271 200.147L281.831 201.045L276.036 199.493L276.475 198.594ZM264.884 195.488L270.679 197.041L270.24 197.94L264.445 196.387L264.884 195.488ZM253.293 192.382L259.088 193.935L258.649 194.834L252.854 193.281L253.293 192.382ZM241.702 189.277L247.497 190.83L247.058 191.728L241.262 190.175L241.702 189.277ZM230.111 186.171L235.906 187.724L235.467 188.622L229.671 187.069L230.111 186.171ZM219.215 183.251L224.315 184.618L223.876 185.516L218.08 183.963L218.151 183.818L217.881 183.746L220.516 178.355L221.482 178.614L219.215 183.251ZM206.928 179.959L212.724 181.512L212.285 182.41L206.489 180.858L206.928 179.959ZM195.337 176.853L201.133 178.406L200.694 179.305L194.898 177.752L195.337 176.853ZM183.746 173.747L189.542 175.3L189.103 176.199L183.307 174.646L183.746 173.747ZM172.155 170.642L177.951 172.195L177.511 173.093L171.716 171.54L172.155 170.642ZM160.564 167.536L166.359 169.089L165.92 169.987L160.125 168.434L160.564 167.536ZM148.973 164.43L154.768 165.983L154.329 166.881L148.534 165.328L148.973 164.43ZM137.382 161.324L143.177 162.877L142.738 163.775L136.943 162.223L137.382 161.324ZM125.791 158.218L131.586 159.771L131.147 160.67L125.351 159.117L125.791 158.218ZM114.199 155.112L119.995 156.665L119.556 157.564L113.76 156.011L114.199 155.112ZM102.608 152.007L108.404 153.56L107.965 154.458L102.169 152.905L102.608 152.007ZM91.0172 148.901L96.8128 150.454L96.3736 151.352L90.5781 149.799L91.0172 148.901ZM79.4261 145.795L85.2217 147.348L84.7825 148.246L78.987 146.693L79.4261 145.795ZM67.835 142.689L73.6306 144.242L73.1914 145.14L67.3959 143.588L67.835 142.689ZM56.2439 139.583L62.0395 141.136L61.6003 142.035L55.8048 140.482L56.2439 139.583ZM46.4286 136.953L50.4484 138.03L50.0092 138.929L44.2136 137.376L44.6528 136.477L45.4627 136.695L47.7294 132.057L48.6953 132.316L46.4286 136.953ZM33.0617 133.372L38.8572 134.925L38.4181 135.823L32.6225 134.27L33.0617 133.372ZM21.4706 130.266L27.2661 131.819L26.827 132.717L21.0314 131.164L21.4706 130.266ZM9.87947 127.16L15.675 128.713L15.2359 129.611L9.44032 128.058L9.87947 127.16ZM1.18614 124.831L4.08392 125.607L3.64476 126.506L0.746983 125.729L1.18614 124.831ZM442.609 -76.1045L441.291 -73.4093L442.257 -73.1505L443.574 -75.8457L442.609 -76.1045ZM438.656 -68.0188L436.021 -62.6284L436.987 -62.3696L439.622 -67.76L438.656 -68.0188ZM433.386 -57.2379L430.751 -51.8474L431.717 -51.5886L434.352 -56.9791L433.386 -57.2379ZM428.116 -46.457L425.481 -41.0665L426.447 -40.8077L429.082 -46.1982L428.116 -46.457ZM422.847 -35.676L422.478 -34.9227L417.493 -36.2586L417.054 -35.3602L422.039 -34.0243L420.212 -30.2856L421.178 -30.0268L423.812 -35.4172L422.847 -35.676ZM417.577 -24.8951L414.942 -19.5046L415.908 -19.2458L418.543 -24.6363L417.577 -24.8951ZM412.307 -14.1142L409.672 -8.72371L410.638 -8.46489L413.273 -13.8554L412.307 -14.1142ZM407.037 -3.33325L404.402 2.05722L405.368 2.31604L408.003 -3.07443L407.037 -3.33325ZM401.767 7.44769L399.132 12.8382L400.098 13.097L402.733 7.70651L401.767 7.44769ZM396.497 18.2286L393.862 23.6191L394.828 23.8779L397.463 18.4874L396.497 18.2286ZM391.227 29.0095L388.592 34.4L389.558 34.6588L392.193 29.2684L391.227 29.0095ZM385.957 39.7905L383.323 45.181L384.288 45.4398L386.923 40.0493L385.957 39.7905ZM380.688 50.5714L378.053 55.9619L379.019 56.2207L381.654 50.8302L380.688 50.5714ZM375.418 61.3524L372.783 66.7428L373.749 67.0016L376.384 61.6112L375.418 61.3524ZM370.148 72.1333L367.513 77.5238L368.479 77.7826L371.114 72.3921L370.148 72.1333ZM364.878 82.9142L362.243 88.3047L363.209 88.5635L365.844 83.173L364.878 82.9142ZM359.608 93.6951L356.973 99.0856L357.939 99.3444L360.574 93.954L359.608 93.6951ZM354.338 104.476L351.703 109.867L352.669 110.125L355.304 104.735L354.338 104.476ZM349.068 115.257L346.434 120.647L347.399 120.906L350.034 115.516L349.068 115.257ZM344.731 126.004L344.609 126.255L344.765 126.297L342.13 131.687L341.164 131.428L343.482 126.685L338.497 125.349L338.936 124.451L344.731 126.004ZM338.529 136.819L335.894 142.209L336.86 142.468L339.495 137.078L338.529 136.819ZM333.259 147.6L330.624 152.99L331.59 153.249L334.225 147.859L333.259 147.6ZM327.989 158.381L325.354 163.771L326.32 164.03L328.955 158.64L327.989 158.381ZM322.719 169.162L320.084 174.552L321.05 174.811L323.685 169.421L322.719 169.162ZM317.449 179.943L314.814 185.333L315.78 185.592L318.415 180.201L317.449 179.943ZM312.179 190.724L309.544 196.114L310.51 196.373L313.145 190.982L312.179 190.724ZM301.64 212.285L299.005 217.676L299.971 217.935L302.606 212.544L301.64 212.285ZM296.37 223.066L293.735 228.457L294.701 228.716L297.336 223.325L296.37 223.066ZM291.1 233.847L288.465 239.238L289.431 239.497L292.066 234.106L291.1 233.847ZM285.83 244.628L284.513 247.323L285.479 247.582L286.796 244.887L285.83 244.628ZM463.857 -23.8353L466.755 -23.0588L466.316 -22.1604L463.418 -22.9369L463.857 -23.8353ZM452.266 -26.9411L458.062 -25.3882L457.622 -24.4898L451.827 -26.0427L452.266 -26.9411ZM440.675 -30.047L446.47 -28.494L446.031 -27.5956L440.236 -29.1486L440.675 -30.047ZM429.084 -33.1528L434.879 -31.5999L434.44 -30.7015L428.645 -32.2544L429.084 -33.1528ZM405.902 -39.3644L411.697 -37.8115L411.258 -36.9131L405.462 -38.466L405.902 -39.3644ZM394.31 -42.4703L400.106 -40.9174L399.667 -40.019L393.871 -41.5719L394.31 -42.4703ZM382.719 -45.5761L388.515 -44.0232L388.076 -43.1248L382.28 -44.6777L382.719 -45.5761ZM371.128 -48.6819L376.924 -47.129L376.485 -46.2306L370.689 -47.7835L371.128 -48.6819ZM359.537 -51.7878L365.333 -50.2349L364.894 -49.3364L359.098 -50.8894L359.537 -51.7878ZM347.946 -54.8936L353.742 -53.3407L353.302 -52.4423L347.507 -53.9952L347.946 -54.8936ZM337.051 -57.8129L342.15 -56.4465L341.711 -55.5481L336.612 -56.9145L334.784 -53.1758L333.818 -53.4346L336.453 -58.8251L337.419 -58.5663L337.051 -57.8129ZM324.764 -61.1053L330.559 -59.5523L330.12 -58.6539L324.325 -60.2068L324.764 -61.1053ZM313.173 -64.2111L318.968 -62.6582L318.529 -61.7598L312.734 -63.3127L313.173 -64.2111ZM301.582 -67.3169L307.377 -65.764L306.938 -64.8656L301.142 -66.4185L301.582 -67.3169ZM289.99 -70.4227L295.786 -68.8698L295.347 -67.9714L289.551 -69.5243L289.99 -70.4227ZM278.399 -73.5286L284.195 -71.9757L283.756 -71.0772L277.96 -72.6302L278.399 -73.5286ZM266.808 -76.6344L272.604 -75.0815L272.165 -74.1831L266.369 -75.736L266.808 -76.6344ZM255.217 -79.7402L261.013 -78.1873L260.574 -77.2889L254.778 -78.8418L255.217 -79.7402ZM243.626 -82.8461L249.422 -81.2931L248.982 -80.3947L243.187 -81.9476L243.626 -82.8461ZM232.035 -85.9519L237.83 -84.399L237.391 -83.5006L231.596 -85.0535L232.035 -85.9519ZM220.444 -89.0577L226.239 -87.5048L225.8 -86.6064L220.005 -88.1593L220.444 -89.0577ZM208.853 -92.1635L214.648 -90.6106L214.209 -89.7122L208.414 -91.2651L208.853 -92.1635ZM197.262 -95.2694L203.057 -93.7165L202.618 -92.8181L196.822 -94.371L197.262 -95.2694ZM185.67 -98.3752L191.466 -96.8223L191.027 -95.9239L185.231 -97.4768L185.67 -98.3752ZM174.079 -101.481L179.875 -99.9281L179.436 -99.0297L173.64 -100.583L174.079 -101.481ZM164.264 -104.111L168.284 -103.034L167.845 -102.136L163.825 -103.213L161.997 -99.4739L161.031 -99.7327L162.859 -103.471L162.049 -103.688L162.488 -104.587L163.298 -104.37L163.666 -105.123L164.632 -104.864L164.264 -104.111ZM150.897 -107.693L156.693 -106.14L156.254 -105.241L150.458 -106.794L150.897 -107.693ZM139.306 -110.799L145.102 -109.246L144.662 -108.347L138.867 -109.9L139.306 -110.799ZM127.715 -113.904L133.51 -112.351L133.071 -111.453L127.276 -113.006L127.715 -113.904ZM119.022 -116.234L121.919 -115.457L121.48 -114.559L118.582 -115.335L119.022 -116.234ZM183.428 -145.552L182.111 -142.856L183.077 -142.598L184.394 -145.293L183.428 -145.552ZM179.476 -137.466L176.841 -132.075L177.807 -131.817L180.442 -137.207L179.476 -137.466ZM174.206 -126.685L171.571 -121.295L172.537 -121.036L175.172 -126.426L174.206 -126.685ZM168.936 -115.904L166.301 -110.514L167.267 -110.255L169.902 -115.645L168.936 -115.904ZM158.397 -94.3422L155.762 -88.9517L156.728 -88.6929L159.362 -94.0834L158.397 -94.3422ZM153.127 -83.5613L150.492 -78.1708L151.458 -77.912L154.093 -83.3025L153.127 -83.5613ZM147.857 -72.7803L145.222 -67.3899L146.188 -67.1311L148.823 -72.5215L147.857 -72.7803ZM142.587 -61.9994L139.952 -56.6089L140.918 -56.3501L143.553 -61.7406L142.587 -61.9994ZM137.317 -51.2185L134.682 -45.828L135.648 -45.5692L138.283 -50.9597L137.317 -51.2185ZM132.047 -40.4376L129.412 -35.0471L130.378 -34.7883L133.013 -40.1787L132.047 -40.4376ZM126.777 -29.6566L124.142 -24.2661L125.108 -24.0073L127.743 -29.3978L126.777 -29.6566ZM121.508 -18.8757L118.873 -13.4852L119.839 -13.2264L122.473 -18.6169L121.508 -18.8757ZM116.238 -8.09474L113.603 -2.70428L114.569 -2.44546L117.204 -7.83592L116.238 -8.09474ZM110.968 2.68619L108.333 8.07666L109.299 8.33548L111.934 2.94501L110.968 2.68619ZM105.698 13.4671L103.063 18.8576L104.029 19.1164L106.664 13.7259L105.698 13.4671ZM100.428 24.248L97.7931 29.6385L98.7591 29.8973L101.394 24.5069L100.428 24.248ZM95.1582 35.029L92.5233 40.4195L93.4892 40.6783L96.1241 35.2878L95.1582 35.029ZM89.8883 45.8099L87.2534 51.2004L88.2193 51.4592L90.8543 46.0687L89.8883 45.8099ZM89.2877 58.574L85.268 57.4969L82.9495 62.2401L81.9835 61.9813L84.3021 57.2381L83.4921 57.0211L83.9313 56.1227L89.7269 57.6756L89.2877 58.574ZM79.3486 67.3718L76.7137 72.7623L77.6796 73.0211L80.3145 67.6306L79.3486 67.3718ZM74.0787 78.1527L71.4438 83.5432L72.4097 83.802L75.0447 78.4115L74.0787 78.1527ZM68.8089 88.9337L66.1739 94.3241L67.1399 94.5829L69.7748 89.1925L68.8089 88.9337ZM63.539 99.7146L60.9041 105.105L61.87 105.364L64.5049 99.9734L63.539 99.7146ZM58.2691 110.496L55.6342 115.886L56.6001 116.145L59.2351 110.754L58.2691 110.496ZM52.9993 121.276L50.3643 126.667L51.3303 126.926L53.9652 121.535L52.9993 121.276ZM42.4595 142.838L39.8246 148.229L40.7905 148.488L43.4255 143.097L42.4595 142.838ZM37.1897 153.619L34.5547 159.01L35.5207 159.269L38.1556 153.878L37.1897 153.619ZM31.9198 164.4L29.2849 169.791L30.2508 170.049L32.8857 164.659L31.9198 164.4ZM26.65 175.181L25.3325 177.876L26.2984 178.135L27.6159 175.44L26.65 175.181ZM385.3 136.874L388.198 137.651L387.759 138.549L384.861 137.773L385.3 136.874ZM373.709 133.768L379.505 135.321L379.065 136.22L373.27 134.667L373.709 133.768ZM362.118 130.663L367.913 132.216L367.474 133.114L361.679 131.561L362.118 130.663ZM350.527 127.557L356.322 129.11L355.883 130.008L350.088 128.455L350.527 127.557ZM327.345 121.345L333.14 122.898L332.701 123.796L326.905 122.244L327.345 121.345ZM315.753 118.239L321.549 119.792L321.11 120.691L315.314 119.138L315.753 118.239ZM304.162 115.133L309.958 116.686L309.519 117.585L303.723 116.032L304.162 115.133ZM292.571 112.028L298.367 113.581L297.928 114.479L292.132 112.926L292.571 112.028ZM280.98 108.922L286.776 110.475L286.337 111.373L280.541 109.82L280.98 108.922ZM269.389 105.816L275.185 107.369L274.745 108.267L268.95 106.714L269.389 105.816ZM257.798 102.71L263.593 104.263L263.154 105.161L258.055 103.795L255.736 108.538L254.77 108.279L257.405 102.889L257.675 102.961L257.798 102.71ZM246.207 99.6043L252.002 101.157L251.563 102.056L245.768 100.503L246.207 99.6043ZM234.616 96.4985L240.411 98.0514L239.972 98.9498L234.177 97.3969L234.616 96.4985ZM223.025 93.3927L228.82 94.9456L228.381 95.844L222.585 94.2911L223.025 93.3927ZM211.433 90.2868L217.229 91.8397L216.79 92.7381L210.994 91.1852L211.433 90.2868ZM199.842 87.181L205.638 88.7339L205.199 89.6323L199.403 88.0794L199.842 87.181ZM188.251 84.0752L194.047 85.6281L193.608 86.5265L187.812 84.9736L188.251 84.0752ZM176.66 80.9693L182.456 82.5223L182.017 83.4207L176.221 81.8677L176.66 80.9693ZM165.069 77.8635L170.865 79.4164L170.425 80.3148L164.63 78.7619L165.069 77.8635ZM153.478 74.7577L159.273 76.3106L158.834 77.209L153.039 75.6561L153.478 74.7577ZM141.887 71.6519L147.682 73.2048L147.243 74.1032L141.448 72.5503L141.887 71.6519ZM130.296 68.546L136.091 70.0989L135.652 70.9973L129.857 69.4444L130.296 68.546ZM118.705 65.4402L124.5 66.9931L124.061 67.8915L118.265 66.3386L118.705 65.4402ZM107.114 62.3344L112.909 63.8873L112.47 64.7857L106.674 63.2328L107.114 62.3344ZM95.5224 59.2285L101.318 60.7814L100.879 61.6799L95.0833 60.1269L95.5224 59.2285ZM72.3402 53.0169L78.1357 54.5698L77.6966 55.4682L71.901 53.9153L72.3402 53.0169ZM60.7491 49.911L66.5446 51.464L66.1055 52.3624L60.3099 50.8095L60.7491 49.911ZM49.158 46.8052L54.9535 48.3581L54.5144 49.2565L48.7188 47.7036L49.158 46.8052ZM40.4646 44.4758L43.3624 45.2523L42.9233 46.1507L40.0255 45.3743L40.4646 44.4758ZM356.215 -99.2536L354.898 -96.5584L355.864 -96.2995L357.181 -98.9948L356.215 -99.2536ZM352.263 -91.1679L349.628 -85.7774L350.594 -85.5186L353.229 -90.9091L352.263 -91.1679ZM346.993 -80.387L344.358 -74.9965L345.324 -74.7377L347.959 -80.1281L346.993 -80.387ZM341.723 -69.606L339.088 -64.2156L340.054 -63.9567L342.689 -69.3472L341.723 -69.606ZM331.183 -48.0441L328.548 -42.6537L329.514 -42.3949L332.149 -47.7853L331.183 -48.0441ZM325.913 -37.2632L323.278 -31.8727L324.244 -31.6139L326.879 -37.0044L325.913 -37.2632ZM320.644 -26.4823L318.009 -21.0918L318.975 -20.833L321.609 -26.2235L320.644 -26.4823ZM315.374 -15.7013L312.739 -10.3109L313.705 -10.0521L316.34 -15.4425L315.374 -15.7013ZM310.104 -4.92041L307.469 0.470053L308.435 0.728872L311.07 -4.66159L310.104 -4.92041ZM304.834 5.86051L302.199 11.251L303.165 11.5098L305.8 6.11933L304.834 5.86051ZM299.564 16.6415L296.929 22.0319L297.895 22.2907L300.53 16.9003L299.564 16.6415ZM294.294 27.4224L291.659 32.8129L292.625 33.0717L295.26 27.6812L294.294 27.4224ZM289.024 38.2033L286.389 43.5938L287.355 43.8526L289.99 38.4621L289.024 38.2033ZM283.755 48.9843L281.12 54.3747L282.086 54.6335L284.72 49.2431L283.755 48.9843ZM278.485 59.7652L275.85 65.1557L276.816 65.4145L279.451 60.024L278.485 59.7652ZM273.215 70.5461L270.58 75.9366L271.546 76.1954L274.181 70.8049L273.215 70.5461ZM267.945 81.3271L265.31 86.7175L266.276 86.9763L268.911 81.5859L267.945 81.3271ZM262.675 92.108L260.04 97.4985L261.006 97.7573L263.641 92.3668L262.675 92.108ZM252.135 113.67L249.5 119.06L250.466 119.319L253.101 113.929L252.135 113.67ZM246.865 124.451L244.231 129.841L245.196 130.1L247.831 124.71L246.865 124.451ZM241.596 135.232L238.961 140.622L239.927 140.881L242.562 135.491L241.596 135.232ZM236.326 146.013L233.691 151.403L234.657 151.662L237.292 146.271L236.326 146.013ZM231.056 156.794L228.421 162.184L229.387 162.443L232.022 157.052L231.056 156.794ZM225.786 167.575L223.151 172.965L224.117 173.224L226.752 167.833L225.786 167.575ZM215.246 189.136L212.611 194.527L213.577 194.786L216.212 189.395L215.246 189.136ZM209.976 199.917L207.341 205.308L208.307 205.567L210.942 200.176L209.976 199.917ZM204.707 210.698L202.072 216.089L203.038 216.348L205.672 210.957L204.707 210.698ZM199.437 221.479L198.119 224.174L199.085 224.433L200.403 221.738L199.437 221.479Z" fill="url(#paint0_radial_261_18994)"/>
<defs>
<radialGradient id="paint0_radial_261_18994" cx="0" cy="0" r="1" gradientUnits="userSpaceOnUse" gradientTransform="translate(233.971 50.8859) rotate(142.666) scale(178.541 150.501)">
<stop stop-color="white"/>
<stop offset="1" stop-color="white" stop-opacity="0"/>
</radialGradient>
</defs>
</svg>
