<svg width="214" height="195" viewBox="0 0 214 195" fill="none" xmlns="http://www.w3.org/2000/svg">
<path fill-rule="evenodd" clip-rule="evenodd" d="M218.744 123.317L219.279 123.637C219.607 122.447 219.92 121.243 220.217 120.026C220.515 118.809 220.795 117.587 221.058 116.361L220.514 116.077L219.971 115.793C219.71 117.007 219.433 118.217 219.138 119.422C218.843 120.627 218.534 121.819 218.209 122.997L218.744 123.317ZM221.89 108.653L222.441 108.901C222.838 106.369 223.165 103.822 223.424 101.263L222.869 101.054L222.314 100.844C222.057 103.378 221.733 105.9 221.34 108.406L221.89 108.653ZM223.444 93.2948L224.003 93.4648C224.128 90.8324 224.183 88.1906 224.171 85.543L223.612 85.4129L223.052 85.2828C223.065 87.9037 223.01 90.5189 222.886 93.1248L223.444 93.2948ZM223.369 77.438L223.927 77.5277C223.777 74.8357 223.559 72.1413 223.274 69.4479L222.719 69.3989L222.164 69.3498C222.447 72.0161 222.663 74.6834 222.811 77.3483L223.369 77.438ZM220.749 53.2056C221.302 55.9067 221.791 58.6163 222.213 61.3306L221.663 61.3224L221.114 61.3142C220.696 58.6271 220.213 55.9447 219.665 53.2706L220.207 53.2381L220.749 53.2056ZM218.356 45.1786L218.889 45.1056C218.203 42.41 217.453 39.7268 216.64 37.0595L216.119 37.1726L215.597 37.2858C216.402 39.9265 217.144 42.583 217.823 45.2517L218.356 45.1786ZM213.504 29.2479L214.013 29.095C213.074 26.456 212.075 23.8368 211.015 21.2413L210.522 21.4331L210.028 21.625C211.077 24.1947 212.067 26.7879 212.996 29.4007L213.504 29.2479ZM207.184 13.7572L207.66 13.527C206.484 10.9825 205.25 8.46536 203.959 5.97942L203.501 6.24713L203.042 6.51484C204.32 8.97605 205.542 11.4681 206.707 13.9874L207.184 13.7572ZM199.487 -1.06913L199.925 -1.37344C198.528 -3.78642 197.077 -6.16466 195.573 -8.50441L195.156 -8.16454L194.739 -7.82465C196.228 -5.50826 197.665 -3.15376 199.049 -0.764816L199.487 -1.06913ZM190.523 -15.0138L190.916 -15.3881C189.318 -17.6348 187.669 -19.8398 185.971 -21.9993L185.603 -21.5918L185.234 -21.1844C186.915 -19.0466 188.547 -16.8637 190.129 -14.6395L190.523 -15.0138ZM180.415 -27.8712L180.757 -28.3103C178.981 -30.3555 177.159 -32.3525 175.293 -34.2978L174.978 -33.8285L174.663 -33.3591C176.511 -31.4334 178.315 -29.4565 180.072 -27.432L180.415 -27.8712ZM169.309 -39.4434L169.596 -39.9412C167.667 -41.7557 165.697 -43.5164 163.686 -45.22L163.43 -44.6956L163.174 -44.1713C165.164 -42.4849 167.115 -40.7419 169.023 -38.9457L169.309 -39.4434ZM157.362 -49.5652L157.588 -50.1142C155.539 -51.6697 153.453 -53.1671 151.331 -54.603L151.136 -54.0316L150.942 -53.4603C153.043 -52.0387 155.108 -50.5563 157.137 -49.0163L157.362 -49.5652ZM144.768 -58.0869L144.931 -58.6784C143.854 -59.3221 142.769 -59.9501 141.676 -60.5623C140.583 -61.1744 139.49 -61.7663 138.396 -62.3382L138.265 -61.7287L138.134 -61.1192C139.217 -60.553 140.3 -59.9669 141.382 -59.3608C142.465 -58.7546 143.539 -58.1327 144.605 -57.4954L144.768 -58.0869ZM131.686 -64.9241L131.784 -65.5495C129.555 -66.5505 127.327 -67.4692 125.103 -68.3067L125.038 -67.6676L124.974 -67.0284C127.176 -66.1994 129.381 -65.2898 131.588 -64.2988L131.686 -64.9241ZM118.338 -69.9484L118.369 -70.5991C116.11 -71.2868 113.857 -71.8912 111.612 -72.4133L111.616 -71.7535L111.619 -71.0938C113.84 -70.5769 116.071 -69.9786 118.307 -69.2978L118.338 -69.9484ZM104.897 -73.0753L104.86 -73.7418C102.607 -74.1041 100.364 -74.3831 98.1368 -74.58L98.2078 -73.9093L98.2788 -73.2386C100.484 -73.0438 102.704 -72.7676 104.935 -72.4089L104.897 -73.0753ZM84.8667 -74.7787C87.0465 -74.9095 89.2465 -74.959 91.4642 -74.9258L91.5687 -74.2534L91.6733 -73.5809C89.4779 -73.6138 87.2999 -73.5648 85.142 -73.4353L85.0043 -74.107L84.8667 -74.7787ZM78.541 -73.4721L78.3709 -74.1406C76.2228 -73.8461 74.0981 -73.4706 71.9997 -73.0152L72.2016 -72.3523L72.4035 -71.6895C74.481 -72.1403 76.5845 -72.5121 78.7112 -72.8036L78.541 -73.4721ZM66.0076 -70.7527L65.7748 -71.4076C63.7259 -70.7918 61.7062 -70.097 59.7187 -69.3244L59.9817 -68.6798L60.2447 -68.0353C62.2124 -68.8002 64.212 -69.4882 66.2405 -70.0978L66.0076 -70.7527ZM54.1458 -66.1417L53.8537 -66.7736C51.9333 -65.8466 50.0479 -64.843 48.2004 -63.7642L48.5206 -63.1474L48.8409 -62.5305C50.67 -63.5985 52.5367 -64.5921 54.4379 -65.5099L54.1458 -66.1417ZM43.1271 -59.7074L42.7799 -60.3071C41.0159 -59.0826 39.2925 -57.7845 37.6123 -56.414L37.9853 -55.8338L38.3583 -55.2535C40.0217 -56.6103 41.7279 -57.8954 43.4743 -59.1077L43.1271 -59.7074ZM33.1138 -51.539L32.7163 -52.0977C31.1343 -50.5924 29.598 -49.0168 28.1101 -47.3721L28.5307 -46.8371L28.9512 -46.3021C30.4242 -47.9303 31.9451 -49.4901 33.5112 -50.9803L33.1138 -51.539ZM24.2553 -41.7462L23.8132 -42.2555C22.4382 -40.4918 21.1135 -38.6615 19.8417 -36.7658L20.3039 -36.2842L20.766 -35.8026C22.025 -37.6792 23.3364 -39.491 24.6975 -41.2369L24.2553 -41.7462ZM16.6898 -30.4688L16.2093 -30.9209C15.061 -28.9234 13.9669 -26.8633 12.9295 -24.7418L13.4265 -24.3208L13.9235 -23.8997C14.9504 -25.9999 16.0336 -28.0392 17.1703 -30.0166L16.6898 -30.4688ZM10.526 -17.8642L10.0143 -18.2527C9.11022 -16.0546 8.26313 -13.7986 7.47555 -11.4857L7.99986 -11.131L8.52416 -10.7763C9.3039 -13.0662 10.1425 -15.2997 11.0376 -17.4758L10.526 -17.8642ZM4.37846 -0.849251C4.67602 -2.06617 4.98879 -3.26977 5.31648 -4.45991L5.85147 -4.14L6.38647 -3.82008C6.062 -2.64166 5.7523 -1.44988 5.45766 -0.244873C5.16301 0.960152 4.88549 2.16995 4.62493 3.38418L4.0812 3.09998L3.53748 2.81579C3.80063 1.58949 4.08091 0.367676 4.37846 -0.849251ZM2.70507 10.5234L2.1545 10.2762C1.75751 12.8078 1.43017 15.3549 1.17105 17.9142L1.72653 18.1234L2.282 18.3325C2.53853 15.7988 2.8626 13.2772 3.25563 10.7707L2.70507 10.5234ZM1.15123 25.8821L0.592851 25.7121C0.467825 28.3445 0.41231 30.9863 0.42482 33.6339L0.984044 33.764L1.54327 33.8941C1.53089 31.2732 1.58584 28.658 1.70961 26.0521L1.15123 25.8821ZM1.22616 41.7389L0.668154 41.6492C0.818192 44.3412 1.03657 47.0356 1.32171 49.729L1.87643 49.7781L2.43113 49.8271C2.14885 47.1608 1.93268 44.4935 1.78415 41.8287L1.22616 41.7389ZM2.93215 57.8545L2.38278 57.8463C2.8048 60.5606 3.29334 63.2702 3.84682 65.9713L4.38885 65.9388L4.93088 65.9063C4.38296 63.2322 3.89931 60.5498 3.48152 57.8627L2.93215 57.8545ZM6.23962 73.9983L5.70689 74.0713C6.39283 76.7669 7.1428 79.4502 7.95517 82.1174L8.47669 82.0043L8.99821 81.8911C8.19393 79.2504 7.45144 76.5939 6.77235 73.9253L6.23962 73.9983ZM11.0914 89.929L10.583 90.0819C11.5214 92.7209 12.521 95.3401 13.5801 97.9356L14.0736 97.7438L14.5671 97.5519C13.5186 94.9822 12.529 92.389 11.5998 89.7762L11.0914 89.929ZM17.412 105.42L16.9351 105.65C18.1116 108.194 19.3458 110.712 20.6363 113.197L21.0948 112.93L21.5532 112.662C20.2756 110.201 19.0536 107.709 17.8889 105.19L17.412 105.42ZM25.1086 120.246L24.6703 120.55C26.0674 122.963 27.5188 125.342 29.0227 127.681L29.4394 127.341L29.8561 127.002C28.3671 124.685 26.9302 122.331 25.547 119.942L25.1086 120.246ZM34.0727 134.191L33.6793 134.565C35.2778 136.812 36.9266 139.017 38.6243 141.176L38.9929 140.769L39.3615 140.361C37.6808 138.223 36.0485 136.041 34.4661 133.816L34.0727 134.191ZM44.1807 147.048L43.8383 147.487C45.614 149.532 47.4361 151.529 49.3029 153.475L49.6177 153.005L49.9326 152.536C48.0846 150.61 46.2809 148.633 44.5231 146.609L44.1807 147.048ZM55.2861 158.62L54.9999 159.118C56.9281 160.933 58.8983 162.693 60.9091 164.397L61.1655 163.873L61.4219 163.348C59.4313 161.662 57.481 159.919 55.5722 158.123L55.2861 158.62ZM67.2331 168.742L67.0073 169.291C69.0561 170.847 71.1424 172.344 73.2649 173.78L73.4595 173.209L73.654 172.637C71.5526 171.216 69.4871 169.733 67.4589 168.193L67.2331 168.742ZM79.8279 177.264L79.665 177.855C80.7414 178.499 81.8263 179.127 82.9193 179.739C84.0123 180.351 85.106 180.943 86.2 181.515L86.3308 180.906L86.4616 180.296C85.3784 179.73 84.2954 179.144 83.2131 178.538C82.1307 177.932 81.0566 177.31 79.9907 176.672L79.8279 177.264ZM92.9094 184.101L92.8114 184.726C95.0402 185.727 97.2681 186.646 99.4924 187.484L99.5571 186.844L99.6218 186.205C97.4198 185.376 95.2142 184.467 93.0075 183.476L92.9094 184.101ZM106.258 189.125L106.227 189.776C108.486 190.464 110.739 191.068 112.983 191.59L112.98 190.93L112.977 190.271C110.755 189.754 108.525 189.156 106.289 188.475L106.258 189.125ZM119.698 192.252L119.735 192.919C121.989 193.281 124.231 193.56 126.459 193.757L126.388 193.086L126.317 192.416C124.112 192.221 121.892 191.944 119.661 191.586L119.698 192.252ZM133.027 193.43L133.131 194.103C135.349 194.136 137.549 194.086 139.729 193.956L139.591 193.284L139.454 192.612C137.296 192.742 135.118 192.791 132.922 192.758L133.027 193.43ZM146.055 192.649L146.225 193.318C148.373 193.023 150.497 192.647 152.596 192.192L152.394 191.529L152.192 190.866C150.115 191.317 148.011 191.689 145.884 191.981L146.055 192.649ZM158.588 189.93L158.821 190.585C160.87 189.969 162.889 189.274 164.877 188.501L164.614 187.857L164.351 187.212C162.383 187.977 160.384 188.665 158.355 189.275L158.588 189.93ZM170.45 185.319L170.742 185.95C172.662 185.023 174.548 184.02 176.395 182.941L176.075 182.324L175.755 181.707C173.926 182.775 172.059 183.769 170.158 184.687L170.45 185.319ZM181.468 178.884L181.816 179.484C183.58 178.26 185.303 176.961 186.983 175.591L186.61 175.011L186.237 174.43C184.574 175.787 182.868 177.072 181.121 178.285L181.468 178.884ZM191.482 170.716L191.879 171.275C193.461 169.769 194.998 168.194 196.485 166.549L196.065 166.014L195.644 165.479C194.171 167.107 192.65 168.667 191.084 170.157L191.482 170.716ZM200.34 160.923L200.782 161.432C202.157 159.669 203.482 157.838 204.754 155.943L204.292 155.461L203.83 154.979C202.571 156.856 201.259 158.668 199.898 160.414L200.34 160.923ZM207.906 149.646L208.386 150.098C209.535 148.1 210.629 146.04 211.666 143.919L211.169 143.498L210.672 143.077C209.645 145.177 208.562 147.216 207.425 149.194L207.906 149.646ZM214.07 137.041L214.581 137.43C215.485 135.232 216.332 132.975 217.12 130.663L216.596 130.308L216.071 129.953C215.292 132.243 214.453 134.477 213.558 136.653L214.07 137.041ZM192.31 108.425L191.776 108.1L191.243 107.775C191.566 106.638 191.872 105.483 192.158 104.312C192.444 103.141 192.709 101.964 192.952 100.782L193.497 101.06L194.042 101.339C193.796 102.537 193.527 103.73 193.237 104.917C192.947 106.103 192.638 107.273 192.31 108.425ZM195.275 94.0083L194.722 93.778L194.169 93.5478C194.493 91.0835 194.73 88.6016 194.881 86.1075L195.439 86.2873L195.997 86.4672C195.843 88.9952 195.603 91.5107 195.275 94.0083ZM196.201 78.755L195.642 78.6269L195.082 78.4988C195.064 75.9303 194.958 73.3545 194.769 70.7771L195.326 70.8526L195.884 70.9281C196.075 73.5406 196.182 76.1515 196.201 78.755ZM195.047 63.0263L194.496 63.0038L193.944 62.9813C193.583 60.3702 193.139 57.7633 192.613 55.1667L193.156 55.1362L193.698 55.1057C194.231 57.7375 194.681 60.3797 195.047 63.0263ZM191.847 47.2135L191.317 47.2966L190.786 47.3797C190.095 44.7903 189.324 42.2173 188.476 39.667L188.991 39.5319L189.505 39.3969C190.365 41.9816 191.146 44.5892 191.847 47.2135ZM186.691 31.7054L186.195 31.8914L185.699 32.0775C184.697 29.5728 183.62 27.0971 182.471 24.6563L182.945 24.4204L183.42 24.1846C184.584 26.6581 185.675 29.1671 186.691 31.7054ZM179.713 16.881L179.263 17.1653L178.814 17.4496C177.526 15.0903 176.17 12.772 174.747 10.5007L175.169 10.1696L175.592 9.83854C177.034 12.1404 178.408 14.49 179.713 16.881ZM171.081 3.10282L170.689 3.47882L170.297 3.8548C168.756 1.69977 167.152 -0.402893 165.488 -2.44724L165.848 -2.86596L166.207 -3.28468C167.894 -1.21257 169.519 0.91861 171.081 3.10282ZM160.998 -9.28463L160.673 -8.82565L160.348 -8.36668C158.592 -10.2624 156.78 -12.0957 154.914 -13.8608L155.201 -14.3572L155.489 -14.8536C157.38 -13.0644 159.217 -11.2062 160.998 -9.28463ZM149.709 -19.9631L149.46 -19.4325L149.211 -18.9018C147.283 -20.4916 145.306 -22.0108 143.283 -23.454L143.492 -24.0155L143.7 -24.577C145.751 -23.1143 147.755 -21.5746 149.709 -19.9631ZM137.497 -28.6741L137.33 -28.0855L137.162 -27.4969C136.131 -28.1252 135.09 -28.7342 134.038 -29.3232C132.986 -29.9123 131.934 -30.476 130.881 -31.0146L131.007 -31.6266L131.133 -32.2386C132.199 -31.6928 133.266 -31.1216 134.332 -30.5247C135.397 -29.9279 136.453 -29.3108 137.497 -28.6741ZM124.662 -35.2391L124.579 -34.6073L124.495 -33.9755C122.339 -34.8734 120.184 -35.6676 118.037 -36.3599L118.077 -37.0079L118.116 -37.6559C120.292 -36.9542 122.476 -36.1492 124.662 -35.2391ZM111.53 -39.4715L111.535 -38.8114L111.54 -38.1512C109.364 -38.6496 107.2 -39.0434 105.051 -39.3347L105.002 -40.0029L104.953 -40.6711C107.131 -40.3759 109.325 -39.9767 111.53 -39.4715ZM98.4176 -41.2487L98.5105 -40.5766L98.6034 -39.9045C96.4609 -39.9919 94.339 -39.9756 92.2423 -39.8578L92.1064 -40.5296L91.9704 -41.2014C94.0954 -41.3208 96.2461 -41.3373 98.4176 -41.2487ZM85.6492 -40.5317L85.8273 -39.8644L86.0054 -39.197C83.9484 -38.8746 81.9216 -38.4509 79.9296 -37.9281L79.7105 -38.5869L79.4915 -39.2457C81.5103 -39.7755 83.5644 -40.2049 85.6492 -40.5317ZM73.5361 -37.3532L73.7946 -36.7069L74.0532 -36.0607C72.1312 -35.3397 70.249 -34.521 68.411 -33.6069L68.1146 -34.2366L67.8182 -34.8664C69.6808 -35.7928 71.5884 -36.6224 73.5361 -37.3532ZM62.3731 -31.8006L62.7056 -31.1912L63.0381 -30.5818C61.2974 -29.4812 59.6055 -28.2875 57.967 -27.0027L57.6004 -27.588L57.2337 -28.1733C58.8943 -29.4754 60.609 -30.6852 62.3731 -31.8006ZM52.4336 -24.0062L52.8323 -23.4486L53.2309 -22.8911C51.715 -21.4378 50.2563 -19.8968 48.8594 -18.27L48.4311 -18.7962L48.0028 -19.3225C49.4187 -20.9713 50.8972 -22.5332 52.4336 -24.0062ZM43.9689 -14.1481C42.6998 -12.3537 41.4958 -10.4768 40.3616 -8.5191L40.8412 -8.06544L41.3208 -7.61176C42.4398 -9.54311 43.6276 -11.3949 44.8797 -13.1651L44.4243 -13.6566L43.9689 -14.1481ZM37.1991 -2.46384L37.6999 -2.0508L38.2008 -1.63778C37.243 0.404915 36.3552 2.52213 35.5413 4.71212L35.0224 4.34207L34.5036 3.97204C35.3285 1.75249 36.2284 -0.393394 37.1991 -2.46384ZM32.2861 10.7514C31.9579 11.9039 31.6485 13.0735 31.3583 14.26C31.0682 15.4465 30.8 16.6392 30.5534 17.8375L31.0983 18.1162L31.6432 18.395C31.8865 17.2125 32.1512 16.0354 32.4375 14.8644C32.7239 13.6934 33.0292 12.5391 33.3531 11.4017L32.8196 11.0766L32.2861 10.7514ZM29.3208 25.1684L29.8738 25.3986L30.4269 25.6289C30.1027 28.0931 29.866 30.575 29.7145 33.0692L29.1566 32.8893L28.5988 32.7095C28.7524 30.1814 28.9923 27.6659 29.3208 25.1684ZM28.3949 40.4216L28.9541 40.5497L29.5133 40.6778C29.5321 43.2463 29.6372 45.8221 29.8263 48.3995L29.2692 48.324L28.7121 48.2485C28.5205 45.636 28.4139 43.0251 28.3949 40.4216ZM29.5486 56.1504L30.1001 56.1729L30.6516 56.1953C31.0123 58.8065 31.4568 61.4133 31.9825 64.0099L31.44 64.0405L30.8976 64.0709C30.3648 61.4392 29.9143 58.797 29.5486 56.1504ZM32.749 71.9631L33.2791 71.88L33.8092 71.7969C34.5004 74.3864 35.2713 76.9593 36.1193 79.5097L35.6048 79.6447L35.0902 79.7798C34.2308 77.1951 33.4495 74.5875 32.749 71.9631ZM37.905 87.4713L38.4009 87.2852L38.8968 87.0992C39.8988 89.6038 40.9755 92.0796 42.1244 94.5203L41.6502 94.7562L41.1759 94.9921C40.0117 92.5185 38.9205 90.0095 37.905 87.4713ZM44.8827 102.296L45.3324 102.011L45.782 101.727C47.0693 104.086 48.4257 106.405 49.8485 108.676L49.4262 109.007L49.004 109.338C47.562 107.036 46.1873 104.687 44.8827 102.296ZM53.5145 116.074L53.9067 115.698L54.2988 115.322C55.8398 117.477 57.4435 119.58 59.1075 121.624L58.7479 122.043L58.3883 122.461C56.7018 120.389 55.0763 118.258 53.5145 116.074ZM63.5979 128.461C65.3782 130.383 67.2153 132.241 69.1068 134.03L69.3944 133.534L69.682 133.037C67.816 131.272 66.0036 129.439 64.2472 127.543L63.9226 128.002L63.5979 128.461ZM74.887 139.14L75.1358 138.609L75.3847 138.078C77.3124 139.668 79.2893 141.187 81.3128 142.631L81.1041 143.192L80.8955 143.754C78.8446 142.291 76.841 140.751 74.887 139.14ZM87.0983 147.851L87.2659 147.262L87.4336 146.674C88.4645 147.302 89.5059 147.911 90.5577 148.5C91.6096 149.089 92.6621 149.653 93.7149 150.191L93.589 150.803L93.463 151.415C92.3962 150.869 91.3297 150.298 90.264 149.701C89.1982 149.105 88.1429 148.487 87.0983 147.851ZM99.934 154.416L100.017 153.784L100.1 153.152C102.257 154.05 104.411 154.844 106.558 155.537L106.519 156.185L106.48 156.833C104.303 156.131 102.12 155.326 99.934 154.416ZM113.065 158.648L113.06 157.988L113.056 157.328C115.231 157.826 117.396 158.22 119.545 158.511L119.594 159.18L119.643 159.848C117.465 159.553 115.271 159.153 113.065 158.648ZM126.178 160.425L126.085 159.753L125.992 159.081C128.135 159.169 130.257 159.152 132.353 159.034L132.489 159.706L132.625 160.378C130.5 160.497 128.35 160.514 126.178 160.425ZM138.946 159.708L138.768 159.041L138.59 158.374C140.647 158.051 142.674 157.628 144.666 157.105L144.885 157.764L145.104 158.422C143.085 158.952 141.031 159.382 138.946 159.708ZM151.06 156.53L150.801 155.884L150.542 155.237C152.464 154.516 154.347 153.698 156.185 152.783L156.481 153.413L156.777 154.043C154.915 154.969 153.007 155.799 151.06 156.53ZM162.223 150.977L161.89 150.368L161.557 149.758C163.298 148.658 164.99 147.464 166.629 146.179L166.995 146.765L167.362 147.35C165.701 148.652 163.987 149.862 162.223 150.977ZM172.162 143.183L171.763 142.625L171.365 142.068C172.881 140.614 174.339 139.073 175.736 137.447L176.165 137.973L176.593 138.499C175.177 140.148 173.698 141.71 172.162 143.183ZM180.627 133.325L180.171 132.833L179.716 132.342C180.968 130.572 182.156 128.72 183.275 126.788L183.754 127.242L184.234 127.696C183.1 129.653 181.896 131.53 180.627 133.325ZM187.397 121.64L186.896 121.227L186.395 120.814C187.353 118.772 188.24 116.655 189.054 114.465L189.573 114.835L190.092 115.205C189.267 117.424 188.367 119.57 187.397 121.64ZM165.35 93.1306C165.678 92.046 165.981 90.938 166.257 89.807C166.534 88.676 166.781 87.5366 166.998 86.39L166.451 86.1214L165.904 85.8529C165.691 86.9768 165.449 88.0938 165.178 89.2027C164.907 90.3115 164.61 91.3977 164.288 92.4608L164.819 92.7957L165.35 93.1306ZM163.041 99.4525L162.534 99.0546L162.026 98.6566C161.159 100.66 160.193 102.562 159.137 104.358L159.615 104.814L160.093 105.271C161.171 103.438 162.156 101.497 163.041 99.4525ZM156.54 110.51L156.098 110.001L155.656 109.492C154.395 111.108 153.049 112.611 151.625 113.995L152.026 114.55L152.427 115.106C153.88 113.693 155.254 112.16 156.54 110.51ZM147.808 119.002L147.453 118.408L147.099 117.813C145.512 118.968 143.854 119.998 142.136 120.901L142.44 121.526L142.745 122.152C144.498 121.232 146.189 120.18 147.808 119.002ZM137.301 124.52L137.05 123.871L136.8 123.221C134.969 123.863 133.085 124.373 131.158 124.746L131.351 125.411L131.544 126.075C133.51 125.694 135.432 125.175 137.301 124.52ZM125.545 126.797L125.412 126.125L125.279 125.453C123.295 125.551 121.278 125.511 119.236 125.331L119.307 126.002L119.378 126.672C121.462 126.857 123.52 126.897 125.545 126.797ZM113.123 125.699L113.115 125.038L113.107 124.377C111.073 123.925 109.024 123.335 106.967 122.603L106.912 123.245L106.857 123.888C108.956 124.635 111.047 125.237 113.123 125.699ZM100.658 121.266L100.775 120.649L100.892 120.033C99.8952 119.543 98.8983 119.02 97.9023 118.462C96.9063 117.904 95.9244 117.32 94.9569 116.709L94.7805 117.292L94.604 117.875C95.591 118.498 96.5926 119.095 97.6085 119.664C98.6244 120.232 99.6413 120.766 100.658 121.266ZM88.7709 113.759L89.0055 113.217L89.2401 112.675C87.3639 111.204 85.5543 109.633 83.8158 107.973L83.5254 108.467L83.2351 108.961C85.0094 110.655 86.8562 112.258 88.7709 113.759ZM78.068 103.538L78.4104 103.098L78.7528 102.659C77.1252 100.785 75.577 98.8276 74.1132 96.7994L73.7232 97.1785L73.3333 97.5576C74.8271 99.6274 76.407 101.625 78.068 103.538ZM69.0897 91.0995L69.5221 90.785L69.9544 90.4704C68.6524 88.2887 67.4416 86.0461 66.3271 83.7545L65.8579 84.0009L65.3887 84.2473C66.5258 86.5853 67.7612 88.8734 69.0897 91.0995ZM62.2744 77.0866L62.7745 76.9114L63.2747 76.7362C62.3584 74.3584 61.5436 71.9436 60.8356 69.5035L60.3107 69.6052L59.7857 69.707C60.5082 72.1967 61.3395 74.6606 62.2744 77.0866ZM57.9554 62.1994L58.4986 62.1727L59.0418 62.1459C58.5564 59.6921 58.1805 57.2252 57.9191 54.7565L57.3644 54.7075L56.8097 54.6585C57.0764 57.1779 57.46 59.6954 57.9554 62.1994ZM56.3661 47.1809L56.9252 47.3053L57.4844 47.4297C57.4554 45.0259 57.5403 42.6311 57.7438 40.2558L57.1873 40.0578L56.6308 39.8598C56.4231 42.2837 56.3364 44.7277 56.3661 47.1809ZM57.5975 32.7864C57.8148 31.6398 58.0615 30.5003 58.3381 29.3693C58.6146 28.2383 58.9175 27.1303 59.2457 26.0458L59.7763 26.3807L60.307 26.7156C59.9853 27.7787 59.6884 28.8648 59.4173 29.9737C59.1461 31.0826 58.9043 32.1996 58.6913 33.3235L58.1444 33.0549L57.5975 32.7864ZM61.5543 19.7239L62.0619 20.1218L62.5695 20.5197C63.4367 18.5162 64.4023 16.6146 65.4583 14.8184L64.9803 14.3619L64.5024 13.9055C63.4246 15.7386 62.4392 17.6793 61.5543 19.7239ZM68.0554 8.66622L68.4976 9.17548L68.9398 9.68475C70.2 8.06821 71.5465 6.56581 72.9704 5.18134L72.5696 4.62592L72.1687 4.07051C70.7156 5.48328 69.3416 7.01648 68.0554 8.66622ZM76.7874 0.1745L77.1421 0.76886L77.4968 1.36321C79.0838 0.208466 80.741 -0.822021 82.4593 -1.72433L82.155 -2.35004L81.8507 -2.97576C80.0975 -2.05516 78.4067 -1.00375 76.7874 0.1745ZM87.2948 -5.3435L87.545 -4.69425L87.7952 -4.045C89.6269 -4.68665 91.5107 -5.19617 93.4375 -5.56966L93.2446 -6.23439L93.0517 -6.89912C91.0857 -6.51804 89.1637 -5.99817 87.2948 -5.3435ZM99.0509 -7.62099L99.1838 -6.94904L99.3168 -6.2771C101.3 -6.37466 103.317 -6.3351 105.359 -6.15467L105.288 -6.82536L105.217 -7.49605C103.134 -7.68018 101.075 -7.72054 99.0509 -7.62099ZM111.472 -6.52254L111.48 -5.86166L111.488 -5.20078C113.522 -4.74846 115.572 -4.15813 117.628 -3.42626L117.684 -4.06892L117.739 -4.71158C115.64 -5.45844 113.548 -6.06091 111.472 -6.52254ZM123.937 -2.08955L123.82 -1.47303L123.703 -0.856506C124.7 -0.366928 125.697 0.156548 126.693 0.714325C127.689 1.2721 128.671 1.85686 129.639 2.46738L129.815 1.88423L129.991 1.30108C129.005 0.67823 128.003 0.0817337 126.987 -0.487183C125.971 -1.0561 124.954 -1.59009 123.937 -2.08955ZM135.825 5.4171L135.59 5.9592L135.355 6.5013C137.232 7.97202 139.041 9.54288 140.78 11.2032L141.07 10.7094L141.36 10.2156C139.586 8.52106 137.739 6.91795 135.825 5.4171ZM146.527 15.6388L146.185 16.078L145.843 16.5171C147.47 18.3916 149.018 20.3487 150.482 22.377L150.872 21.9979L151.262 21.6187C149.768 19.549 148.188 17.5518 146.527 15.6388ZM155.506 28.0768L155.073 28.3914L154.641 28.706C155.943 30.8877 157.154 33.1303 158.268 35.4219L158.738 35.1755L159.207 34.9291C158.07 32.5911 156.834 30.3029 155.506 28.0768ZM162.321 42.0898L161.821 42.265L161.321 42.4402C162.237 44.818 163.052 47.2328 163.76 49.6729L164.285 49.5711L164.81 49.4694C164.087 46.9797 163.256 44.5158 162.321 42.0898ZM166.64 56.977L166.097 57.0037L165.554 57.0304C166.039 59.4842 166.415 61.9512 166.676 64.4199L167.231 64.4689L167.786 64.5179C167.519 61.9985 167.135 59.481 166.64 56.977ZM168.229 71.9954L167.67 71.871L167.111 71.7467C167.14 74.1505 167.055 76.5453 166.852 78.9205L167.408 79.1186L167.965 79.3166C168.172 76.8927 168.259 74.4487 168.229 71.9954Z" fill="url(#paint0_linear_261_19024)"/>
<defs>
<linearGradient id="paint0_linear_261_19024" x1="205.5" y1="-4.49973" x2="56" y2="159.5" gradientUnits="userSpaceOnUse">
<stop stop-color="white"/>
<stop offset="1" stop-color="white" stop-opacity="0"/>
</linearGradient>
</defs>
</svg>
