<svg width="421" height="242" viewBox="0 0 421 242" fill="none" xmlns="http://www.w3.org/2000/svg">
<path fill-rule="evenodd" clip-rule="evenodd" d="M269.766 218.59L268.448 215.894L269.414 215.636L270.732 218.331L269.766 218.59ZM265.814 210.504L263.179 205.113L264.145 204.855L266.779 210.245L265.814 210.504ZM260.544 199.723L257.909 194.333L258.875 194.074L261.51 199.464L260.544 199.723ZM255.274 188.942L252.639 183.552L253.605 183.293L256.24 188.683L255.274 188.942ZM250.004 178.161L247.369 172.771L248.335 172.512L250.97 177.902L250.004 178.161ZM244.734 167.38L242.099 161.99L243.065 161.731L245.7 167.121L244.734 167.38ZM239.464 156.599L236.829 151.209L237.795 150.95L240.43 156.34L239.464 156.599ZM234.194 145.818L231.559 140.428L232.525 140.169L235.16 145.56L234.194 145.818ZM228.924 135.037L226.29 129.647L227.255 129.388L229.89 134.779L228.924 135.037ZM223.655 124.256L221.02 118.866L221.986 118.607L224.621 123.998L223.655 124.256ZM218.385 113.476L215.75 108.085L216.716 107.826L219.351 113.217L218.385 113.476ZM213.115 102.695L210.48 97.3041L211.446 97.0453L214.081 102.436L213.115 102.695ZM207.845 91.9137L205.21 86.5232L206.176 86.2644L208.811 91.6548L207.845 91.9137ZM202.575 81.1327L199.94 75.7423L200.906 75.4834L203.541 80.8739L202.575 81.1327ZM197.305 70.3518L194.67 64.9613L195.636 64.7025L198.271 70.093L197.305 70.3518ZM192.035 59.5709L189.4 54.1804L190.366 53.9216L193.001 59.312L192.035 59.5709ZM186.766 48.7899L184.131 43.3995L185.097 43.1406L187.731 48.5311L186.766 48.7899ZM181.496 38.009L178.861 32.6185L179.827 32.3597L182.462 37.7502L181.496 38.009ZM176.226 27.2281L173.591 21.8376L174.557 21.5788L177.192 26.9692L176.226 27.2281ZM170.956 16.4471L168.321 11.0567L169.287 10.7978L171.922 16.1883L170.956 16.4471ZM165.686 5.66617L163.051 0.275719L164.017 0.0168998L166.652 5.40735L165.686 5.66617ZM160.416 -5.11475L157.781 -10.5052L158.747 -10.764L161.382 -5.37357L160.416 -5.11475ZM155.146 -15.8957L152.511 -21.2861L153.477 -21.545L156.112 -16.1545L155.146 -15.8957ZM149.876 -26.6766L147.242 -32.0671L148.207 -32.3259L150.842 -26.9354L149.876 -26.6766ZM144.607 -37.4575L141.972 -42.848L142.938 -43.1068L145.573 -37.7164L144.607 -37.4575ZM139.337 -48.2385L136.702 -53.629L137.668 -53.8878L140.303 -48.4973L139.337 -48.2385ZM134.067 -59.0194L131.432 -64.4099L132.398 -64.6687L135.033 -59.2782L134.067 -59.0194ZM128.797 -69.8004L126.162 -75.1908L127.128 -75.4496L129.763 -70.0592L128.797 -69.8004ZM123.527 -80.5813L120.892 -85.9718L121.858 -86.2306L124.493 -80.8401L123.527 -80.5813ZM118.257 -91.3622L115.622 -96.7527L116.588 -97.0115L119.223 -91.621L118.257 -91.3622ZM112.987 -102.143L111.67 -104.838L112.636 -105.097L113.953 -102.402L112.987 -102.143ZM427.421 38.8911L424.523 39.6675L424.084 38.7691L426.981 37.9927L427.421 38.8911ZM418.727 41.2204L412.932 42.7733L412.492 41.8749L418.288 40.322L418.727 41.2204ZM407.136 44.3263L401.341 45.8792L400.901 44.9808L406.697 43.4279L407.136 44.3263ZM395.545 47.4321L389.749 48.985L389.31 48.0866L395.106 46.5337L395.545 47.4321ZM383.954 50.5379L378.158 52.0908L377.719 51.1924L383.515 49.6395L383.954 50.5379ZM372.363 53.6437L366.567 55.1967L366.128 54.2983L371.924 52.7453L372.363 53.6437ZM360.772 56.7496L354.976 58.3025L354.537 57.4041L360.332 55.8512L360.772 56.7496ZM349.181 59.8554L343.385 61.4083L342.946 60.5099L348.741 58.957L349.181 59.8554ZM337.589 62.9612L331.794 64.5142L331.355 63.6157L337.15 62.0628L337.589 62.9612ZM325.998 66.0671L320.203 67.62L319.764 66.7216L325.559 65.1687L325.998 66.0671ZM314.407 69.1729L308.612 70.7258L308.172 69.8274L313.968 68.2745L314.407 69.1729ZM302.816 72.2787L297.021 73.8316L296.581 72.9332L302.377 71.3803L302.816 72.2787ZM291.225 75.3846L285.429 76.9375L284.99 76.0391L290.786 74.4861L291.225 75.3846ZM279.634 78.4904L273.838 80.0433L273.399 79.1449L279.195 77.592L279.634 78.4904ZM268.043 81.5962L262.247 83.1491L261.808 82.2507L267.604 80.6978L268.043 81.5962ZM256.452 84.702L250.656 86.255L250.217 85.3565L256.013 83.8036L256.452 84.702ZM244.861 87.8079L239.065 89.3608L238.626 88.4624L244.421 86.9095L244.861 87.8079ZM233.269 90.9137L227.474 92.4666L227.035 91.5682L232.83 90.0153L233.269 90.9137ZM221.678 94.0195L215.883 95.5724L215.444 94.674L221.239 93.1211L221.678 94.0195ZM210.087 97.1254L204.292 98.6783L203.853 97.7799L209.648 96.2269L210.087 97.1254ZM198.496 100.231L192.701 101.784L192.261 100.886L198.057 99.3328L198.496 100.231ZM186.905 103.337L181.109 104.89L180.67 103.992L186.466 102.439L186.905 103.337ZM175.314 106.443L169.518 107.996L169.079 107.097L174.875 105.544L175.314 106.443ZM163.723 109.549L157.927 111.102L157.488 110.203L163.284 108.65L163.723 109.549ZM152.132 112.655L146.336 114.207L145.897 113.309L151.693 111.756L152.132 112.655ZM140.541 115.76L134.745 117.313L134.306 116.415L140.101 114.862L140.541 115.76ZM128.949 118.866L123.154 120.419L122.715 119.521L128.51 117.968L128.949 118.866ZM117.358 121.972L111.563 123.525L111.124 122.627L116.919 121.074L117.358 121.972ZM105.767 125.078L99.9717 126.631L99.5325 125.732L105.328 124.179L105.767 125.078ZM94.1761 128.184L88.3806 129.737L87.9414 128.838L93.737 127.285L94.1761 128.184ZM82.585 131.289L79.6872 132.066L79.2481 131.168L82.1459 130.391L82.585 131.289ZM345.966 -121.042L348.864 -121.819L348.424 -122.717L345.527 -121.94L345.966 -121.042ZM334.375 -117.936L340.17 -119.489L339.731 -120.388L333.935 -118.835L334.375 -117.936ZM322.784 -114.83L328.579 -116.383L328.14 -117.282L322.344 -115.729L322.784 -114.83ZM311.192 -111.725L316.988 -113.277L316.549 -114.176L310.753 -112.623L311.192 -111.725ZM305.029 -110.925L305.185 -110.967L307.82 -105.576L306.854 -105.317L304.587 -109.955L299.601 -108.619L299.162 -109.517L304.958 -111.07L305.029 -110.925ZM288.01 -105.513L293.806 -107.066L293.367 -107.964L287.571 -106.411L288.01 -105.513ZM276.419 -102.407L282.215 -103.96L281.776 -104.858L275.98 -103.305L276.419 -102.407ZM264.828 -99.3013L270.624 -100.854L270.184 -101.753L264.389 -100.2L264.828 -99.3013ZM253.237 -96.1954L259.032 -97.7483L258.593 -98.6468L252.798 -97.0938L253.237 -96.1954ZM241.646 -93.0896L247.441 -94.6425L247.002 -95.5409L241.207 -93.988L241.646 -93.0896ZM230.055 -89.9838L235.85 -91.5367L235.411 -92.4351L229.616 -90.8822L230.055 -89.9838ZM219.159 -87.0644L224.259 -88.4309L223.82 -89.3293L218.024 -87.7764L218.095 -87.6313L217.825 -87.5589L220.46 -82.1684L221.426 -82.4273L219.159 -87.0644ZM206.872 -83.7721L212.668 -85.325L212.229 -86.2234L206.433 -84.6705L206.872 -83.7721ZM195.281 -80.6663L201.077 -82.2192L200.638 -83.1176L194.842 -81.5647L195.281 -80.6663ZM183.69 -77.5605L189.486 -79.1134L189.047 -80.0118L183.251 -78.4589L183.69 -77.5605ZM172.099 -74.4546L177.895 -76.0075L177.456 -76.9059L171.66 -75.353L172.099 -74.4546ZM160.508 -71.3488L166.304 -72.9017L165.864 -73.8001L160.069 -72.2472L160.508 -71.3488ZM148.917 -68.2429L154.712 -69.7959L154.273 -70.6943L148.478 -69.1414L148.917 -68.2429ZM137.326 -65.1371L143.121 -66.69L142.682 -67.5884L136.887 -66.0355L137.326 -65.1371ZM125.735 -62.0313L131.53 -63.5842L131.091 -64.4826L125.296 -62.9297L125.735 -62.0313ZM114.144 -58.9255L119.939 -60.4784L119.5 -61.3768L113.704 -59.8239L114.144 -58.9255ZM102.552 -55.8196L108.348 -57.3725L107.909 -58.271L102.113 -56.718L102.552 -55.8196ZM90.9614 -52.7138L96.7569 -54.2667L96.3178 -55.1651L90.5222 -53.6122L90.9614 -52.7138ZM79.3703 -49.608L85.1658 -51.1609L84.7267 -52.0593L78.9311 -50.5064L79.3703 -49.608ZM67.7791 -46.5021L73.5747 -48.0551L73.1355 -48.9535L67.34 -47.4006L67.7791 -46.5021ZM56.188 -43.3963L61.9836 -44.9492L61.5444 -45.8476L55.7489 -44.2947L56.188 -43.3963ZM46.3728 -40.7663L50.3925 -41.8434L49.9533 -42.7418L44.1578 -41.1889L44.5969 -40.2905L45.4068 -40.5075L47.6735 -35.8704L48.6395 -36.1292L46.3728 -40.7663ZM33.0058 -37.1847L38.8014 -38.7376L38.3622 -39.636L32.5667 -38.0831L33.0058 -37.1847ZM21.4147 -34.0788L27.2103 -35.6317L26.7711 -36.5302L20.9755 -34.9772L21.4147 -34.0788ZM9.82359 -30.973L15.6191 -32.5259L15.18 -33.4243L9.38444 -31.8714L9.82359 -30.973ZM1.13026 -28.6436L4.02804 -29.4201L3.58888 -30.3185L0.691105 -29.542L1.13026 -28.6436ZM442.553 172.292L441.235 169.596L442.201 169.338L443.519 172.033L442.553 172.292ZM438.6 164.206L435.965 158.815L436.931 158.557L439.566 163.947L438.6 164.206ZM433.33 153.425L430.695 148.034L431.661 147.776L434.296 153.166L433.33 153.425ZM428.061 142.644L425.426 137.254L426.392 136.995L429.026 142.385L428.061 142.644ZM422.791 131.863L422.422 131.11L417.437 132.446L416.998 131.547L421.983 130.211L420.156 126.473L421.122 126.214L423.757 131.604L422.791 131.863ZM417.521 121.082L414.886 115.692L415.852 115.433L418.487 120.823L417.521 121.082ZM412.251 110.301L409.616 104.911L410.582 104.652L413.217 110.042L412.251 110.301ZM406.981 99.5203L404.346 94.1298L405.312 93.871L407.947 99.2614L406.981 99.5203ZM401.711 88.7393L399.076 83.3489L400.042 83.09L402.677 88.4805L401.711 88.7393ZM396.441 77.9584L393.806 72.5679L394.772 72.3091L397.407 77.6996L396.441 77.9584ZM391.171 67.1775L388.537 61.787L389.502 61.5282L392.137 66.9186L391.171 67.1775ZM385.902 56.3965L383.267 51.0061L384.233 50.7472L386.868 56.1377L385.902 56.3965ZM380.632 45.6156L377.997 40.2251L378.963 39.9663L381.598 45.3568L380.632 45.6156ZM375.362 34.8347L372.727 29.4442L373.693 29.1854L376.328 34.5758L375.362 34.8347ZM370.092 24.0537L367.457 18.6633L368.423 18.4044L371.058 23.7949L370.092 24.0537ZM364.822 13.2728L362.187 7.88232L363.153 7.6235L365.788 13.014L364.822 13.2728ZM359.552 2.49187L356.917 -2.89861L357.883 -3.15743L360.518 2.23305L359.552 2.49187ZM354.282 -8.28908L351.647 -13.6795L352.613 -13.9384L355.248 -8.5479L354.282 -8.28908ZM349.013 -19.07L346.378 -24.4605L347.344 -24.7193L349.978 -19.3288L349.013 -19.07ZM344.675 -29.8169L344.553 -30.068L344.709 -30.1098L342.074 -35.5002L341.108 -35.2414L343.426 -30.4982L338.441 -29.1624L338.88 -28.2639L344.675 -29.8169ZM338.473 -40.6319L335.838 -46.0224L336.804 -46.2812L339.439 -40.8907L338.473 -40.6319ZM333.203 -51.4128L330.568 -56.8033L331.534 -57.0621L334.169 -51.6716L333.203 -51.4128ZM327.933 -62.1938L325.298 -67.5842L326.264 -67.843L328.899 -62.4526L327.933 -62.1938ZM322.663 -72.9747L320.028 -78.3652L320.994 -78.624L323.629 -73.2335L322.663 -72.9747ZM317.393 -83.7556L314.758 -89.1461L315.724 -89.4049L318.359 -84.0144L317.393 -83.7556ZM312.124 -94.5366L309.489 -99.927L310.455 -100.186L313.089 -94.7954L312.124 -94.5366ZM301.584 -116.098L298.949 -121.489L299.915 -121.748L302.55 -116.357L301.584 -116.098ZM296.314 -126.879L293.679 -132.27L294.645 -132.529L297.28 -127.138L296.314 -126.879ZM291.044 -137.66L288.409 -143.051L289.375 -143.31L292.01 -137.919L291.044 -137.66ZM285.774 -148.441L284.457 -151.136L285.423 -151.395L286.74 -148.7L285.774 -148.441ZM463.801 120.022L466.699 119.246L466.26 118.347L463.362 119.124L463.801 120.022ZM452.21 123.128L458.006 121.575L457.567 120.677L451.771 122.23L452.21 123.128ZM440.619 126.234L446.415 124.681L445.975 123.783L440.18 125.336L440.619 126.234ZM429.028 129.34L434.823 127.787L434.384 126.888L428.589 128.441L429.028 129.34ZM405.846 135.551L411.641 133.999L411.202 133.1L405.407 134.653L405.846 135.551ZM394.255 138.657L400.05 137.104L399.611 136.206L393.815 137.759L394.255 138.657ZM382.663 141.763L388.459 140.21L388.02 139.312L382.224 140.865L382.663 141.763ZM371.072 144.869L376.868 143.316L376.429 142.418L370.633 143.971L371.072 144.869ZM359.481 147.975L365.277 146.422L364.838 145.523L359.042 147.076L359.481 147.975ZM347.89 151.081L353.686 149.528L353.247 148.629L347.451 150.182L347.89 151.081ZM336.995 154L342.095 152.634L341.655 151.735L336.556 153.102L334.728 149.363L333.762 149.622L336.397 155.012L337.363 154.753L336.995 154ZM324.708 157.292L330.503 155.739L330.064 154.841L324.269 156.394L324.708 157.292ZM313.117 160.398L318.912 158.845L318.473 157.947L312.678 159.5L313.117 160.398ZM301.526 163.504L307.321 161.951L306.882 161.053L301.087 162.606L301.526 163.504ZM289.935 166.61L295.73 165.057L295.291 164.158L289.495 165.711L289.935 166.61ZM278.343 169.716L284.139 168.163L283.7 167.264L277.904 168.817L278.343 169.716ZM266.752 172.821L272.548 171.269L272.109 170.37L266.313 171.923L266.752 172.821ZM255.161 175.927L260.957 174.374L260.518 173.476L254.722 175.029L255.161 175.927ZM243.57 179.033L249.366 177.48L248.927 176.582L243.131 178.135L243.57 179.033ZM231.979 182.139L237.775 180.586L237.335 179.688L231.54 181.24L231.979 182.139ZM220.388 185.245L226.183 183.692L225.744 182.793L219.949 184.346L220.388 185.245ZM208.797 188.351L214.592 186.798L214.153 185.899L208.358 187.452L208.797 188.351ZM197.206 191.456L203.001 189.903L202.562 189.005L196.767 190.558L197.206 191.456ZM185.615 194.562L191.41 193.009L190.971 192.111L185.175 193.664L185.615 194.562ZM174.024 197.668L179.819 196.115L179.38 195.217L173.584 196.77L174.024 197.668ZM164.208 200.298L168.228 199.221L167.789 198.323L163.769 199.4L161.942 195.661L160.976 195.92L162.803 199.658L161.993 199.875L162.432 200.774L163.242 200.557L163.611 201.31L164.576 201.051L164.208 200.298ZM150.841 203.88L156.637 202.327L156.198 201.428L150.402 202.981L150.841 203.88ZM139.25 206.986L145.046 205.433L144.607 204.534L138.811 206.087L139.25 206.986ZM127.659 210.091L133.455 208.538L133.015 207.64L127.22 209.193L127.659 210.091ZM118.966 212.421L121.864 211.644L121.424 210.746L118.527 211.522L118.966 212.421ZM183.373 241.739L182.055 239.043L183.021 238.785L184.338 241.48L183.373 241.739ZM179.42 233.653L176.785 228.262L177.751 228.004L180.386 233.394L179.42 233.653ZM174.15 222.872L171.515 217.482L172.481 217.223L175.116 222.613L174.15 222.872ZM168.88 212.091L166.245 206.701L167.211 206.442L169.846 211.832L168.88 212.091ZM158.341 190.529L155.706 185.139L156.672 184.88L159.307 190.27L158.341 190.529ZM153.071 179.748L150.436 174.358L151.402 174.099L154.037 179.489L153.071 179.748ZM147.801 168.967L145.166 163.577L146.132 163.318L148.767 168.709L147.801 168.967ZM142.531 158.186L139.896 152.796L140.862 152.537L143.497 157.928L142.531 158.186ZM137.261 147.405L134.626 142.015L135.592 141.756L138.227 147.147L137.261 147.405ZM131.991 136.625L129.356 131.234L130.322 130.975L132.957 136.366L131.991 136.625ZM126.722 125.844L124.087 120.453L125.052 120.194L127.687 125.585L126.722 125.844ZM121.452 115.063L118.817 109.672L119.783 109.413L122.418 114.804L121.452 115.063ZM116.182 104.282L113.547 98.8913L114.513 98.6325L117.148 104.023L116.182 104.282ZM110.912 93.5008L108.277 88.1104L109.243 87.8515L111.878 93.242L110.912 93.5008ZM105.642 82.7199L103.007 77.3294L103.973 77.0706L106.608 82.4611L105.642 82.7199ZM100.372 71.939L97.7372 66.5485L98.7032 66.2897L101.338 71.6801L100.372 71.939ZM95.1023 61.158L92.4674 55.7676L93.4333 55.5087L96.0682 60.8992L95.1023 61.158ZM89.8325 50.3771L87.1975 44.9866L88.1634 44.7278L90.7984 50.1183L89.8325 50.3771ZM89.2318 37.613L85.2121 38.6901L82.8936 33.9469L81.9277 34.2057L84.2462 38.9489L83.4363 39.1659L83.8754 40.0643L89.671 38.5114L89.2318 37.613ZM79.2927 28.8152L76.6578 23.4248L77.6237 23.1659L80.2586 28.5564L79.2927 28.8152ZM74.0229 18.0343L71.3879 12.6438L72.3538 12.385L74.9888 17.7755L74.0229 18.0343ZM68.753 7.25335L66.1181 1.86288L67.084 1.60407L69.7189 6.99453L68.753 7.25335ZM63.4831 -3.52758L60.8482 -8.91805L61.8141 -9.17687L64.4491 -3.7864L63.4831 -3.52758ZM58.2133 -14.3085L55.5783 -19.699L56.5443 -19.9578L59.1792 -14.5673L58.2133 -14.3085ZM52.9434 -25.0894L50.3085 -30.4799L51.2744 -30.7387L53.9093 -25.3483L52.9434 -25.0894ZM42.4037 -46.6513L39.7687 -52.0418L40.7347 -52.3006L43.3696 -46.9101L42.4037 -46.6513ZM37.1338 -57.4323L34.4989 -62.8227L35.4648 -63.0815L38.0997 -57.6911L37.1338 -57.4323ZM31.8639 -68.2132L29.229 -73.6037L30.1949 -73.8625L32.8299 -68.472L31.8639 -68.2132ZM26.5941 -78.9941L25.2766 -81.6894L26.2425 -81.9482L27.56 -79.2529L26.5941 -78.9941ZM385.244 -40.6873L388.142 -41.4637L387.703 -42.3621L384.805 -41.5857L385.244 -40.6873ZM373.653 -37.5814L379.449 -39.1343L379.01 -40.0328L373.214 -38.4798L373.653 -37.5814ZM362.062 -34.4756L367.858 -36.0285L367.418 -36.9269L361.623 -35.374L362.062 -34.4756ZM350.471 -31.3698L356.266 -32.9227L355.827 -33.8211L350.032 -32.2682L350.471 -31.3698ZM327.289 -25.1581L333.084 -26.711L332.645 -27.6094L326.85 -26.0565L327.289 -25.1581ZM315.698 -22.0523L321.493 -23.6052L321.054 -24.5036L315.258 -22.9507L315.698 -22.0523ZM304.106 -18.9465L309.902 -20.4994L309.463 -21.3978L303.667 -19.8449L304.106 -18.9465ZM292.515 -15.8406L298.311 -17.3935L297.872 -18.2919L292.076 -16.739L292.515 -15.8406ZM280.924 -12.7348L286.72 -14.2877L286.281 -15.1861L280.485 -13.6332L280.924 -12.7348ZM269.333 -9.62896L275.129 -11.1819L274.69 -12.0803L268.894 -10.5274L269.333 -9.62896ZM257.742 -6.52313L263.538 -8.07604L263.098 -8.97445L257.999 -7.60801L255.68 -12.3512L254.714 -12.0924L257.349 -6.70191L257.619 -6.77426L257.742 -6.52313ZM246.151 -3.4173L251.947 -4.97021L251.507 -5.86862L245.712 -4.31571L246.151 -3.4173ZM234.56 -0.311469L240.355 -1.86438L239.916 -2.76279L234.121 -1.20988L234.56 -0.311469ZM222.969 2.79436L228.764 1.24144L228.325 0.343034L222.53 1.89595L222.969 2.79436ZM211.378 5.90019L217.173 4.34727L216.734 3.44886L210.938 5.00178L211.378 5.90019ZM199.787 9.00602L205.582 7.4531L205.143 6.55469L199.347 8.1076L199.787 9.00602ZM188.195 12.1118L193.991 10.5589L193.552 9.66052L187.756 11.2134L188.195 12.1118ZM176.604 15.2177L182.4 13.6648L181.961 12.7663L176.165 14.3193L176.604 15.2177ZM165.013 18.3235L170.809 16.7706L170.37 15.8722L164.574 17.4251L165.013 18.3235ZM153.422 21.4293L159.218 19.8764L158.778 18.978L152.983 20.5309L153.422 21.4293ZM141.831 24.5352L147.627 22.9822L147.187 22.0838L141.392 23.6367L141.831 24.5352ZM130.24 27.641L136.035 26.0881L135.596 25.1897L129.801 26.7426L130.24 27.641ZM118.649 30.7468L124.444 29.1939L124.005 28.2955L118.21 29.8484L118.649 30.7468ZM107.058 33.8527L112.853 32.2997L112.414 31.4013L106.618 32.9542L107.058 33.8527ZM95.4665 36.9585L101.262 35.4056L100.823 34.5072L95.0274 36.0601L95.4665 36.9585ZM72.2843 43.1701L78.0799 41.6172L77.6407 40.7188L71.8452 42.2717L72.2843 43.1701ZM60.6932 46.276L66.4888 44.7231L66.0496 43.8246L60.254 45.3776L60.6932 46.276ZM49.1021 49.3818L54.8976 47.8289L54.4585 46.9305L48.6629 48.4834L49.1021 49.3818ZM40.4088 51.7112L43.3065 50.9347L42.8674 50.0363L39.9696 50.8128L40.4088 51.7112ZM356.159 195.441L354.842 192.745L355.808 192.487L357.125 195.182L356.159 195.441ZM352.207 187.355L349.572 181.964L350.538 181.706L353.173 187.096L352.207 187.355ZM346.937 176.574L344.302 171.183L345.268 170.925L347.903 176.315L346.937 176.574ZM341.667 165.793L339.032 160.403L339.998 160.144L342.633 165.534L341.667 165.793ZM331.127 144.231L328.492 138.841L329.458 138.582L332.093 143.972L331.127 144.231ZM325.858 133.45L323.223 128.06L324.189 127.801L326.823 133.191L325.858 133.45ZM320.588 122.669L317.953 117.279L318.919 117.02L321.554 122.41L320.588 122.669ZM315.318 111.888L312.683 106.498L313.649 106.239L316.284 111.63L315.318 111.888ZM310.048 101.107L307.413 95.717L308.379 95.4581L311.014 100.849L310.048 101.107ZM304.778 90.3265L302.143 84.936L303.109 84.6772L305.744 90.0677L304.778 90.3265ZM299.508 79.5456L296.873 74.1551L297.839 73.8963L300.474 79.2867L299.508 79.5456ZM294.238 68.7646L291.603 63.3742L292.569 63.1153L295.204 68.5058L294.238 68.7646ZM288.969 57.9837L286.334 52.5932L287.299 52.3344L289.934 57.7249L288.969 57.9837ZM283.699 47.2028L281.064 41.8123L282.03 41.5535L284.665 46.9439L283.699 47.2028ZM278.429 36.4218L275.794 31.0314L276.76 30.7725L279.395 36.163L278.429 36.4218ZM273.159 25.6409L270.524 20.2504L271.49 19.9916L274.125 25.3821L273.159 25.6409ZM267.889 14.86L265.254 9.46949L266.22 9.21067L268.855 14.6011L267.889 14.86ZM262.619 4.07904L259.984 -1.31144L260.95 -1.57026L263.585 3.82022L262.619 4.07904ZM252.079 -17.4829L249.445 -22.8733L250.41 -23.1321L253.045 -17.7417L252.079 -17.4829ZM246.81 -28.2638L244.175 -33.6542L245.141 -33.9131L247.776 -28.5226L246.81 -28.2638ZM241.54 -39.0447L238.905 -44.4352L239.871 -44.694L242.506 -39.3035L241.54 -39.0447ZM236.27 -49.8256L233.635 -55.2161L234.601 -55.4749L237.236 -50.0845L236.27 -49.8256ZM231 -60.6066L228.365 -65.997L229.331 -66.2559L231.966 -60.8654L231 -60.6066ZM225.73 -71.3875L223.095 -76.778L224.061 -77.0368L226.696 -71.6463L225.73 -71.3875ZM215.19 -92.9494L212.555 -98.3398L213.521 -98.5987L216.156 -93.2082L215.19 -92.9494ZM209.921 -103.73L207.286 -109.121L208.252 -109.38L210.886 -103.989L209.921 -103.73ZM204.651 -114.511L202.016 -119.902L202.982 -120.161L205.617 -114.77L204.651 -114.511ZM199.381 -125.292L198.063 -127.987L199.029 -128.246L200.347 -125.551L199.381 -125.292Z" fill="url(#paint0_radial_261_19008)"/>
<defs>
<radialGradient id="paint0_radial_261_19008" cx="0" cy="0" r="1" gradientUnits="userSpaceOnUse" gradientTransform="translate(425 64.9998) rotate(138.605) scale(219.283 184.845)">
<stop stop-color="white"/>
<stop offset="1" stop-color="white" stop-opacity="0"/>
</radialGradient>
</defs>
</svg>
